<svg width="22" height="18" viewBox="0 0 22 18" fill="none" xmlns="http://www.w3.org/2000/svg">
<path d="M20.2846 0.917969H1.97244C1.63799 0.918356 1.31734 1.05139 1.08085 1.28788C0.844358 1.52438 0.711325 1.84502 0.710938 2.17947V17.0724C0.710981 17.1479 0.741006 17.2203 0.794417 17.2737C0.847829 17.3272 0.920258 17.3572 0.995793 17.3572H21.2612C21.3368 17.3572 21.4092 17.3272 21.4626 17.2737C21.516 17.2203 21.546 17.1479 21.5461 17.0724V2.17947C21.5457 1.84502 21.4127 1.52438 21.1762 1.28788C20.9397 1.05139 20.619 0.918356 20.2846 0.917969ZM1.28065 2.17947C1.28086 1.99606 1.35382 1.82023 1.48351 1.69054C1.6132 1.56085 1.78903 1.48789 1.97244 1.48768H20.2846C20.468 1.48789 20.6438 1.56085 20.7735 1.69054C20.9032 1.82023 20.9762 1.99606 20.9764 2.17947V4.76547H1.28065V2.17947ZM20.9764 16.7875H1.28065V5.33518H20.9764V16.7875Z" fill="white"/>
<path d="M19.9616 2.2207H7.51142C7.43587 2.2207 7.36342 2.25071 7.30999 2.30414C7.25657 2.35756 7.22656 2.43001 7.22656 2.50556V3.7485C7.22656 3.82405 7.25657 3.89651 7.30999 3.94993C7.36342 4.00335 7.43587 4.03336 7.51142 4.03336H19.9616C20.0371 4.03332 20.1095 4.00329 20.1629 3.94988C20.2163 3.89647 20.2464 3.82404 20.2464 3.7485V2.50556C20.2464 2.43002 20.2163 2.35759 20.1629 2.30418C20.1095 2.25077 20.0371 2.22075 19.9616 2.2207ZM19.6767 3.46365H7.79627V2.79041H19.6767V3.46365Z" fill="white"/>
<path d="M3.60072 2.2207H2.29853C2.22299 2.22075 2.15056 2.25077 2.09715 2.30418C2.04374 2.35759 2.01372 2.43002 2.01367 2.50556V3.7485C2.01372 3.82404 2.04374 3.89647 2.09715 3.94988C2.15056 4.00329 2.22299 4.03332 2.29853 4.03336H3.60072C3.67626 4.03332 3.74869 4.00329 3.8021 3.94988C3.85551 3.89647 3.88554 3.82404 3.88558 3.7485V2.50556C3.88554 2.43002 3.85551 2.35759 3.8021 2.30418C3.74869 2.25077 3.67626 2.22075 3.60072 2.2207ZM3.31587 3.46365H2.58338V2.79041H3.31587V3.46365Z" fill="white"/>
<path d="M6.20424 2.2207H4.90204C4.82651 2.22075 4.75408 2.25077 4.70067 2.30418C4.64726 2.35759 4.61723 2.43002 4.61719 2.50556V3.7485C4.61723 3.82404 4.64726 3.89647 4.70067 3.94988C4.75408 4.00329 4.82651 4.03332 4.90204 4.03336H6.20424C6.27979 4.03336 6.35224 4.00335 6.40566 3.94993C6.45908 3.89651 6.48909 3.82405 6.48909 3.7485V2.50556C6.48909 2.43001 6.45908 2.35756 6.40566 2.30414C6.35224 2.25071 6.27979 2.2207 6.20424 2.2207ZM5.91938 3.46365H5.1869V2.79041H5.91938V3.46365Z" fill="white"/>
<path d="M11.1286 15.4724C12.0009 15.4725 12.8535 15.2139 13.5788 14.7293C14.304 14.2447 14.8693 13.556 15.2031 12.7502C15.5369 11.9443 15.6243 11.0576 15.4541 10.2021C15.284 9.34666 14.864 8.56085 14.2472 7.94408C13.6305 7.3273 12.8447 6.90727 11.9892 6.7371C11.1337 6.56692 10.247 6.65424 9.44118 6.98803C8.63534 7.32181 7.94658 7.88705 7.46199 8.61229C6.9774 9.33752 6.71875 10.1902 6.71875 11.0624C6.72004 12.2316 7.18506 13.3525 8.01179 14.1793C8.83852 15.006 9.95944 15.4711 11.1286 15.4724ZM11.1286 7.22222C11.8882 7.22219 12.6307 7.4474 13.2623 7.86937C13.8938 8.29133 14.3861 8.89111 14.6768 9.59285C14.9675 10.2946 15.0435 11.0668 14.8954 11.8117C14.7472 12.5567 14.3814 13.241 13.8443 13.7781C13.3072 14.3152 12.6229 14.6809 11.878 14.8291C11.133 14.9773 10.3608 14.9012 9.65909 14.6105C8.95735 14.3199 8.35758 13.8276 7.93561 13.196C7.51364 12.5645 7.28843 11.822 7.28846 11.0624C7.28962 10.0443 7.69459 9.06819 8.41451 8.34827C9.13443 7.62835 10.1105 7.22338 11.1286 7.22222Z" fill="white"/>
<path d="M9.14586 13.261H13.1117C13.1872 13.2609 13.2597 13.2309 13.3131 13.1775C13.3665 13.1241 13.3965 13.0516 13.3966 12.9761V10.1772C13.3965 10.1017 13.3665 10.0292 13.3131 9.97582C13.2597 9.92241 13.1872 9.89239 13.1117 9.89234H12.5745L12.4004 9.08628C12.3867 9.02256 12.3515 8.96547 12.3008 8.92453C12.2501 8.8836 12.1869 8.86129 12.1217 8.86133H10.1359C10.0708 8.86134 10.0077 8.88364 9.95703 8.92451C9.90639 8.96538 9.87127 9.02235 9.85751 9.08596L9.68334 9.89202H9.14618C9.07065 9.89206 8.99822 9.92209 8.94481 9.9755C8.8914 10.0289 8.86137 10.1013 8.86133 10.1769V12.9761C8.86137 13.0516 8.89135 13.124 8.94469 13.1774C8.99803 13.2308 9.07038 13.2608 9.14586 13.261ZM9.43071 12.6913V11.6583H10.1795V11.6869C10.1795 11.7625 10.2095 11.8349 10.2629 11.8884C10.3163 11.9418 10.3888 11.9718 10.4643 11.9718C10.5399 11.9718 10.6123 11.9418 10.6658 11.8884C10.7192 11.8349 10.7492 11.7625 10.7492 11.6869V11.6583H11.5077V11.6869C11.5077 11.7625 11.5377 11.8349 11.5911 11.8884C11.6446 11.9418 11.717 11.9718 11.7926 11.9718C11.8681 11.9718 11.9406 11.9418 11.994 11.8884C12.0474 11.8349 12.0774 11.7625 12.0774 11.6869V11.6583H12.8262V12.6913H9.43071ZM10.3659 9.43104H11.8915L11.9913 9.89202H10.2661L10.3659 9.43104ZM12.3436 10.4617H12.8268V11.0882H9.43071V10.4621L12.3436 10.4617Z" fill="white"/>
</svg>
