<svg width="12" height="12" viewBox="0 0 12 12" fill="none" xmlns="http://www.w3.org/2000/svg">
<path d="M11.1704 8.66634L10.6496 10.8584C10.5845 11.1839 10.324 11.4009 9.99847 11.4009C4.52925 11.3792 0.0800781 6.93007 0.0800781 1.46085C0.0800781 1.1353 0.275408 0.874862 0.600957 0.809752L2.79299 0.288874C3.09683 0.223764 3.42238 0.39739 3.5526 0.679533L4.57265 3.04519C4.68117 3.32733 4.61606 3.65288 4.37733 3.82651L3.20535 4.78145C3.94326 6.27898 5.15864 7.49436 6.67787 8.23227L7.63282 7.06029C7.80644 6.84326 8.13199 6.75645 8.41413 6.86496L10.7798 7.88502C11.0619 8.03694 11.2356 8.36249 11.1704 8.66634Z" fill="white"/>
</svg>
