<svg width="22" height="17" viewBox="0 0 22 17" fill="none" xmlns="http://www.w3.org/2000/svg">
<path d="M21.1225 14.3466H19.3524V5.2286C19.3525 5.17952 19.3398 5.13124 19.3158 5.08847C19.2917 5.04569 19.257 5.00985 19.215 4.98444L11.1373 0.0977869C11.0928 0.07087 11.0418 0.0566406 10.9898 0.0566406C10.9378 0.0566406 10.8868 0.07087 10.8424 0.0977869L2.76468 4.98493C2.72268 5.01034 2.68796 5.04617 2.66389 5.08895C2.63982 5.13173 2.62722 5.18001 2.62729 5.22909V14.3471H0.857121C0.819686 14.3471 0.782618 14.3544 0.748037 14.3688C0.713455 14.3831 0.682038 14.4041 0.655583 14.4306C0.629127 14.4571 0.608152 14.4885 0.593856 14.5231C0.579559 14.5577 0.572223 14.5948 0.572266 14.6322V15.9344C0.572266 16.01 0.602277 16.0824 0.655698 16.1359C0.709119 16.1893 0.781573 16.2193 0.857121 16.2193H21.1225C21.1981 16.2193 21.2705 16.1893 21.324 16.1359C21.3774 16.0824 21.4074 16.01 21.4074 15.9344V14.6322C21.4075 14.5948 21.4002 14.5576 21.386 14.523C21.3717 14.4883 21.3507 14.4568 21.3243 14.4303C21.2978 14.4038 21.2664 14.3827 21.2317 14.3683C21.1971 14.354 21.16 14.3466 21.1225 14.3466ZM3.19701 11.4581H8.22267V12.7426H3.19701V11.4581ZM8.79238 8.4683C8.79277 8.11227 8.93437 7.77092 9.18613 7.51917C9.43789 7.26741 9.77923 7.1258 10.1353 7.12541H10.705V10.0332C10.7046 10.8052 10.5328 11.5675 10.2021 12.2651C9.87133 12.9627 9.38985 13.5782 8.79238 14.0671V8.4683ZM18.7827 12.7429H13.757V11.4581H18.7827V12.7429ZM13.1873 14.0671C12.5898 13.5782 12.1083 12.9627 11.7775 12.2652C11.4468 11.5676 11.275 10.8052 11.2747 10.0332V7.12541H11.8444C12.2004 7.1258 12.5418 7.26741 12.7935 7.51917C13.0453 7.77092 13.1869 8.11227 13.1873 8.4683V14.0671ZM9.42036 14.2753C10.1423 13.6074 10.6825 12.7668 10.9898 11.8325C11.3094 12.7997 11.8761 13.6665 12.6339 14.3472H9.34581C9.37137 14.323 9.39464 14.2987 9.42036 14.2753ZM13.757 13.3126H18.7827V14.3466H13.757V13.3126ZM10.9898 0.674334L18.7827 5.38926V10.8884H13.757V8.4683C13.7564 7.96124 13.5547 7.47511 13.1961 7.11656C12.8376 6.75801 12.3515 6.55631 11.8444 6.5557H10.1353C9.62819 6.55626 9.14204 6.75795 8.78347 7.11651C8.42491 7.47507 8.22323 7.96122 8.22267 8.4683V10.8884H3.19701V5.38926L10.9898 0.674334ZM3.19701 13.3126H8.22267V14.3466H3.19701V13.3126ZM20.8377 15.6488H1.14198V14.9163H20.8377V15.6488Z" fill="white"/>
<path d="M5.70747 9.88793C5.97762 9.88796 6.24171 9.80789 6.46634 9.65783C6.69097 9.50776 6.86606 9.29446 6.96946 9.04489C7.07287 8.79532 7.09994 8.52069 7.04725 8.25573C6.99457 7.99077 6.8645 7.74739 6.67349 7.55635C6.48248 7.36532 6.23911 7.23522 5.97416 7.18251C5.70921 7.12979 5.43457 7.15683 5.18499 7.2602C4.93541 7.36358 4.72208 7.53864 4.57199 7.76325C4.42191 7.98787 4.3418 8.25195 4.3418 8.52209C4.34218 8.88419 4.48619 9.23134 4.74221 9.4874C4.99824 9.74346 5.34538 9.8875 5.70747 9.88793ZM5.70747 7.72596C5.86494 7.72593 6.01888 7.77259 6.14983 7.86005C6.28077 7.94751 6.38284 8.07184 6.44312 8.21731C6.5034 8.36278 6.51919 8.52286 6.48849 8.67731C6.45779 8.83175 6.38198 8.97363 6.27064 9.08498C6.15931 9.19634 6.01745 9.27218 5.86301 9.30291C5.70858 9.33364 5.54849 9.31789 5.40301 9.25763C5.25753 9.19738 5.13318 9.09534 5.04569 8.96441C4.9582 8.83349 4.91151 8.67956 4.91151 8.52209C4.91189 8.31109 4.99587 8.10884 5.14506 7.95963C5.29424 7.81041 5.49648 7.72639 5.70747 7.72596Z" fill="white"/>
<path d="M10.9889 5.66137C11.259 5.66137 11.5231 5.58125 11.7478 5.43115C11.9724 5.28105 12.1474 5.0677 12.2508 4.8181C12.3542 4.5685 12.3812 4.29385 12.3284 4.02889C12.2757 3.76393 12.1456 3.52056 11.9545 3.32956C11.7634 3.13856 11.52 3.00852 11.2551 2.95587C10.9901 2.90323 10.7154 2.93034 10.4659 3.0338C10.2163 3.13725 10.003 3.31239 9.85299 3.53706C9.70297 3.76174 9.62295 4.02586 9.62305 4.29602C9.62356 4.65806 9.76765 5.00511 10.0237 5.26107C10.2797 5.51702 10.6268 5.66098 10.9889 5.66137ZM10.9889 3.4994C11.1463 3.4994 11.3002 3.54608 11.4311 3.63354C11.5621 3.721 11.6641 3.84531 11.7244 3.99075C11.7846 4.1362 11.8004 4.29625 11.7698 4.45067C11.7391 4.60509 11.6633 4.74695 11.552 4.85831C11.4407 4.96967 11.2989 5.04553 11.1445 5.0763C10.9901 5.10708 10.83 5.09138 10.6846 5.0312C10.5391 4.97101 10.4147 4.86905 10.3272 4.73819C10.2396 4.60733 10.1929 4.45346 10.1928 4.29602C10.193 4.0849 10.277 3.88251 10.4262 3.73318C10.5754 3.58386 10.7778 3.49979 10.9889 3.4994Z" fill="white"/>
<path d="M16.27 9.88793C16.5401 9.88796 16.8042 9.80789 17.0288 9.65783C17.2535 9.50776 17.4286 9.29446 17.532 9.04489C17.6354 8.79532 17.6624 8.52069 17.6098 8.25573C17.5571 7.99077 17.427 7.74739 17.236 7.55635C17.045 7.36532 16.8016 7.23522 16.5367 7.18251C16.2717 7.12979 15.9971 7.15683 15.7475 7.2602C15.4979 7.36358 15.2846 7.53864 15.1345 7.76325C14.9844 7.98787 14.9043 8.25195 14.9043 8.52209C14.9047 8.88419 15.0487 9.23134 15.3047 9.4874C15.5607 9.74346 15.9079 9.8875 16.27 9.88793ZM16.27 7.72596C16.4274 7.72593 16.5814 7.77259 16.7123 7.86005C16.8433 7.94751 16.9453 8.07184 17.0056 8.21731C17.0659 8.36278 17.0817 8.52286 17.051 8.67731C17.0203 8.83175 16.9445 8.97363 16.8331 9.08498C16.7218 9.19634 16.58 9.27218 16.4255 9.30291C16.2711 9.33364 16.111 9.31789 15.9655 9.25763C15.82 9.19738 15.6957 9.09534 15.6082 8.96441C15.5207 8.83349 15.474 8.67956 15.474 8.52209C15.4744 8.31109 15.5584 8.10884 15.7076 7.95963C15.8567 7.81041 16.059 7.72639 16.27 7.72596Z" fill="white"/>
</svg>
