<svg width="881" height="280" viewBox="0 0 881 280" fill="none" xmlns="http://www.w3.org/2000/svg">
<path d="M834.211 405.968H833.905C821.655 390.805 809.643 375.284 797.67 359.814C758.158 308.756 719.081 258.258 673.315 223.107C567.791 142.057 426.642 142.626 162.495 405.968H162.162C426.54 142.344 567.823 141.788 673.468 222.929C719.257 258.1 758.346 308.608 797.867 359.678C809.874 375.194 821.923 390.764 834.211 405.968ZM844.618 405.968H844.301C828.67 388.235 813.353 369.826 798.053 351.444C755.59 300.403 713.262 249.526 664.746 213.807C550.964 130.043 403.065 129.664 139.352 405.975H139.027C402.958 129.382 550.994 129.767 664.895 213.626C713.438 249.364 755.773 300.25 798.245 351.302C813.585 369.738 828.943 388.194 844.618 405.968ZM856.873 405.968H856.544C837.296 385.893 818.404 364.669 799.468 343.4C753.805 292.101 707.892 240.525 656.169 204.137C533.768 118.025 378.749 117.017 117.278 405.968H116.956C378.635 116.726 533.789 117.758 656.315 203.953C708.059 240.356 753.981 291.943 799.657 343.252C818.637 364.578 837.576 385.851 856.873 405.968ZM870.991 405.968H870.652C847.62 383.825 824.911 359.872 802.042 335.761C752.834 283.869 702.876 231.185 647.366 194.002C516.047 106.033 353.588 104.85 96.3098 405.968H95.9983C353.47 104.568 516.068 105.763 647.512 193.815C703.042 231.015 753.01 283.706 802.228 335.608C825.145 359.781 847.907 383.782 870.991 405.968ZM880.39 400.065V400.384C855.604 377.979 830.918 353.443 805.921 328.594C752.719 275.713 698.1 221.419 638.071 183.282C497.623 94.0533 327.486 93.3257 76.4799 405.968H76.1737C327.356 93.0419 497.629 93.7883 638.205 183.091C698.26 221.244 752.888 275.546 806.097 328.431C831.036 353.226 855.664 377.705 880.399 400.065H880.39ZM880.39 385.21V385.523C857.605 365.571 834.639 343.959 811.289 321.993C753.54 267.663 693.444 211.13 627.967 171.861C478.27 82.0855 300.377 82.6084 57.8486 405.968H57.5511C300.239 82.3263 478.274 81.8103 628.097 171.668C693.596 210.95 753.7 267.491 811.461 321.824C834.751 343.741 857.661 365.292 880.399 385.218L880.39 385.21ZM880.39 370.315V370.624C860.079 353.36 839.429 334.901 818.374 316.079C755.398 259.784 688.78 200.234 616.703 159.645C457.775 70.1521 272.234 72.8887 40.4668 405.968H40.1746C272.085 72.6152 457.765 69.8804 616.826 159.449C688.928 200.041 755.555 259.608 818.54 315.913C839.54 334.683 860.132 353.092 880.399 370.315H880.39ZM880.39 355.385V355.689C863.122 341.429 845.482 326.382 827.465 311.016C758.49 252.192 684.005 188.658 603.896 146.568C435.875 58.2893 243.074 64.3523 24.391 405.968H24.1076C242.927 64.0754 435.861 58.021 604.013 146.367C684.146 188.469 758.644 252.008 827.627 310.846C845.588 326.164 863.175 341.166 880.399 355.385H880.39ZM880.39 340.421V340.722C866.868 329.86 853.043 318.561 838.931 307.027C763.128 245.066 679.049 176.342 589.148 132.6C412.349 46.5778 213.007 57.2143 9.72665 405.968H9.44857C212.841 56.9443 412.328 46.3095 589.259 132.396C679.185 176.151 763.276 244.884 839.09 306.853C853.147 318.341 866.917 329.599 880.399 340.421H880.39ZM880.39 325.426V325.724C871.509 318.779 862.471 311.68 853.275 304.426C769.83 238.74 673.931 163.249 572.062 117.763C388.253 35.6867 185.002 51.3663 0.398652 398.619V398.103C185.023 51.0808 388.315 35.4597 572.166 117.555C674.06 163.054 769.974 238.556 853.432 304.251C862.572 311.445 871.561 318.504 880.399 325.426H880.39ZM880.39 310.403V310.698L871.203 303.695C779.482 233.757 668.803 149.368 552.255 102.134C365.519 26.4538 163.665 46.2098 0.389854 373.55V373.006C163.704 45.9311 365.59 26.2268 552.352 101.919C668.936 149.169 779.621 233.568 871.356 303.518L880.39 310.403ZM880.39 295.355V295.648C782.266 222.72 658.229 132.58 529.382 85.8472C341.464 17.6887 143.311 41.9303 0.398652 346.649V346.088C143.363 41.6569 341.529 17.4669 529.47 85.6322C658.287 132.354 782.279 222.443 880.399 295.355H880.39ZM880.39 280.281V280.572C776.902 205.494 641.361 113.162 503.158 69.1081C316.224 9.51697 124.406 38.3201 0.389854 317.595V317.003C124.479 38.0328 316.296 9.29853 503.231 68.8896C641.408 112.942 776.911 205.213 880.399 280.281H880.39ZM880.39 265.188V265.474C760.59 180.578 593.828 74.9527 432.023 42.3243C263.001 8.24078 99.3986 53.8586 0.398652 285.974V285.364C99.4761 53.5697 263.065 8.02232 432.072 42.099C593.86 74.7239 760.581 180.296 880.399 265.188H880.39ZM880.39 250.073V250.357C758.297 165.777 583.504 61.9976 416.968 30.5904C248.691 -1.14359 88.858 41.0463 0.398652 251.66V251.046C88.9618 40.7608 248.773 -1.36371 417.026 30.3703C583.529 61.7672 758.284 165.497 880.399 250.073H880.39ZM880.39 234.937V235.221C756.333 151.149 574.055 49.5207 403.141 19.075C336.506 7.20698 271.601 6.15607 212.553 21.1889C153.505 36.2217 100.323 67.3331 57.1146 119.786C35.5494 145.966 16.471 177.461 0.398652 214.926V214.317C16.4411 177.062 35.4526 145.717 56.9298 119.645C100.173 67.1508 153.406 36.0118 212.498 20.967C271.59 5.92214 336.525 6.97313 403.194 18.8497C574.076 49.2903 756.319 150.872 880.399 234.937H880.39ZM880.39 219.782V220.062C748.089 132.301 545.488 26.9991 363.126 3.64663C300.574 -4.36169 240.403 -2.73116 186.27 12.5596C132.138 27.8504 84.055 56.7946 45.6465 103.412C28.527 124.195 13.3347 148.491 0.388092 176.655V176.075C13.2942 148.099 28.4231 123.95 45.4546 103.269C83.8895 56.6123 132.022 27.6424 186.195 12.3395C240.368 -2.96332 300.565 -4.59386 363.15 3.41962C545.502 26.7703 748.062 132.024 880.399 219.782H880.39ZM880.39 204.608V204.888C784.246 142.421 648.95 71.9065 511.335 28.6451C408.511 -3.67372 304.402 -20.7825 214.385 -7.93759C124.368 4.90737 48.4713 47.6924 2.01609 135.149C1.47049 136.181 0.928414 137.218 0.389854 138.259V137.743C0.859187 136.844 1.32852 135.948 1.79785 135.055C48.2935 47.5204 124.271 4.69757 214.346 -8.15771C304.421 -21.013 408.551 -3.89899 511.409 28.4353C648.982 71.6761 784.239 142.156 880.399 204.608H880.39ZM880.39 189.422V189.699C777.615 124.265 627.92 50.9397 478.591 9.61674C376.919 -18.5173 275.427 -31.8164 189.055 -17.6831C109.401 -4.6507 42.607 31.717 0.382812 101.294V100.834C42.658 31.4143 109.424 -4.87766 189.016 -17.9084C275.432 -32.0485 376.956 -18.7477 478.659 9.39662C627.948 50.7076 777.615 123.998 880.399 189.422H880.39ZM880.39 174.219V174.496C770.798 106.073 605.467 30.0864 444.288 -8.69269C344.29 -32.7538 245.898 -42.4907 163.422 -27.2102C95.7026 -14.6645 38.7209 14.7579 0.389854 66.9633V66.5608C38.7579 14.4706 95.7114 -14.9001 163.376 -27.4372C245.889 -42.7246 344.318 -32.9842 444.35 -8.91626C605.487 29.8543 770.775 105.808 880.399 174.219H880.39ZM880.39 159.004V159.277C763.897 87.9284 581.894 9.53762 409.037 -26.1231C311.144 -46.3194 216.19 -52.8124 137.747 -36.5584C81.9958 -25.0017 34.5884 -1.95368 0.398652 35.8244V35.4701C34.6183 -2.23061 82.001 -25.2459 137.705 -36.782C216.185 -53.0446 311.172 -46.5516 409.097 -26.3485C581.903 9.3054 763.867 87.6583 880.399 159.004H880.39ZM186.307 405.968C449.5 155.514 584.419 153.847 682.198 231.987C725.594 266.664 761.672 317.044 798.416 368.354C807.406 380.91 816.438 393.517 825.626 405.968H825.328C816.176 393.56 807.174 380.994 798.214 368.483C761.479 317.185 725.409 266.817 682.041 232.162C584.37 154.116 449.595 155.794 186.649 405.968H186.307Z" fill="white"/>
</svg>
