<svg width="14" height="15" viewBox="0 0 14 15" fill="none" xmlns="http://www.w3.org/2000/svg">
<path d="M13.8668 2.24312C13.8403 2.18771 13.7929 2.14507 13.7351 2.12453L8.93302 0.429306C8.81252 0.386681 8.68028 0.449996 8.63766 0.570492L7.54685 3.6571H7.06973V2.86999C7.06971 2.76368 7.04529 2.65879 6.99834 2.56341C6.95139 2.46803 6.88317 2.3847 6.79893 2.31984C6.7147 2.25499 6.6167 2.21034 6.51248 2.18933C6.40827 2.16833 6.30062 2.17153 6.19784 2.1987L0.635417 3.66479V3.66896C0.58639 3.68128 0.542844 3.70954 0.511617 3.74929C0.48039 3.78905 0.463251 3.83805 0.462891 3.8886V13.6116C0.462891 13.9952 0.773854 14.3061 1.15739 14.3061H7.63942C8.02296 14.3061 8.33393 13.9952 8.33393 13.6116V11.5111L10.1906 12.1665C10.3112 12.2089 10.4434 12.1458 10.4859 12.0252L13.8767 2.42001C13.8868 2.39132 13.8911 2.36093 13.8894 2.33057C13.8877 2.30022 13.88 2.2705 13.8668 2.24312H13.8668ZM6.31596 2.64515C6.35023 2.63612 6.38611 2.63506 6.42084 2.64206C6.45558 2.64906 6.48826 2.66392 6.51635 2.68552C6.54446 2.70716 6.56722 2.73497 6.58288 2.76679C6.59853 2.79862 6.60667 2.83362 6.60667 2.8691V3.6571H2.4795L6.31596 2.64515ZM7.87092 13.6116C7.87092 13.673 7.84653 13.7319 7.80312 13.7753C7.7597 13.8188 7.70082 13.8431 7.63942 13.8431H1.15739C1.096 13.8431 1.03711 13.8188 0.993698 13.7753C0.950283 13.7319 0.925893 13.673 0.925893 13.6116V4.1201H7.63942C7.70082 4.1201 7.7597 4.14449 7.80312 4.1879C7.84653 4.23132 7.87092 4.2902 7.87092 4.3516V13.6116ZM9.77392 5.00145L10.0702 4.86096L10.2114 5.15633L9.08654 8.33967C9.06619 8.39754 9.06958 8.46121 9.09603 8.51659L9.33702 9.02074L9.26253 9.2321L8.80338 8.75666C8.7785 8.7307 8.74791 8.7109 8.71403 8.69884C8.68016 8.68677 8.64394 8.68277 8.60825 8.68715L8.33393 8.72188V8.41166L8.5314 8.31718C8.58679 8.29071 8.62943 8.24337 8.64998 8.18552L9.11298 6.87618L9.77392 5.00145ZM10.2105 6.54666L10.6805 7.30188L10.6001 7.52941L10.0377 7.03704L10.2105 6.54666ZM8.33393 7.68961V7.05342L8.56169 7.04393L8.33393 7.68961ZM8.72754 6.57381L8.33393 6.58998V6.28183L8.9007 6.08412L8.72754 6.57381ZM10.1263 11.6527L8.33393 11.02V9.18855L8.55084 9.16144L9.19054 9.82316C9.21224 9.84529 9.23818 9.86284 9.26679 9.87476C9.29541 9.88668 9.32613 9.89273 9.35713 9.89255C9.37364 9.89266 9.39011 9.89088 9.40621 9.88725C9.44475 9.87888 9.48052 9.86078 9.5101 9.83469C9.53967 9.80859 9.56209 9.77537 9.5752 9.73817L9.80671 9.08322C9.82716 9.02534 9.82378 8.96168 9.79719 8.90641L9.55509 8.40287L9.87184 7.5058L10.552 8.10197C10.5942 8.13898 10.6484 8.15938 10.7046 8.15939C10.7243 8.15939 10.744 8.15678 10.7631 8.15169C10.7997 8.14212 10.8334 8.12375 10.8612 8.09817C10.8891 8.0726 10.9102 8.0406 10.9229 8.00497L11.1544 7.35003C11.1659 7.3173 11.17 7.28239 11.1662 7.24789C11.1624 7.21339 11.1509 7.18019 11.1325 7.15074L10.4079 5.98669L10.6793 5.2184C10.6894 5.18969 10.6938 5.15927 10.6922 5.12887C10.6905 5.09847 10.6829 5.0687 10.6698 5.04124L10.3874 4.45074C10.3743 4.4233 10.3559 4.3987 10.3333 4.37837C10.3107 4.35803 10.2843 4.34235 10.2556 4.33222C10.2269 4.32209 10.1965 4.31771 10.1661 4.31932C10.1358 4.32094 10.106 4.32853 10.0786 4.34164L9.48773 4.62413C9.46033 4.63723 9.43579 4.6556 9.4155 4.6782C9.39521 4.70079 9.37958 4.72716 9.36949 4.7558L9.09785 5.52505L8.33393 5.79154V4.3516C8.33366 4.23313 8.30299 4.11671 8.24486 4.01347C8.18673 3.91024 8.10309 3.82365 8.00192 3.76199L8.38028 2.68916L8.46516 2.44849L8.9977 0.94373L13.3635 2.48477L10.1263 11.6527Z" fill="#824800"/>
<path d="M11.9526 3.95207L12.1066 3.5154L12.5036 3.65546L12.3495 4.09213L11.9526 3.95207ZM8.77734 2.83106L8.93152 2.39453L9.3284 2.53468L9.17422 2.97123L8.77734 2.83106ZM11.1587 3.67184L11.3129 3.23517L11.7098 3.37534L11.5556 3.8119L11.1587 3.67184ZM9.57122 3.1114L9.7254 2.67485L10.1221 2.81502L9.96798 3.25158L9.57122 3.1114ZM10.3649 3.3914L10.5192 2.95485L10.916 3.09502L10.7618 3.53155L10.3649 3.3914ZM4.29157 5.04774C3.01299 5.04774 1.97656 6.08417 1.97656 7.36275C1.97656 8.64133 3.01299 9.67776 4.29157 9.67776C5.57015 9.67776 6.60658 8.64133 6.60658 7.36275C6.60522 6.08486 5.56957 5.04918 4.29157 5.04774ZM5.96327 6.57124L5.64745 6.50185C5.50855 6.47121 5.36959 6.44693 5.2293 6.42589C5.20829 6.28575 5.18293 6.1463 5.15325 6.00774L5.08371 5.69203C5.46911 5.87548 5.77967 6.18592 5.96327 6.57124ZM2.43954 7.36275C2.44 7.26812 2.4477 7.17364 2.46271 7.08014L3.03516 6.95276C3.12298 6.93331 3.21139 6.91716 3.3 6.90189C3.27761 7.20876 3.27761 7.51685 3.3 7.82372C3.21136 7.80844 3.12298 7.79218 3.03516 7.77273L2.46271 7.64547C2.44772 7.55196 2.43998 7.45744 2.43956 7.36275H2.43954ZM3.7698 6.8412C4.1168 6.81023 4.46588 6.81023 4.81288 6.8412C4.84397 7.1882 4.84397 7.53729 4.81288 7.88429C4.46587 7.91537 4.11678 7.91537 3.76977 7.88429C3.73869 7.53729 3.73871 7.1882 3.7698 6.8412ZM5.28211 6.90189C5.37083 6.91716 5.45924 6.93331 5.54695 6.95276L6.11948 7.08014C6.15158 7.26722 6.15158 7.45839 6.11948 7.64547L5.54695 7.77273C5.45926 7.79218 5.37083 7.80844 5.28211 7.82395C5.3046 7.51701 5.3046 7.20883 5.28211 6.90189ZM4.57403 5.53392L4.70133 6.10668C4.72078 6.19439 4.73715 6.28279 4.75255 6.37152C4.44557 6.34902 4.13735 6.34902 3.83036 6.37152C3.84573 6.28279 3.86191 6.19439 3.88158 6.10668L4.00885 5.53392C4.19591 5.50215 4.38698 5.50215 4.57403 5.53392ZM3.49987 5.69035L3.43033 6.00618C3.3998 6.14508 3.37549 6.28404 3.35449 6.42433C3.21435 6.44526 3.0749 6.47054 2.93634 6.50014L2.62051 6.56968C2.80425 6.1847 3.11469 5.87453 3.49984 5.69113L3.49987 5.69035ZM2.62005 8.15355L2.93587 8.22306C3.07477 8.25359 3.21359 8.2779 3.35402 8.29894C3.37495 8.43906 3.40024 8.5785 3.42984 8.71706L3.49938 9.03277C3.11403 8.84949 2.80341 8.53931 2.61959 8.15422L2.62005 8.15355ZM4.00905 9.19022L3.88176 8.61745C3.86208 8.52997 3.84593 8.44134 3.83054 8.35285C3.98385 8.36405 4.1378 8.3716 4.29175 8.3716C4.44569 8.3716 4.59921 8.36405 4.75272 8.35285C4.73736 8.44134 4.72095 8.52995 4.7015 8.61745L4.57424 9.19022C4.38718 9.22198 4.19611 9.22198 4.00905 9.19022ZM5.08322 9.03378L5.15276 8.71795C5.18352 8.57905 5.20759 8.44021 5.22886 8.2998C5.36898 8.27885 5.50841 8.25357 5.64695 8.22399L5.96266 8.15445C5.77923 8.54011 5.4686 8.85085 5.08302 9.03444L5.08322 9.03378ZM2.43956 11.5298H6.14358V11.9928H2.43956V11.5298ZM2.90257 12.4558H5.68058V12.9188H2.90257V12.4558ZM4.06007 10.6038H4.52307V11.0668H4.06007V10.6038ZM3.13407 10.6038H3.59707V11.0668H3.13407V10.6038ZM4.98608 10.6038H5.44908V11.0668H4.98608V10.6038Z" fill="#824800"/>
</svg>
