<svg width="283" height="449" viewBox="0 0 283 449" fill="none" xmlns="http://www.w3.org/2000/svg">
<g clip-path="url(#clip0_1098_5066)">
<rect width="283" height="449" rx="15.1351" fill="#FFFEFD"/>
<g clip-path="url(#clip1_1098_5066)">
<path d="M159.434 246.74L130.165 304.304L101.356 285.297L130.674 227.733L159.434 246.74Z" fill="#E3CDB8" stroke="#979797" stroke-width="0.411445"/>
<path d="M186.223 229.026L159.7 246.422L130.97 227.434L157.491 210.095L186.223 229.026Z" fill="#889A9E" stroke="#979797" stroke-width="0.411445"/>
<path d="M78.4922 338.365L45.46 403.272L16.6514 384.321L49.6836 319.414L78.4922 338.365Z" fill="#E3CDB8" stroke="#979797" stroke-width="0.411445"/>
<path d="M129.871 304.603L78.7598 338.048L49.9805 319.115L101.09 285.613L129.871 304.603Z" fill="#889A9E" stroke="#979797" stroke-width="0.411445"/>
<path d="M222.9 176.419L188.536 243.471L161.686 261.084L161.64 261.114L161.615 261.163L132.184 318.991L80.6943 352.708L80.6484 352.739L80.623 352.788L47.4277 418.014L-23.6816 464.593L-23.7275 464.624L-23.752 464.671L-55.1406 526.37L-71.0586 536.787L-28.3291 452.786L42.832 406.207L42.8779 406.176L42.9033 406.127L76.0967 340.901L127.537 307.241L127.583 307.21L127.607 307.162L157.038 249.276L183.89 231.665L183.936 231.635L183.96 231.586L214.918 171.292L222.9 176.419Z" fill="#B3B3B3" stroke="#979797" stroke-width="0.411445"/>
<path d="M45.1621 403.569L-25.6689 449.932L-54.3994 430.944L16.3818 384.636L45.1621 403.569Z" fill="#889A9E" stroke="#979797" stroke-width="0.411445"/>
<path d="M240.228 106.163L235.986 187.428L226.852 182.357L231.094 101.092L240.228 106.163Z" fill="#889A9E" stroke="#979797" stroke-width="0.411445"/>
<path d="M226.456 182.107L214.662 174.393L214.471 174.268L214.366 174.471L186.521 228.73L157.761 209.779L185.527 155.538L185.611 155.373L185.457 155.272L173.448 147.402L230.679 101.202L226.456 182.107Z" fill="#E3CDB8" stroke="#979797" stroke-width="0.411445"/>
<path d="M137.012 246.647C160.868 231.228 182.474 229.612 198.21 239.368L198.955 239.841L233.077 262.025L109.491 500.576L75.4014 478.414H75.4023C59.8271 468.234 50.1092 446.602 50.0166 415.727L50.0195 414.267C50.2287 383.572 59.8642 349.708 75.3682 319.584C91.1187 288.981 112.915 262.258 137.011 246.646L137.012 246.647Z" fill="url(#paint0_linear_1098_5066)" stroke="#979797" stroke-width="0.411445"/>
<path d="M171.29 268.934C192.38 255.293 211.671 252.414 226.734 258.664V258.665C245.777 266.597 258.135 289.119 258.604 323.185L258.618 324.816C258.688 355.868 248.983 390.33 233.232 420.932C217.728 451.057 196.375 477.421 172.749 493.104L171.623 493.843C147.527 509.455 125.741 510.965 109.968 500.881C94.4325 490.949 84.6509 469.721 84.2607 439.411L84.249 437.961C84.1796 406.883 93.8728 372.421 109.617 341.819C125.33 311.278 147.059 284.603 171.097 268.978L171.143 269.03L171.29 268.934Z" fill="#CFCBC7" stroke="#979797" stroke-width="0.411445"/>
<path d="M142.706 291.992C166.423 266.239 194.286 250.501 219.751 256.492C192.963 251.642 165.223 269.247 142.076 295.724C117.248 324.124 97.6319 362.805 90.0361 395.234L89.6836 396.773C87.7581 403.858 85.7724 414.59 84.5166 428.817C85.1707 413.985 86.8236 403.597 88.6377 396.441L88.6504 396.443C95.9386 360.091 116.812 320.11 142.706 291.992Z" fill="url(#paint1_radial_1098_5066)" stroke="#979797" stroke-width="0.411445"/>
<path d="M170.829 280.103C189.538 268.004 206.683 265.327 220.124 270.615L220.761 270.872C237.933 277.986 249.05 298.281 249.481 328.957L249.494 330.426C249.563 358.387 240.831 389.421 226.645 416.984C212.679 444.117 193.437 467.867 172.131 482.007L171.115 482.673C149.405 496.727 129.785 498.081 115.587 489.004C101.602 480.063 92.7979 460.952 92.46 433.656L92.4502 432.35C92.3809 404.363 101.113 373.317 115.3 345.747C129.418 318.312 148.928 294.34 170.512 280.258V280.308L170.829 280.103Z" fill="white" stroke="#979797" stroke-width="0.411445"/>
<mask id="mask0_1098_5066" style="mask-type:luminance" maskUnits="userSpaceOnUse" x="92" y="267" width="158" height="228">
<path d="M170.829 280.103C189.538 268.004 206.683 265.327 220.124 270.615L220.761 270.872C237.933 277.986 249.05 298.281 249.481 328.957L249.494 330.426C249.563 358.387 240.831 389.421 226.645 416.984C212.679 444.117 193.437 467.867 172.131 482.007L171.115 482.673C149.405 496.727 129.785 498.081 115.587 489.004C101.602 480.063 92.7979 460.952 92.46 433.656L92.4502 432.35C92.3809 404.363 101.113 373.317 115.3 345.747C129.418 318.312 148.928 294.34 170.512 280.258V280.308L170.829 280.103Z" fill="white" stroke="white" stroke-width="0.411445"/>
</mask>
<g mask="url(#mask0_1098_5066)">
<path opacity="0.3" d="M175.223 314.847C172.225 313.765 168.489 314.473 164.687 316.818L164.306 317.057V317.058C159.426 320.226 155.027 325.648 151.849 331.831C148.67 338.016 146.701 344.983 146.701 351.257C146.701 357.024 148.405 361.479 151.538 363.692L151.846 363.899C155.079 365.971 159.397 365.56 163.907 362.772L164.345 362.495C169.224 359.327 173.623 353.905 176.801 347.721C179.98 341.536 181.948 334.569 181.948 328.295C181.948 321.772 179.763 316.98 175.9 315.132L175.521 314.962L175.521 314.961L175.223 314.847ZM146.511 351.256C146.488 344.932 148.456 337.912 151.664 331.675C154.772 325.631 159.034 320.342 163.748 317.135L164.205 316.831L164.207 316.83C168.343 314.099 172.392 313.404 175.549 314.719V314.718C179.651 316.437 182.093 321.317 182.093 328.295V328.296C182.116 334.62 180.146 341.64 176.938 347.877C173.83 353.921 169.569 359.211 164.855 362.417L164.398 362.721L164.397 362.722C161.548 364.577 158.853 365.493 156.403 365.493C154.79 365.493 153.339 365.093 152.009 364.29L151.744 364.124L151.742 364.123L151.434 363.916C148.285 361.708 146.511 357.216 146.511 351.257V351.256Z" fill="#453F38" stroke="#979797" stroke-width="0.411445"/>
<path opacity="0.3" d="M165.053 338.217C165.227 338.339 165.371 338.606 165.371 338.997C165.371 339.399 165.243 339.86 165.028 340.28C164.813 340.7 164.521 341.058 164.211 341.267L164.202 341.273L164.193 341.281C164.048 341.403 163.911 341.44 163.771 341.44C163.757 341.44 163.723 341.435 163.674 341.419C163.63 341.404 163.587 341.385 163.553 341.366C163.408 341.262 163.281 340.987 163.281 340.607C163.281 340.205 163.408 339.744 163.623 339.324C163.836 338.908 164.124 338.551 164.431 338.342C164.533 338.286 164.693 338.252 164.849 338.233C164.924 338.224 164.991 338.22 165.039 338.218C165.044 338.217 165.048 338.217 165.053 338.217Z" fill="#453F38" stroke="#979797" stroke-width="0.411445"/>
<path d="M143.898 308.238L143.624 308.522L141.399 301.18L141.674 300.896L143.898 308.238Z" fill="#453F38" stroke="#979797" stroke-width="0.411445"/>
<path d="M165.371 290.208L163.928 291.139L163.884 281.859L165.371 280.883V290.208Z" fill="#453F38" stroke="#979797" stroke-width="0.411445"/>
<path d="M137.315 315.747L137.042 316.105L134.088 309.624L134.397 309.251L137.315 315.747Z" fill="#453F38" stroke="#979797" stroke-width="0.411445"/>
<path d="M131.56 323.147L130.193 325.116L126.634 319.469L127.998 317.545L131.56 323.147Z" fill="#453F38" stroke="#979797" stroke-width="0.411445"/>
<path d="M150.718 301.468L150.47 301.703L148.94 293.616L149.229 293.363L150.718 301.468Z" fill="#453F38" stroke="#979797" stroke-width="0.411445"/>
<path d="M157.72 295.572L157.459 295.76L156.668 287.034L156.931 286.823L157.72 295.572Z" fill="#453F38" stroke="#979797" stroke-width="0.411445"/>
<path d="M102.929 382.542L96.4238 382.981L96.5703 382.518L103.081 382.031L102.929 382.542Z" fill="#453F38" stroke="#979797" stroke-width="0.411445"/>
<path d="M125.069 332.735L124.776 333.242L120.616 328.529L120.909 328.021L125.069 332.735Z" fill="#453F38" stroke="#979797" stroke-width="0.411445"/>
<path d="M100.418 392.645L93.6396 394.254L93.7598 393.768L100.531 392.211L100.418 392.645Z" fill="#453F38" stroke="#979797" stroke-width="0.411445"/>
<path d="M110.171 361.676L109.924 362.229L104.202 360.527L104.413 360.025L110.171 361.676Z" fill="#453F38" stroke="#979797" stroke-width="0.411445"/>
<path d="M106.602 370.916L105.772 373.22L99.6152 372.637L100.446 370.284L106.602 370.916Z" fill="#453F38" stroke="#979797" stroke-width="0.411445"/>
<path d="M171.821 286.497L171.602 286.602L172.353 276.834L172.569 276.713L171.821 286.497Z" fill="#453F38" stroke="#979797" stroke-width="0.411445"/>
<path d="M119.589 342.062L119.328 342.53L114.561 338.787L114.821 338.32L119.589 342.062Z" fill="#453F38" stroke="#979797" stroke-width="0.411445"/>
<path d="M114.592 351.716L114.38 352.22L109.062 349.554L109.341 348.991L114.592 351.716Z" fill="#453F38" stroke="#979797" stroke-width="0.411445"/>
<path d="M202.686 270.12L199.023 280.588L197.819 280.433L201.478 269.927L202.686 270.12Z" fill="#453F38" stroke="#979797" stroke-width="0.411445"/>
<path d="M225.265 281.925L219.378 291.329L219.292 291.234L225.18 281.83L225.265 281.925Z" fill="#453F38" stroke="#979797" stroke-width="0.411445"/>
<path d="M229.907 288.132L223.626 296.925L222.857 295.827L229.175 286.997L229.907 288.132Z" fill="#453F38" stroke="#979797" stroke-width="0.411445"/>
<path d="M233.152 294.343L226.536 302.459L226.456 302.295L233.072 294.179L233.152 294.343Z" fill="#453F38" stroke="#979797" stroke-width="0.411445"/>
<path d="M235.987 301.961L229.099 309.287L229.013 309.112L235.915 301.767L235.987 301.961Z" fill="#453F38" stroke="#979797" stroke-width="0.411445"/>
<path d="M238.035 310.401L230.961 316.947L230.892 316.675L237.987 310.15L238.035 310.401Z" fill="#453F38" stroke="#979797" stroke-width="0.411445"/>
<path d="M178.778 283.412L178.614 283.469L180.076 273.333L180.287 273.265L178.778 283.412Z" fill="#453F38" stroke="#979797" stroke-width="0.411445"/>
<path d="M239.633 330.312L232.485 334.934L232.449 332.977L239.633 328.359V330.312Z" fill="#453F38" stroke="#979797" stroke-width="0.411445"/>
<path d="M97.3193 422.474L90.1299 427.145L90.0928 425.137L97.2832 420.514L97.3193 422.474Z" fill="#453F38" stroke="#979797" stroke-width="0.411445"/>
<path d="M239.286 319.586L232.096 325.191L232.081 324.962L239.234 319.314L239.286 319.586Z" fill="#453F38" stroke="#979797" stroke-width="0.411445"/>
<path d="M192.198 280.452H192.069L195.015 269.94L195.179 269.927L192.198 280.452Z" fill="#453F38" stroke="#979797" stroke-width="0.411445"/>
<path d="M98.6025 402.689L91.624 405.282L91.6943 404.811L98.6934 402.227L98.6025 402.689Z" fill="#453F38" stroke="#979797" stroke-width="0.411445"/>
<path d="M185.648 281.37L185.445 281.419L187.712 271.054L187.821 271.024L185.648 281.37Z" fill="#453F38" stroke="#979797" stroke-width="0.411445"/>
<path d="M214.776 273.693L209.911 283.902L209.809 283.844L214.688 273.654L214.776 273.693Z" fill="#453F38" stroke="#979797" stroke-width="0.411445"/>
<path d="M220.341 277.293L214.903 287.14L214.804 287.052L220.221 277.212L220.341 277.293Z" fill="#453F38" stroke="#979797" stroke-width="0.411445"/>
<path d="M208.705 271.281L204.422 281.687L204.294 281.635L208.591 271.246L208.705 271.281Z" fill="#453F38" stroke="#979797" stroke-width="0.411445"/>
<path d="M203.133 435.93L201.766 437.902L198.161 432.252L199.57 430.278L203.133 435.93Z" fill="#453F38" stroke="#979797" stroke-width="0.411445"/>
<path d="M209.146 426.923L208.854 427.429L204.653 422.669L204.932 422.245L209.146 426.923Z" fill="#453F38" stroke="#979797" stroke-width="0.411445"/>
<path d="M225.568 394.925L225.358 395.427L219.595 393.774L219.806 393.273L225.568 394.925Z" fill="#453F38" stroke="#979797" stroke-width="0.411445"/>
<path d="M220.67 405.899L220.421 406.456L215.139 403.738L215.381 403.225L220.67 405.899Z" fill="#453F38" stroke="#979797" stroke-width="0.411445"/>
<path d="M215.16 416.663L214.899 417.132L210.129 413.436L210.397 412.925L215.16 416.663Z" fill="#453F38" stroke="#979797" stroke-width="0.411445"/>
<path d="M188.324 454.275L188.087 454.54L185.823 447.217L186.137 446.915L188.324 454.275Z" fill="#453F38" stroke="#979797" stroke-width="0.411445"/>
<path d="M195.635 445.881L195.363 446.238L192.408 439.708L192.717 439.334L195.635 445.881Z" fill="#453F38" stroke="#979797" stroke-width="0.411445"/>
<path d="M236.004 361.734L229.181 363.245L229.303 362.755L236.131 361.194L236.004 361.734Z" fill="#453F38" stroke="#979797" stroke-width="0.411445"/>
<path d="M239.273 339.852L232.14 343.483L232.161 343.076L239.315 339.455L239.273 339.852Z" fill="#453F38" stroke="#979797" stroke-width="0.411445"/>
<path d="M97.5693 412.321L90.457 415.991L90.4951 415.651L97.6074 411.98L97.5693 412.321Z" fill="#453F38" stroke="#979797" stroke-width="0.411445"/>
<path d="M238.036 350.635L231.035 353.22L231.121 352.812L238.127 350.176L238.036 350.635Z" fill="#453F38" stroke="#979797" stroke-width="0.411445"/>
<path d="M233.152 372.932L226.688 373.418L226.833 372.958L233.329 372.423L233.152 372.932Z" fill="#453F38" stroke="#979797" stroke-width="0.411445"/>
<path d="M230.104 382.815L229.274 385.116L223.118 384.533L223.947 382.232L230.104 382.815Z" fill="#453F38" stroke="#979797" stroke-width="0.411445"/>
<path d="M98.8262 438.776L91.7578 445.315L91.6885 445.042L98.7568 438.503L98.8262 438.776Z" fill="#453F38" stroke="#979797" stroke-width="0.411445"/>
<path d="M100.718 446.33L93.8301 453.708L93.7725 453.499L100.646 446.136L100.718 446.33Z" fill="#453F38" stroke="#979797" stroke-width="0.411445"/>
<path d="M97.6807 430.493L90.5088 436.119L90.4727 435.818L97.6455 430.193L97.6807 430.493Z" fill="#453F38" stroke="#979797" stroke-width="0.411445"/>
<path d="M228.972 327.571V329.129L228.647 329.764L224.479 332.487L224.386 332.548V335.984L224.793 336.027C224.944 335.307 225.324 334.733 225.919 334.27L226.187 334.077L226.188 334.076L226.877 333.612L226.878 333.613C227.319 333.334 227.692 333.168 228 333.104C228.304 333.04 228.532 333.077 228.703 333.184C228.877 333.293 229.027 333.494 229.133 333.823C229.239 334.152 229.296 334.593 229.296 335.153V335.902L229.389 335.745V337.49C229.389 338.513 229.215 339.449 228.844 340.269L228.672 340.613C228.239 341.406 227.672 342.081 226.938 342.606L226.614 342.822L226.61 342.824L225.082 343.812L225.078 343.814C224.161 344.431 223.569 344.517 223.174 344.279C222.994 344.156 222.831 343.929 222.713 343.58C222.595 343.231 222.527 342.774 222.527 342.218V341.851L222.849 341.219L224.168 340.386L224.339 340.505V340.843L224.347 340.87L224.578 341.701L224.633 341.897L224.829 341.845L225.616 341.638L225.646 341.629L225.673 341.614L226.507 341.094L226.526 341.081L226.542 341.066L227.33 340.286L227.371 340.245L227.385 340.189L227.663 339.045L227.669 339.022V336.971C227.669 336.651 227.646 336.388 227.601 336.186C227.559 335.997 227.487 335.815 227.354 335.715L227.337 335.701L227.315 335.693L227.19 335.649C226.937 335.583 226.665 335.651 226.354 335.821L226.196 335.913L225.362 336.433L225.329 336.453L225.307 336.485L224.611 337.419L224.604 337.43L224.119 338.171L222.777 339.017L222.62 338.928V331.921L222.9 331.292L228.802 327.452L228.972 327.571Z" fill="#453F38" stroke="#979797" stroke-width="0.411445"/>
<path d="M220.128 333.352L220.173 346.714L220.097 347.056L219.874 347.305L218.521 348.159L218.361 348.07L218.315 337.281L218.313 336.657L217.944 337.161L216.303 339.398L216.231 339.389V337.783L216.488 337.063L218.041 334.811L218.708 334.062L219.969 333.262L220.128 333.352Z" fill="#453F38" stroke="#979797" stroke-width="0.411445"/>
<path d="M171.157 290.958C172.009 290.385 172.588 290.309 172.988 290.504L173.065 290.547C173.268 290.671 173.44 290.898 173.563 291.245C173.686 291.593 173.755 292.049 173.755 292.606V299.723C173.755 300.746 173.581 301.681 173.21 302.501L173.039 302.845C172.607 303.639 172.038 304.313 171.305 304.838L170.98 305.054L170.975 305.058L169.261 306.201H169.26C168.397 306.782 167.822 306.893 167.428 306.705L167.351 306.664L167.344 306.66L167.264 306.61C167.082 306.479 166.938 306.271 166.836 305.969C166.719 305.622 166.662 305.166 166.662 304.606V297.489C166.662 296.273 166.886 295.32 167.378 294.366C167.875 293.455 168.547 292.653 169.436 292.105L169.437 292.106L169.442 292.101L171.156 290.958H171.157ZM171.942 294.188L171.936 294.16L171.703 293.329L171.652 293.146L171.466 293.183L170.678 293.339L170.638 293.347L170.604 293.369L169.585 294.044L169.565 294.058L169.55 294.074L168.762 294.906L168.832 294.972L168.708 294.962L168.522 296.105L168.521 296.121V303.022L168.527 303.048L168.759 303.931L168.808 304.118L168.997 304.08L169.785 303.924L169.825 303.916L169.858 303.894L170.878 303.219L170.897 303.206L170.913 303.189L171.701 302.358L171.744 302.312L171.755 302.249L171.94 301.107L171.942 301.09V294.188Z" fill="#453F38" stroke="#979797" stroke-width="0.411445"/>
<path d="M163.887 295.985V297.384L163.566 297.968L160.414 300.018L160.391 300.032L160.372 300.053L159.631 300.884L159.597 300.923L159.585 300.973L159.307 302.115L159.301 302.14V304.053L159.62 303.842L161.982 302.283L161.984 302.282C162.836 301.71 163.415 301.634 163.815 301.829L163.893 301.872C164.094 301.996 164.255 302.208 164.366 302.546C164.478 302.887 164.535 303.343 164.535 303.93V305.748C164.535 306.801 164.376 307.793 163.954 308.65L163.866 308.82L163.863 308.823C163.373 309.774 162.704 310.475 161.805 311.081L160.091 312.173L160.087 312.176C159.225 312.756 158.649 312.867 158.255 312.68L158.178 312.638L158.171 312.634L158.091 312.583C157.909 312.453 157.765 312.244 157.663 311.943C157.546 311.596 157.489 311.14 157.489 310.58V303.463C157.489 302.248 157.713 301.294 158.205 300.34C158.671 299.486 159.291 298.728 160.099 298.185L160.264 298.079L160.267 298.077L163.716 295.865L163.887 295.985ZM162.77 305.462L162.763 305.437L162.531 304.554L162.479 304.355L162.28 304.406L161.492 304.615L161.462 304.622L161.435 304.64L159.396 305.939L159.301 305.999V308.996L159.308 309.022L159.539 309.905L159.589 310.092L159.778 310.055L160.565 309.899L160.605 309.891L160.64 309.868L161.658 309.193L161.678 309.18L161.694 309.163L162.481 308.331L162.522 308.289L162.534 308.231L162.766 307.088L162.77 307.068V305.462Z" fill="#453F38" stroke="#979797" stroke-width="0.411445"/>
<path d="M171.39 440.73C172.241 440.157 172.82 440.08 173.221 440.276L173.298 440.319C173.5 440.442 173.673 440.669 173.796 441.017C173.919 441.365 173.987 441.821 173.987 442.377V449.494C173.987 450.517 173.814 451.453 173.442 452.273L173.271 452.616C172.839 453.41 172.27 454.085 171.537 454.61L171.213 454.825L171.207 454.829L169.493 455.973H169.492C168.63 456.553 168.054 456.664 167.66 456.477L167.583 456.436L167.576 456.432L167.496 456.381C167.314 456.251 167.17 456.042 167.068 455.74C166.951 455.394 166.895 454.937 166.895 454.377V447.26C166.895 446.045 167.119 445.092 167.61 444.138C168.107 443.226 168.779 442.425 169.668 441.876L169.669 441.877L169.675 441.872L171.389 440.73H171.39ZM172.175 443.961L172.168 443.935L171.937 443.052L171.888 442.865L171.698 442.903L170.91 443.058L170.87 443.066L170.837 443.088L169.817 443.764L169.798 443.777L169.782 443.794L168.994 444.625L168.951 444.671L168.94 444.734L168.755 445.876L168.753 445.893V452.741L168.76 452.767L168.991 453.651L169.04 453.837L169.229 453.8L170.018 453.644L170.058 453.636L170.091 453.614L171.11 452.939L171.13 452.925L171.146 452.908L171.934 452.077L171.977 452.031L171.987 451.969L172.173 450.825L172.175 450.81V443.961Z" fill="#453F38" stroke="#979797" stroke-width="0.411445"/>
<path d="M162.957 449.771L162.945 449.736L162.668 448.957L162.632 448.857L162.529 448.828L162.432 448.807C162.196 448.767 161.892 448.809 161.531 449.06L160.697 449.579L160.675 449.593L160.657 449.612L159.869 450.443L159.829 450.486L159.817 450.544L159.585 451.687L159.581 451.707V452.246L159.262 452.828L157.927 453.67L157.77 453.581V453.078C157.77 452.057 157.942 451.161 158.313 450.351L158.485 450.008L158.489 450.001C158.933 449.105 159.646 448.352 160.547 447.745L162.076 446.758L162.079 446.756C162.983 446.147 163.58 446.099 163.982 446.342C164.354 446.594 164.631 447.226 164.631 448.352V449.494C164.631 450.685 164.19 451.778 163.297 452.729L163.521 453.062C163.946 452.896 164.187 452.957 164.337 453.12C164.513 453.312 164.631 453.71 164.631 454.377V455.521C164.631 456.541 164.457 457.437 164.086 458.248L163.914 458.591C163.482 459.384 162.914 460.059 162.181 460.584L161.856 460.8L161.853 460.802L160.324 461.789L160.32 461.791C159.403 462.408 158.811 462.495 158.416 462.256C158.045 462.003 157.77 461.372 157.77 460.248V459.673L158.091 459.041L159.41 458.208L159.581 458.327V458.819L159.588 458.846L159.819 459.729L159.875 459.94L160.083 459.872L160.87 459.612L160.894 459.604L160.915 459.591L161.748 459.071L161.749 459.072L161.758 459.065C162.14 458.797 162.444 458.518 162.65 458.171L162.666 458.145L162.674 458.114L162.951 456.972L162.957 456.947V455.744L162.945 455.711L162.668 454.932L162.642 454.859L162.574 454.821L162.459 454.771C162.186 454.687 161.862 454.804 161.532 455.033L160.715 455.536L160.595 455.459V454.266L160.875 453.635L161.748 453.098L161.758 453.091C162.141 452.822 162.45 452.539 162.657 452.133L162.668 452.111L162.674 452.088L162.951 450.945L162.957 450.921V449.771Z" fill="#453F38" stroke="#979797" stroke-width="0.411445"/>
<path d="M118.212 399.313V400.872L117.888 401.506L113.719 404.229L113.626 404.291V407.726L114.033 407.768C114.184 407.049 114.564 406.476 115.159 406.012L115.427 405.82L115.429 405.819L116.123 405.351L116.145 405.337L116.162 405.318L116.233 405.237C116.665 404.966 117.031 404.806 117.333 404.743C117.637 404.679 117.865 404.716 118.036 404.823C118.21 404.931 118.36 405.133 118.466 405.461C118.572 405.791 118.629 406.232 118.629 406.792V409.285C118.629 410.307 118.455 411.243 118.084 412.063L117.912 412.408C117.48 413.201 116.912 413.876 116.179 414.401L115.854 414.617L115.851 414.619L114.322 415.606L114.318 415.608C113.401 416.225 112.809 416.312 112.414 416.073C112.234 415.95 112.071 415.723 111.953 415.375C111.835 415.025 111.768 414.568 111.768 414.012V413.645L112.089 413.013L113.408 412.181L113.579 412.3V412.638L113.587 412.665L113.818 413.496L113.873 413.692L114.069 413.64L114.856 413.432L114.89 413.423L114.917 413.405L115.705 412.885L115.723 412.874L115.737 412.859L116.57 412.028L116.611 411.987L116.625 411.931L116.903 410.788L116.909 410.764V408.713C116.909 408.368 116.886 408.092 116.841 407.884C116.799 407.689 116.728 407.506 116.595 407.406L116.577 407.392L116.556 407.382L116.431 407.338C116.178 407.273 115.905 407.342 115.595 407.511L115.437 407.604L114.603 408.124L114.569 408.144L114.547 408.175L113.852 409.11L113.845 409.121L113.359 409.862L112.012 410.711L111.813 410.612V403.67L112.137 403.038L118.042 399.195L118.212 399.313Z" fill="#453F38" stroke="#979797" stroke-width="0.411445"/>
<path d="M108.558 405.491L108.717 405.849V414.708L109.036 414.496L110.152 413.754L110.245 413.813V415.165L109.964 415.795L108.763 416.595L108.671 416.656V418.925L108.597 419.256L108.378 419.46L107.161 420.261L107.044 420.186V417.74L106.727 417.944L102.401 420.73L102.152 420.785L102.041 420.473V419.636L102.221 418.476L105.641 407.953L105.947 407.219L106.366 406.795L108.245 405.491H108.558ZM106.643 408.651L103.816 417.431L103.641 417.978L104.123 417.666L106.949 415.848L107.044 415.787V408.714L106.643 408.651Z" fill="#453F38" stroke="#979797" stroke-width="0.411445"/>
<path d="M206.528 276.396C206.615 276.396 206.679 276.424 206.729 276.473C206.783 276.525 206.832 276.611 206.86 276.736C206.91 276.956 206.89 277.267 206.768 277.619L206.709 277.773L206.708 277.774L153.853 405.934C153.678 406.349 153.418 406.713 153.135 406.971C152.847 407.233 152.558 407.365 152.329 407.365C152.242 407.365 152.178 407.336 152.128 407.287C152.074 407.235 152.026 407.15 151.997 407.026C151.947 406.805 151.966 406.493 152.089 406.141L152.148 405.989V405.987L205.004 277.827C205.178 277.412 205.439 277.048 205.723 276.79C206.011 276.528 206.3 276.396 206.528 276.396Z" fill="#E3CDB8" stroke="#979797" stroke-width="0.411445"/>
<path d="M164.347 370.442C166.159 369.252 167.74 369.161 168.846 369.864V369.915L168.939 369.975L172.627 372.366L163.183 390.495L159.528 388.124C158.404 387.345 157.677 385.764 157.677 383.414C157.677 381.037 158.418 378.394 159.628 376.04C160.763 373.831 162.302 371.895 164.004 370.676L164.347 370.443V370.442Z" fill="#E3CDB8" stroke="#979797" stroke-width="0.411445"/>
<path d="M168.237 372.884C170.075 371.688 171.674 371.608 172.802 372.339C173.94 373.077 174.683 374.693 174.683 377.075C174.683 379.452 173.941 382.095 172.73 384.449C171.595 386.657 170.057 388.593 168.354 389.812L168.013 390.046C166.175 391.242 164.576 391.322 163.448 390.591C162.31 389.853 161.567 388.237 161.567 385.855C161.567 383.479 162.308 380.835 163.519 378.481C164.654 376.273 166.193 374.337 167.895 373.118L168.237 372.884Z" fill="#889A9E" stroke="#979797" stroke-width="0.411445"/>
<path d="M168.234 376.937C169.216 376.311 170.039 376.282 170.605 376.649C171.181 377.023 171.577 377.86 171.577 379.152C171.577 380.438 171.183 381.861 170.534 383.124C169.926 384.309 169.103 385.336 168.195 385.974L168.013 386.097C167.033 386.721 166.21 386.738 165.643 386.364C165.065 385.983 164.67 385.145 164.67 383.88C164.67 382.594 165.064 381.172 165.712 379.909C166.32 378.724 167.144 377.697 168.052 377.059L168.234 376.937Z" fill="white" stroke="#979797" stroke-width="0.411445"/>
</g>
<path d="M228.442 275.356C241.225 284.832 249.27 303.141 249.618 329.04L249.63 330.373C249.722 358.412 240.967 389.511 226.745 417.126C212.745 444.31 193.459 468.098 172.129 482.265L171.112 482.933C150.243 496.452 131.402 498.033 117.342 490.095C130.821 495.685 147.953 493.341 166.667 481.504L167.63 480.888C189.441 466.758 209.149 442.582 223.388 414.924C237.626 387.264 246.405 356.101 246.335 327.982L246.327 326.757C246.064 303.058 239.381 285.544 228.442 275.356Z" fill="url(#paint2_linear_1098_5066)" stroke="#979797" stroke-width="0.411445"/>
<g style="mix-blend-mode:multiply" opacity="0.2">
<path d="M170.828 280.103C189.537 268.005 206.682 265.328 220.123 270.615L220.76 270.873C237.932 277.986 249.049 298.281 249.48 328.958L249.493 330.426C249.562 358.387 240.83 389.421 226.644 416.984C212.678 444.117 193.436 467.867 172.13 482.007L171.114 482.673C149.404 496.727 129.784 498.081 115.586 489.004C101.601 480.063 92.797 460.953 92.459 433.657L92.4492 432.35C92.3799 404.363 101.112 373.317 115.299 345.748C129.417 318.312 148.927 294.34 170.511 280.258V280.308L170.828 280.103Z" fill="#B7B7B7"/>
<path d="M170.828 280.103C189.537 268.005 206.682 265.328 220.123 270.615L220.76 270.873C237.932 277.986 249.049 298.281 249.48 328.958L249.493 330.426C249.562 358.387 240.83 389.421 226.644 416.984C212.678 444.117 193.436 467.867 172.13 482.007L171.114 482.673C149.404 496.727 129.784 498.081 115.586 489.004C101.601 480.063 92.797 460.953 92.459 433.657L92.4492 432.35C92.3799 404.363 101.112 373.317 115.299 345.748C129.417 318.312 148.927 294.34 170.511 280.258V280.308L170.828 280.103Z" stroke="#979797" stroke-width="0.411445"/>
</g>
<g style="mix-blend-mode:screen" opacity="0.5">
<path d="M170.828 280.155C189.491 268.057 206.634 265.38 220.12 270.667L220.76 270.925C237.932 278.038 249.049 298.333 249.48 329.01L249.492 330.478C249.584 361.622 238.725 396.544 221.589 426.234L129.192 322.616C140.875 305.578 154.624 291.024 169.392 281.102L170.828 280.155Z" fill="#BCB2A6"/>
<path d="M170.828 280.155C189.491 268.057 206.634 265.38 220.12 270.667L220.76 270.925C237.932 278.038 249.049 298.333 249.48 329.01L249.492 330.478C249.584 361.622 238.725 396.544 221.589 426.234L129.192 322.616C140.875 305.578 154.624 291.024 169.392 281.102L170.828 280.155Z" stroke="#979797" stroke-width="0.411445"/>
</g>
<path opacity="0.7" d="M162.444 235.004C164.009 235.811 165.483 236.767 166.826 237.914C167.18 239.406 167.817 241.226 168.465 243.216C169.124 245.242 169.799 247.458 170.213 249.726C171.041 254.258 170.825 258.965 167.426 262.79C160.18 268.428 151.309 272.529 142.642 274.359C133.966 276.191 125.521 275.744 119.116 272.32H119.115C116.225 270.75 114.235 268.785 112.957 266.578C120.087 259.271 127.618 252.871 135.399 247.632L136.966 246.595C145.817 240.857 154.386 237.028 162.444 235.004Z" fill="#BDB9B5" stroke="#979797" stroke-width="0.411445"/>
<path d="M156.957 235.019C160.888 235.019 164.809 235.962 167.856 237.84L168.148 238.024C171.234 240.024 172.745 242.615 172.745 245.177C172.745 247.658 171.327 250.168 168.433 252.14L168.148 252.329C165.062 254.329 161.014 255.335 156.957 255.335C153.027 255.335 149.106 254.391 146.059 252.514L145.766 252.329C142.68 250.33 141.17 247.738 141.17 245.177C141.17 242.695 142.587 240.185 145.481 238.213L145.766 238.024C148.852 236.024 152.9 235.019 156.957 235.019Z" fill="#DBD7D3" stroke="#979797" stroke-width="0.411445"/>
<path d="M172.735 255.411C172.735 258.026 171.258 260.617 168.15 262.667C165.064 264.667 161.016 265.674 156.959 265.674C153.028 265.674 149.108 264.729 146.061 262.852L145.769 262.667L145.767 262.666L145.484 262.482C142.709 260.621 141.318 258.212 141.191 255.852L141.184 255.615V247.611C141.848 249.481 143.314 251.255 145.544 252.674V252.675C148.711 254.727 152.84 255.747 156.959 255.747C160.949 255.747 164.949 254.79 168.074 252.864L168.374 252.675C170.604 251.24 172.07 249.46 172.735 247.566V255.411Z" fill="#BDB9B5" stroke="#979797" stroke-width="0.411445"/>
<path d="M156.96 216.874C158.582 216.874 160.195 217.244 161.464 217.975L161.714 218.127C163.014 218.956 163.634 220.041 163.634 221.096C163.634 222.086 163.089 223.101 161.949 223.908L161.714 224.066C160.411 224.898 158.69 225.319 156.96 225.319C155.338 225.319 153.725 224.949 152.456 224.218L152.207 224.066C150.907 223.236 150.287 222.152 150.287 221.096C150.287 220.107 150.831 219.093 151.971 218.286L152.207 218.127C153.51 217.295 155.23 216.874 156.96 216.874Z" fill="#EDE8E4" stroke="#979797" stroke-width="0.411445"/>
<path d="M150.31 222.669C150.622 223.237 151.105 223.766 151.737 224.236L151.979 224.409L151.984 224.413C153.368 225.296 155.169 225.73 156.959 225.73C158.637 225.73 160.326 225.348 161.67 224.573L161.935 224.413L161.937 224.411C162.692 223.914 163.258 223.328 163.609 222.697V244.552C163.609 245.543 163.084 246.558 161.946 247.386L161.713 247.547C160.41 248.378 158.689 248.801 156.959 248.801C155.229 248.801 153.509 248.378 152.206 247.547H152.205C150.904 246.69 150.31 245.657 150.31 244.604V222.669Z" fill="#BDB9B5" stroke="#979797" stroke-width="0.411445"/>
<path d="M190.615 208.236V217.072C190.57 222.37 187.488 227.65 181.395 231.823L180.795 232.224C174.211 236.483 165.566 238.619 156.911 238.619C148.526 238.619 140.151 236.615 133.65 232.616L133.027 232.224C126.605 228.022 123.325 222.632 123.209 217.186L123.208 216.659V207.823L190.615 208.236Z" fill="#CFCBC7" stroke="#979797" stroke-width="0.411445"/>
<path d="M159.949 238.542C159.525 238.573 159.079 238.578 158.646 238.578V226.772C158.899 226.755 159.103 226.742 159.309 226.732C159.507 226.722 159.706 226.708 159.949 226.692V238.542ZM153.968 226.708C154.461 226.773 154.779 226.782 155.271 226.782V238.565C154.839 238.535 154.391 238.53 153.968 238.53V226.708ZM164.535 238.04C164.078 238.12 163.653 238.194 163.232 238.243V226.285C163.734 226.21 164.049 226.158 164.535 226.053V238.04ZM149.336 226.053C149.822 226.158 150.137 226.21 150.638 226.285V238.234C150.418 238.199 150.205 238.169 149.997 238.141C149.771 238.11 149.553 238.077 149.336 238.04V226.053ZM145.385 225.06C145.591 225.126 145.797 225.191 146.052 225.273V237.494C145.86 237.454 145.668 237.411 145.478 237.365C145.264 237.315 145.05 237.265 144.842 237.219V224.886C145.042 224.95 145.213 225.005 145.385 225.06ZM169.028 237.219C168.821 237.265 168.607 237.315 168.394 237.365C168.203 237.411 168.011 237.454 167.819 237.494V225.273C168.287 225.123 168.589 225.027 169.028 224.886V237.219ZM140.534 223.115C140.95 223.318 141.231 223.458 141.697 223.65V236.279C141.291 236.161 140.911 236.038 140.534 235.891V223.115ZM173.383 235.884C173.17 235.952 172.951 236.024 172.735 236.098C172.562 236.157 172.388 236.213 172.22 236.268V223.651C172.683 223.462 172.985 223.323 173.383 223.121V235.884ZM136.458 220.834C136.838 221.086 137.104 221.243 137.528 221.498V234.632C137.156 234.478 136.795 234.323 136.458 234.142V220.834ZM177.413 234.132C177.198 234.224 176.991 234.322 176.789 234.419C176.639 234.491 176.491 234.56 176.343 234.627V221.497C176.767 221.24 177.056 221.057 177.413 220.825V234.132ZM132.752 218.001C133.054 218.276 133.305 218.496 133.684 218.782V232.582C133.546 232.513 133.413 232.446 133.289 232.369L133.086 232.232C133.016 232.18 132.912 232.102 132.825 232.037C132.798 232.017 132.774 231.998 132.752 231.982V218.001ZM181.166 231.981C181.059 232.061 180.952 232.141 180.845 232.221C180.63 232.325 180.435 232.43 180.233 232.549V218.778C180.607 218.465 180.86 218.265 181.166 217.998V231.981ZM129.37 214.681C129.62 214.976 129.834 215.207 130.163 215.543V230.104C129.889 229.881 129.62 229.64 129.37 229.398V214.681ZM184.501 229.393C184.319 229.551 184.145 229.701 183.971 229.851C183.883 229.926 183.797 230.001 183.708 230.077V215.543C184.037 215.207 184.251 214.976 184.501 214.681V229.393ZM187.419 226.198C187.215 226.461 187.018 226.73 186.812 226.993V211.68C187.052 211.322 187.231 211.062 187.419 210.775V226.198ZM126.629 211C126.771 211.22 126.914 211.441 127.105 211.728V226.992C126.899 226.729 126.701 226.461 126.498 226.198V210.8C126.542 210.868 126.586 210.934 126.629 211ZM189.782 208.238V221.817C189.682 222.149 189.554 222.482 189.406 222.817V208.238H189.782ZM124.512 207.823V222.69C124.379 222.38 124.251 222.071 124.136 221.762V207.823H124.512Z" fill="#BDB9B5" stroke="#979797" stroke-width="0.411445"/>
<path d="M156.956 186.068C165.341 186.068 173.716 188.072 180.217 192.07L180.84 192.464C187.422 196.723 190.683 202.288 190.683 207.824C190.683 213.187 187.623 218.578 181.447 222.781L180.84 223.185C174.256 227.444 165.611 229.58 156.956 229.58C148.571 229.58 140.196 227.575 133.695 223.577L133.071 223.185C126.489 218.926 123.23 213.36 123.229 207.824C123.229 202.462 126.288 197.071 132.464 192.867L133.071 192.464C139.655 188.204 148.301 186.068 156.956 186.068Z" fill="#EDE8E4" stroke="#979797" stroke-width="0.411445"/>
<rect x="20" y="132" width="75" height="6" rx="3" fill="#796146"/>
</g>
<path d="M28.2473 45.3283C26.9706 45.3283 25.785 45.0912 24.6907 44.617C23.5963 44.1245 22.6661 43.4588 21.9001 42.6198C21.134 41.7808 20.5686 40.8141 20.2038 39.7197L22.9397 38.5706C23.4322 39.8292 24.1526 40.7958 25.101 41.4707C26.0495 42.1455 27.1439 42.483 28.3841 42.483C29.1137 42.483 29.7521 42.3735 30.2993 42.1547C30.8464 41.9176 31.2659 41.5892 31.5578 41.1697C31.8678 40.7502 32.0229 40.2669 32.0229 39.7197C32.0229 38.9719 31.8131 38.3791 31.3936 37.9414C30.9741 37.5036 30.354 37.1571 29.5332 36.9017L25.7029 35.698C24.1708 35.2237 23.0035 34.5033 22.201 33.5366C21.3985 32.5517 20.9972 31.4026 20.9972 30.0894C20.9972 28.9403 21.2799 27.9371 21.8453 27.0799C22.4108 26.2044 23.1859 25.5204 24.1708 25.028C25.174 24.5355 26.314 24.2893 27.5907 24.2893C28.8127 24.2893 29.9253 24.5081 30.9285 24.9459C31.9317 25.3654 32.7889 25.949 33.5003 26.6969C34.2298 27.4447 34.7588 28.311 35.0871 29.296L32.4059 30.4724C32.0046 29.3963 31.3754 28.5664 30.5181 27.9827C29.6791 27.3991 28.7033 27.1072 27.5907 27.1072C26.9159 27.1072 26.3231 27.2258 25.8124 27.4629C25.3017 27.6818 24.9004 28.0101 24.6086 28.4478C24.335 28.8673 24.1982 29.3598 24.1982 29.9252C24.1982 30.5818 24.408 31.1655 24.8275 31.6762C25.247 32.1869 25.8853 32.5699 26.7426 32.8253L30.2993 33.947C31.9226 34.4394 33.1446 35.1508 33.9654 36.081C34.7861 36.9929 35.1965 38.1329 35.1965 39.5008C35.1965 40.6317 34.8956 41.6348 34.2937 42.5103C33.71 43.3858 32.8984 44.0789 31.8587 44.5896C30.8191 45.0821 29.6153 45.3283 28.2473 45.3283ZM45.4687 45.3283C43.9913 45.3283 42.6781 44.9909 41.529 44.316C40.3982 43.6229 39.5136 42.6927 38.8752 41.5254C38.2368 40.3399 37.9177 39.0175 37.9177 37.5584C37.9177 36.0627 38.2368 34.7404 38.8752 33.5913C39.5318 32.4422 40.4073 31.5394 41.5017 30.8828C42.596 30.2079 43.8363 29.8705 45.2225 29.8705C46.3351 29.8705 47.3291 30.062 48.2046 30.445C49.0801 30.8281 49.8188 31.357 50.4207 32.0319C51.0226 32.6885 51.4786 33.4454 51.7886 34.3026C52.117 35.1599 52.2811 36.0719 52.2811 37.0385C52.2811 37.2757 52.272 37.5219 52.2538 37.7772C52.2355 38.0326 52.199 38.2697 52.1443 38.4886H40.3526V36.0263H50.3933L48.916 37.148C49.0984 36.2543 49.0345 35.4608 48.7244 34.7677C48.4326 34.0564 47.9766 33.5001 47.3565 33.0989C46.7546 32.6793 46.0433 32.4696 45.2225 32.4696C44.4017 32.4696 43.6722 32.6793 43.0338 33.0989C42.3954 33.5001 41.9029 34.0838 41.5564 34.8498C41.2098 35.5976 41.0731 36.5096 41.146 37.5857C41.0548 38.5889 41.1916 39.4644 41.5564 40.2122C41.9394 40.96 42.4684 41.5437 43.1432 41.9632C43.8363 42.3827 44.6206 42.5924 45.4961 42.5924C46.3898 42.5924 47.1467 42.3918 47.7669 41.9905C48.4053 41.5892 48.9068 41.0694 49.2716 40.4311L51.7886 41.6622C51.4968 42.3553 51.0408 42.9846 50.4207 43.55C49.8188 44.0972 49.0892 44.5349 48.232 44.8632C47.393 45.1733 46.4719 45.3283 45.4687 45.3283ZM59.5969 45.3283C58.5937 45.3283 57.7091 45.155 56.943 44.8085C56.1952 44.4437 55.6116 43.9512 55.1921 43.3311C54.7726 42.6927 54.5628 41.9449 54.5628 41.0877C54.5628 40.2851 54.7361 39.5647 55.0826 38.9263C55.4474 38.2879 56.0037 37.7499 56.7515 37.3121C57.4993 36.8744 58.4387 36.5643 59.5695 36.3819L64.713 35.5338V37.9687L60.1714 38.7622C59.3506 38.9081 58.7487 39.1725 58.3657 39.5556C57.9827 39.9204 57.7912 40.3946 57.7912 40.9782C57.7912 41.5437 58.0009 42.0088 58.4204 42.3735C58.8582 42.7201 59.4145 42.8934 60.0893 42.8934C60.9283 42.8934 61.6579 42.711 62.278 42.3462C62.9164 41.9814 63.4089 41.4981 63.7554 40.8962C64.102 40.276 64.2752 39.592 64.2752 38.8442V35.0413C64.2752 34.3118 64.0016 33.719 63.4545 33.263C62.9255 32.7888 62.2142 32.5517 61.3205 32.5517C60.4997 32.5517 59.7792 32.7705 59.1591 33.2083C58.5572 33.6278 58.1103 34.175 57.8185 34.8498L55.2468 33.564C55.5204 32.8344 55.9672 32.196 56.5874 31.6488C57.2075 31.0834 57.928 30.6457 58.7487 30.3356C59.5877 30.0255 60.4723 29.8705 61.4025 29.8705C62.5699 29.8705 63.6004 30.0894 64.4941 30.5271C65.4061 30.9649 66.1083 31.5759 66.6007 32.3602C67.1114 33.1262 67.3668 34.0199 67.3668 35.0413V45H64.412V42.3188L65.0413 42.4009C64.6947 43.0028 64.2479 43.5226 63.7007 43.9604C63.1718 44.3981 62.5607 44.7355 61.8676 44.9726C61.1928 45.2098 60.4359 45.3283 59.5969 45.3283ZM77.1164 45.1642C75.5661 45.1642 74.3623 44.7264 73.505 43.8509C72.6478 42.9754 72.2192 41.7443 72.2192 40.1575V32.9894H69.6201V30.1988H70.0305C70.7235 30.1988 71.2616 29.9982 71.6446 29.5969C72.0277 29.1956 72.2192 28.6485 72.2192 27.9554V26.8063H75.3107V30.1988H78.6759V32.9894H75.3107V40.0207C75.3107 40.5314 75.3928 40.9691 75.557 41.3339C75.7211 41.6804 75.9856 41.954 76.3504 42.1547C76.7152 42.3371 77.1894 42.4283 77.773 42.4283C77.919 42.4283 78.0831 42.4191 78.2655 42.4009C78.4479 42.3827 78.6212 42.3644 78.7853 42.3462V45C78.53 45.0365 78.2473 45.073 77.9372 45.1094C77.6271 45.1459 77.3535 45.1642 77.1164 45.1642ZM94.4915 45.3283C93.3424 45.3283 92.2937 45.0912 91.3452 44.617C90.415 44.1428 89.6946 43.4588 89.1839 42.5651L89.5395 41.9905V45H86.5848V24.2893H89.6763V33.263L89.1839 32.5517C89.731 31.7127 90.4606 31.056 91.3726 30.5818C92.2845 30.1076 93.3242 29.8705 94.4915 29.8705C95.8959 29.8705 97.1544 30.2079 98.267 30.8828C99.3979 31.5576 100.282 32.4787 100.921 33.646C101.577 34.8133 101.906 36.1266 101.906 37.5857C101.906 39.0449 101.577 40.3581 100.921 41.5254C100.282 42.6927 99.407 43.6229 98.2944 44.316C97.1818 44.9909 95.9142 45.3283 94.4915 45.3283ZM94.1906 42.4556C95.066 42.4556 95.8412 42.2459 96.5161 41.8264C97.1909 41.4069 97.7199 40.8323 98.1029 40.1027C98.5041 39.3549 98.7048 38.5159 98.7048 37.5857C98.7048 36.6555 98.5041 35.8256 98.1029 35.0961C97.7199 34.3665 97.1909 33.7919 96.5161 33.3724C95.8412 32.9529 95.066 32.7432 94.1906 32.7432C93.3333 32.7432 92.5581 32.9529 91.865 33.3724C91.1902 33.7919 90.6521 34.3665 90.2509 35.0961C89.8678 35.8256 89.6763 36.6555 89.6763 37.5857C89.6763 38.5159 89.8678 39.3549 90.2509 40.1027C90.6521 40.8323 91.1902 41.4069 91.865 41.8264C92.5581 42.2459 93.3333 42.4556 94.1906 42.4556ZM112.054 45.3283C110.631 45.3283 109.327 44.9909 108.141 44.316C106.974 43.6412 106.044 42.7201 105.351 41.5528C104.658 40.3855 104.311 39.0631 104.311 37.5857C104.311 36.0901 104.658 34.7677 105.351 33.6187C106.044 32.4514 106.974 31.5394 108.141 30.8828C109.309 30.2079 110.613 29.8705 112.054 29.8705C113.513 29.8705 114.817 30.2079 115.966 30.8828C117.133 31.5394 118.055 32.4514 118.729 33.6187C119.422 34.7677 119.769 36.0901 119.769 37.5857C119.769 39.0813 119.422 40.4128 118.729 41.5801C118.036 42.7474 117.106 43.6685 115.939 44.3434C114.771 45 113.476 45.3283 112.054 45.3283ZM112.054 42.4556C112.929 42.4556 113.704 42.2459 114.379 41.8264C115.054 41.4069 115.583 40.8323 115.966 40.1027C116.367 39.3549 116.568 38.5159 116.568 37.5857C116.568 36.6555 116.367 35.8256 115.966 35.0961C115.583 34.3665 115.054 33.7919 114.379 33.3724C113.704 32.9529 112.929 32.7432 112.054 32.7432C111.197 32.7432 110.421 32.9529 109.728 33.3724C109.053 33.7919 108.515 34.3665 108.114 35.0961C107.731 35.8256 107.54 36.6555 107.54 37.5857C107.54 38.5159 107.731 39.3549 108.114 40.1027C108.515 40.8323 109.053 41.4069 109.728 41.8264C110.421 42.2459 111.197 42.4556 112.054 42.4556ZM129.928 45.3283C128.505 45.3283 127.201 44.9909 126.016 44.316C124.848 43.6412 123.918 42.7201 123.225 41.5528C122.532 40.3855 122.185 39.0631 122.185 37.5857C122.185 36.0901 122.532 34.7677 123.225 33.6187C123.918 32.4514 124.848 31.5394 126.016 30.8828C127.183 30.2079 128.487 29.8705 129.928 29.8705C131.387 29.8705 132.691 30.2079 133.84 30.8828C135.008 31.5394 135.929 32.4514 136.604 33.6187C137.297 34.7677 137.643 36.0901 137.643 37.5857C137.643 39.0813 137.297 40.4128 136.604 41.5801C135.91 42.7474 134.98 43.6685 133.813 44.3434C132.646 45 131.351 45.3283 129.928 45.3283ZM129.928 42.4556C130.803 42.4556 131.579 42.2459 132.253 41.8264C132.928 41.4069 133.457 40.8323 133.84 40.1027C134.242 39.3549 134.442 38.5159 134.442 37.5857C134.442 36.6555 134.242 35.8256 133.84 35.0961C133.457 34.3665 132.928 33.7919 132.253 33.3724C131.579 32.9529 130.803 32.7432 129.928 32.7432C129.071 32.7432 128.296 32.9529 127.602 33.3724C126.928 33.7919 126.39 34.3665 125.988 35.0961C125.605 35.8256 125.414 36.6555 125.414 37.5857C125.414 38.5159 125.605 39.3549 125.988 40.1027C126.39 40.8323 126.928 41.4069 127.602 41.8264C128.296 42.2459 129.071 42.4556 129.928 42.4556ZM140.661 45V24.2893H143.753V38.1603L142.549 37.8593L149.964 30.1988H153.821L148.24 36.1357L154.067 45H150.511L145.312 37.148L147.146 36.9017L142.768 41.5528L143.753 39.5008V45H140.661ZM156.184 45V30.1988H159.276V45H156.184ZM156.184 28.1742V24.6176H159.276V28.1742H156.184ZM162.891 45V30.1988H165.845V33.0989L165.49 32.7158C165.855 31.7856 166.438 31.0834 167.241 30.6092C168.043 30.1167 168.973 29.8705 170.031 29.8705C171.126 29.8705 172.092 30.1076 172.931 30.5818C173.77 31.056 174.427 31.7127 174.901 32.5517C175.375 33.3907 175.613 34.3574 175.613 35.4517V45H172.548V36.2725C172.548 35.5247 172.412 34.8954 172.138 34.3847C171.864 33.8558 171.472 33.4545 170.962 33.1809C170.469 32.8891 169.904 32.7432 169.265 32.7432C168.627 32.7432 168.052 32.8891 167.542 33.1809C167.049 33.4545 166.666 33.8558 166.393 34.3847C166.119 34.9137 165.982 35.5429 165.982 36.2725V45H162.891ZM186.062 51.019C184.986 51.019 183.992 50.8457 183.08 50.4992C182.168 50.1526 181.384 49.6693 180.727 49.0491C180.07 48.4472 179.578 47.7359 179.25 46.9151L182.095 45.7387C182.35 46.4318 182.815 47.0063 183.49 47.4623C184.183 47.9183 185.031 48.1463 186.035 48.1463C186.819 48.1463 187.521 47.9912 188.141 47.6812C188.761 47.3893 189.254 46.9516 189.619 46.3679C189.983 45.8025 190.166 45.1186 190.166 44.316V40.9782L190.713 41.6075C190.202 42.5559 189.491 43.2764 188.579 43.7688C187.685 44.2613 186.673 44.5075 185.542 44.5075C184.174 44.5075 182.943 44.1884 181.849 43.55C180.754 42.9116 179.888 42.0361 179.25 40.9235C178.629 39.8109 178.319 38.5615 178.319 37.1753C178.319 35.7709 178.629 34.5215 179.25 33.4272C179.888 32.3328 180.745 31.4664 181.821 30.8281C182.897 30.1897 184.129 29.8705 185.515 29.8705C186.646 29.8705 187.649 30.1167 188.524 30.6092C189.418 31.0834 190.148 31.7765 190.713 32.6885L190.303 33.4545V30.1988H193.23V44.316C193.23 45.5928 192.92 46.7327 192.3 47.7359C191.698 48.7573 190.859 49.5598 189.783 50.1435C188.707 50.7271 187.466 51.019 186.062 51.019ZM185.898 41.6348C186.719 41.6348 187.448 41.4433 188.087 41.0603C188.725 40.659 189.226 40.1301 189.591 39.4735C189.974 38.7986 190.166 38.0417 190.166 37.2027C190.166 36.3637 189.974 35.6068 189.591 34.9319C189.208 34.257 188.698 33.7281 188.059 33.3451C187.421 32.9438 186.7 32.7432 185.898 32.7432C185.059 32.7432 184.311 32.9438 183.654 33.3451C182.998 33.7281 182.478 34.257 182.095 34.9319C181.73 35.5885 181.548 36.3454 181.548 37.2027C181.548 38.0235 181.73 38.7713 182.095 39.4461C182.478 40.121 182.998 40.659 183.654 41.0603C184.311 41.4433 185.059 41.6348 185.898 41.6348ZM197.642 49.0218V47.517C198.244 47.3711 198.709 47.0884 199.038 46.6689C199.366 46.2676 199.567 45.7113 199.639 45H198.189V41.4433H201.336V43.7688C201.336 45.228 201.026 46.4044 200.406 47.2982C199.785 48.1919 198.864 48.7664 197.642 49.0218ZM28.2473 79.3283C26.9706 79.3283 25.785 79.0912 24.6907 78.617C23.5963 78.1245 22.6661 77.4588 21.9001 76.6198C21.134 75.7808 20.5686 74.8141 20.2038 73.7197L22.9397 72.5706C23.4322 73.8292 24.1526 74.7958 25.101 75.4707C26.0495 76.1455 27.1439 76.483 28.3841 76.483C29.1137 76.483 29.7521 76.3735 30.2993 76.1547C30.8464 75.9176 31.2659 75.5892 31.5578 75.1697C31.8678 74.7502 32.0229 74.2669 32.0229 73.7197C32.0229 72.9719 31.8131 72.3791 31.3936 71.9414C30.9741 71.5036 30.354 71.1571 29.5332 70.9017L25.7029 69.698C24.1708 69.2237 23.0035 68.5033 22.201 67.5366C21.3985 66.5517 20.9972 65.4026 20.9972 64.0894C20.9972 62.9403 21.2799 61.9371 21.8453 61.0799C22.4108 60.2044 23.1859 59.5204 24.1708 59.028C25.174 58.5355 26.314 58.2893 27.5907 58.2893C28.8127 58.2893 29.9253 58.5081 30.9285 58.9459C31.9317 59.3654 32.7889 59.949 33.5003 60.6969C34.2298 61.4447 34.7588 62.311 35.0871 63.296L32.4059 64.4724C32.0046 63.3963 31.3754 62.5664 30.5181 61.9827C29.6791 61.3991 28.7033 61.1072 27.5907 61.1072C26.9159 61.1072 26.3231 61.2258 25.8124 61.4629C25.3017 61.6818 24.9004 62.0101 24.6086 62.4478C24.335 62.8673 24.1982 63.3598 24.1982 63.9252C24.1982 64.5818 24.408 65.1655 24.8275 65.6762C25.247 66.1869 25.8853 66.5699 26.7426 66.8253L30.2993 67.947C31.9226 68.4394 33.1446 69.1508 33.9654 70.081C34.7861 70.9929 35.1965 72.1329 35.1965 73.5008C35.1965 74.6317 34.8956 75.6348 34.2937 76.5103C33.71 77.3858 32.8984 78.0789 31.8587 78.5896C30.8191 79.0821 29.6153 79.3283 28.2473 79.3283ZM45.4687 79.3283C43.9913 79.3283 42.6781 78.9909 41.529 78.316C40.3982 77.6229 39.5136 76.6927 38.8752 75.5254C38.2368 74.3399 37.9177 73.0175 37.9177 71.5584C37.9177 70.0627 38.2368 68.7404 38.8752 67.5913C39.5318 66.4422 40.4073 65.5394 41.5017 64.8828C42.596 64.2079 43.8363 63.8705 45.2225 63.8705C46.3351 63.8705 47.3291 64.062 48.2046 64.445C49.0801 64.8281 49.8188 65.357 50.4207 66.0319C51.0226 66.6885 51.4786 67.4454 51.7886 68.3026C52.117 69.1599 52.2811 70.0719 52.2811 71.0385C52.2811 71.2757 52.272 71.5219 52.2538 71.7772C52.2355 72.0326 52.199 72.2697 52.1443 72.4886H40.3526V70.0263H50.3933L48.916 71.148C49.0984 70.2543 49.0345 69.4608 48.7244 68.7677C48.4326 68.0564 47.9766 67.5001 47.3565 67.0989C46.7546 66.6793 46.0433 66.4696 45.2225 66.4696C44.4017 66.4696 43.6722 66.6793 43.0338 67.0989C42.3954 67.5001 41.9029 68.0838 41.5564 68.8498C41.2098 69.5976 41.0731 70.5096 41.146 71.5857C41.0548 72.5889 41.1916 73.4644 41.5564 74.2122C41.9394 74.96 42.4684 75.5437 43.1432 75.9632C43.8363 76.3827 44.6206 76.5924 45.4961 76.5924C46.3898 76.5924 47.1467 76.3918 47.7669 75.9905C48.4053 75.5892 48.9068 75.0694 49.2716 74.4311L51.7886 75.6622C51.4968 76.3553 51.0408 76.9846 50.4207 77.55C49.8188 78.0972 49.0892 78.5349 48.232 78.8632C47.393 79.1733 46.4719 79.3283 45.4687 79.3283ZM61.7003 79.1642C60.1499 79.1642 58.9462 78.7264 58.0889 77.8509C57.2317 76.9754 56.803 75.7443 56.803 74.1575V66.9894H54.2039V64.1988H54.6143C55.3074 64.1988 55.8455 63.9982 56.2285 63.5969C56.6115 63.1956 56.803 62.6485 56.803 61.9554V60.8063H59.8946V64.1988H63.2597V66.9894H59.8946V74.0207C59.8946 74.5314 59.9767 74.9691 60.1408 75.3339C60.305 75.6804 60.5695 75.954 60.9342 76.1547C61.299 76.3371 61.7732 76.4283 62.3569 76.4283C62.5028 76.4283 62.667 76.4191 62.8494 76.4009C63.0318 76.3827 63.205 76.3644 63.3692 76.3462V79C63.1138 79.0365 62.8311 79.073 62.5211 79.1094C62.211 79.1459 61.9374 79.1642 61.7003 79.1642ZM77.5706 79.1642C76.0203 79.1642 74.8165 78.7264 73.9592 77.8509C73.102 76.9754 72.6734 75.7443 72.6734 74.1575V66.9894H70.0743V64.1988H70.4847C71.1777 64.1988 71.7158 63.9982 72.0988 63.5969C72.4819 63.1956 72.6734 62.6485 72.6734 61.9554V60.8063H75.7649V64.1988H79.1301V66.9894H75.7649V74.0207C75.7649 74.5314 75.847 74.9691 76.0112 75.3339C76.1753 75.6804 76.4398 75.954 76.8046 76.1547C77.1694 76.3371 77.6436 76.4283 78.2272 76.4283C78.3732 76.4283 78.5373 76.4191 78.7197 76.4009C78.9021 76.3827 79.0754 76.3644 79.2395 76.3462V79C78.9842 79.0365 78.7015 79.073 78.3914 79.1094C78.0813 79.1459 77.8077 79.1642 77.5706 79.1642ZM82.2565 79V64.1988H85.3481V79H82.2565ZM82.2565 62.1742V58.6176H85.3481V62.1742H82.2565ZM88.9626 79V64.1988H91.9174V67.3998L91.5344 66.9073C91.8445 65.9042 92.4099 65.1472 93.2306 64.6365C94.0514 64.1258 94.9907 63.8705 96.0486 63.8705C97.2342 63.8705 98.2829 64.1897 99.1949 64.8281C100.125 65.4482 100.745 66.2781 101.055 67.3177L100.18 67.3998C100.618 66.2142 101.283 65.3296 102.177 64.746C103.089 64.1623 104.129 63.8705 105.296 63.8705C106.317 63.8705 107.238 64.1076 108.059 64.5818C108.898 65.056 109.564 65.7127 110.056 66.5517C110.549 67.3907 110.795 68.3482 110.795 69.4244V79H107.704V70.2725C107.704 69.5247 107.567 68.8954 107.293 68.3847C107.038 67.8558 106.673 67.4545 106.199 67.1809C105.743 66.8891 105.205 66.7432 104.585 66.7432C103.964 66.7432 103.417 66.8891 102.943 67.1809C102.469 67.4545 102.095 67.8558 101.821 68.3847C101.548 68.9137 101.411 69.5429 101.411 70.2725V79H98.3468V70.2725C98.3468 69.5247 98.21 68.8954 97.9364 68.3847C97.681 67.8558 97.3162 67.4545 96.842 67.1809C96.386 66.8891 95.8389 66.7432 95.2005 66.7432C94.5804 66.7432 94.0332 66.8891 93.5589 67.1809C93.0847 67.4545 92.7108 67.8558 92.4372 68.3847C92.1819 68.9137 92.0542 69.5429 92.0542 70.2725V79H88.9626ZM121.053 79.3283C119.576 79.3283 118.263 78.9909 117.114 78.316C115.983 77.6229 115.098 76.6927 114.46 75.5254C113.821 74.3399 113.502 73.0175 113.502 71.5584C113.502 70.0627 113.821 68.7404 114.46 67.5913C115.116 66.4422 115.992 65.5394 117.086 64.8828C118.181 64.2079 119.421 63.8705 120.807 63.8705C121.92 63.8705 122.914 64.062 123.789 64.445C124.665 64.8281 125.403 65.357 126.005 66.0319C126.607 66.6885 127.063 67.4454 127.373 68.3026C127.701 69.1599 127.866 70.0719 127.866 71.0385C127.866 71.2757 127.856 71.5219 127.838 71.7772C127.82 72.0326 127.784 72.2697 127.729 72.4886H115.937V70.0263H125.978L124.5 71.148C124.683 70.2543 124.619 69.4608 124.309 68.7677C124.017 68.0564 123.561 67.5001 122.941 67.0989C122.339 66.6793 121.628 66.4696 120.807 66.4696C119.986 66.4696 119.257 66.6793 118.618 67.0989C117.98 67.5001 117.487 68.0838 117.141 68.8498C116.794 69.5976 116.658 70.5096 116.73 71.5857C116.639 72.5889 116.776 73.4644 117.141 74.2122C117.524 74.96 118.053 75.5437 118.728 75.9632C119.421 76.3827 120.205 76.5924 121.081 76.5924C121.974 76.5924 122.731 76.3918 123.351 75.9905C123.99 75.5892 124.491 75.0694 124.856 74.4311L127.373 75.6622C127.081 76.3553 126.625 76.9846 126.005 77.55C125.403 78.0972 124.674 78.5349 123.816 78.8632C122.977 79.1733 122.056 79.3283 121.053 79.3283ZM130.883 79V64.1988H133.838V67.1809L133.564 66.7432C133.892 65.7765 134.421 65.0834 135.151 64.6639C135.88 64.2262 136.756 64.0073 137.777 64.0073H138.68V66.8253H137.394C136.373 66.8253 135.543 67.1444 134.905 67.7828C134.284 68.403 133.974 69.2967 133.974 70.464V79H130.883ZM150.01 79.3283C149.007 79.3283 148.122 79.155 147.356 78.8085C146.608 78.4437 146.024 77.9512 145.605 77.3311C145.185 76.6927 144.976 75.9449 144.976 75.0877C144.976 74.2851 145.149 73.5647 145.495 72.9263C145.86 72.2879 146.417 71.7499 147.164 71.3121C147.912 70.8744 148.851 70.5643 149.982 70.3819L155.126 69.5338V71.9687L150.584 72.7622C149.763 72.9081 149.162 73.1725 148.779 73.5556C148.396 73.9204 148.204 74.3946 148.204 74.9782C148.204 75.5437 148.414 76.0088 148.833 76.3735C149.271 76.7201 149.827 76.8934 150.502 76.8934C151.341 76.8934 152.071 76.711 152.691 76.3462C153.329 75.9814 153.822 75.4981 154.168 74.8962C154.515 74.276 154.688 73.592 154.688 72.8442V69.0413C154.688 68.3118 154.414 67.719 153.867 67.263C153.338 66.7888 152.627 66.5517 151.733 66.5517C150.913 66.5517 150.192 66.7705 149.572 67.2083C148.97 67.6278 148.523 68.175 148.231 68.8498L145.66 67.564C145.933 66.8344 146.38 66.196 147 65.6488C147.62 65.0834 148.341 64.6457 149.162 64.3356C150.001 64.0255 150.885 63.8705 151.815 63.8705C152.983 63.8705 154.013 64.0894 154.907 64.5271C155.819 64.9649 156.521 65.5759 157.014 66.3602C157.524 67.1262 157.78 68.0199 157.78 69.0413V79H154.825V76.3188L155.454 76.4009C155.108 77.0028 154.661 77.5226 154.114 77.9604C153.585 78.3981 152.974 78.7355 152.28 78.9726C151.606 79.2098 150.849 79.3283 150.01 79.3283ZM161.394 79V64.1988H164.349V67.0989L163.994 66.7158C164.358 65.7856 164.942 65.0834 165.744 64.6092C166.547 64.1167 167.477 63.8705 168.535 63.8705C169.629 63.8705 170.596 64.1076 171.435 64.5818C172.274 65.056 172.931 65.7127 173.405 66.5517C173.879 67.3907 174.116 68.3574 174.116 69.4517V79H171.052V70.2725C171.052 69.5247 170.915 68.8954 170.642 68.3847C170.368 67.8558 169.976 67.4545 169.465 67.1809C168.973 66.8891 168.407 66.7432 167.769 66.7432C167.131 66.7432 166.556 66.8891 166.045 67.1809C165.553 67.4545 165.17 67.8558 164.896 68.3847C164.623 68.9137 164.486 69.5429 164.486 70.2725V79H161.394ZM184.265 79.3283C182.842 79.3283 181.565 78.9909 180.435 78.316C179.322 77.6229 178.437 76.6927 177.781 75.5254C177.142 74.3581 176.823 73.0449 176.823 71.5857C176.823 70.1266 177.151 68.8133 177.808 67.646C178.465 66.4787 179.349 65.5576 180.462 64.8828C181.575 64.2079 182.833 63.8705 184.237 63.8705C185.423 63.8705 186.472 64.1076 187.384 64.5818C188.296 65.056 189.016 65.7127 189.545 66.5517L189.08 67.263V58.2893H192.144V79H189.217V75.9905L189.572 76.5651C189.062 77.4588 188.332 78.1428 187.384 78.617C186.435 79.0912 185.396 79.3283 184.265 79.3283ZM184.566 76.4556C185.423 76.4556 186.189 76.2459 186.864 75.8264C187.557 75.4069 188.095 74.8323 188.478 74.1027C188.879 73.3549 189.08 72.5159 189.08 71.5857C189.08 70.6555 188.879 69.8256 188.478 69.0961C188.095 68.3665 187.557 67.7919 186.864 67.3724C186.189 66.9529 185.423 66.7432 184.566 66.7432C183.709 66.7432 182.933 66.9529 182.24 67.3724C181.547 67.7919 181.009 68.3665 180.626 69.0961C180.243 69.8256 180.052 70.6555 180.052 71.5857C180.052 72.5159 180.243 73.3549 180.626 74.1027C181.009 74.8323 181.538 75.4069 182.213 75.8264C182.906 76.2459 183.69 76.4556 184.566 76.4556ZM26.2775 113.328C24.7636 113.328 23.4322 112.954 22.2831 112.207C21.1522 111.459 20.3588 110.456 19.9028 109.197L22.2831 108.075C22.6843 108.914 23.2315 109.58 23.9246 110.073C24.6359 110.565 25.4202 110.811 26.2775 110.811C27.0071 110.811 27.5998 110.647 28.0558 110.319C28.5118 109.991 28.7398 109.544 28.7398 108.978C28.7398 108.613 28.6395 108.322 28.4388 108.103C28.2382 107.866 27.9829 107.674 27.6728 107.528C27.381 107.382 27.08 107.273 26.7699 107.2L24.4444 106.543C23.1677 106.178 22.2101 105.631 21.5717 104.902C20.9516 104.154 20.6415 103.288 20.6415 102.303C20.6415 101.409 20.8695 100.634 21.3255 99.9771C21.7815 99.3023 22.4108 98.7825 23.2133 98.4177C24.0158 98.0529 24.9187 97.8705 25.9218 97.8705C27.2715 97.8705 28.4753 98.2079 29.5332 98.8828C30.5911 99.5394 31.3389 100.46 31.7766 101.646L29.3964 102.768C29.1046 102.056 28.6395 101.491 28.0011 101.071C27.381 100.652 26.6787 100.442 25.8945 100.442C25.2196 100.442 24.6815 100.606 24.2803 100.935C23.879 101.245 23.6784 101.655 23.6784 102.166C23.6784 102.512 23.7696 102.804 23.952 103.041C24.1344 103.26 24.3715 103.443 24.6633 103.589C24.9551 103.716 25.2561 103.826 25.5662 103.917L27.9737 104.628C29.1958 104.975 30.1351 105.522 30.7917 106.27C31.4483 106.999 31.7766 107.875 31.7766 108.896C31.7766 109.772 31.5395 110.547 31.0653 111.222C30.6093 111.878 29.9709 112.398 29.1502 112.781C28.3294 113.146 27.3718 113.328 26.2775 113.328ZM40.0861 113.328C38.9735 113.328 37.9977 113.082 37.1587 112.59C36.3196 112.079 35.663 111.377 35.1888 110.483C34.7328 109.571 34.5048 108.522 34.5048 107.337V98.1988H37.5964V107.063C37.5964 107.738 37.7332 108.331 38.0068 108.841C38.2804 109.352 38.6634 109.753 39.1559 110.045C39.6483 110.319 40.2137 110.456 40.8521 110.456C41.5087 110.456 42.0833 110.31 42.5757 110.018C43.0682 109.726 43.4512 109.316 43.7248 108.787C44.0166 108.258 44.1626 107.638 44.1626 106.926V98.1988H47.2268V113H44.2993V110.1L44.6277 110.483C44.2811 111.395 43.7066 112.097 42.904 112.59C42.1015 113.082 41.1622 113.328 40.0861 113.328ZM50.8364 118.472V98.1988H53.7912V101.263L53.4355 100.552C53.9827 99.7127 54.7123 99.056 55.6242 98.5818C56.5362 98.1076 57.5759 97.8705 58.7432 97.8705C60.1476 97.8705 61.4061 98.2079 62.5187 98.8828C63.6495 99.5576 64.5341 100.479 65.1725 101.646C65.8291 102.813 66.1574 104.127 66.1574 105.586C66.1574 107.045 65.8291 108.358 65.1725 109.525C64.5341 110.693 63.6587 111.623 62.5461 112.316C61.4335 112.991 60.1658 113.328 58.7432 113.328C57.5941 113.328 56.5453 113.091 55.5969 112.617C54.6667 112.143 53.9462 111.459 53.4355 110.565L53.928 109.991V118.472H50.8364ZM58.4422 110.456C59.3177 110.456 60.0929 110.246 60.7677 109.826C61.4426 109.407 61.9715 108.832 62.3546 108.103C62.7558 107.355 62.9564 106.516 62.9564 105.586C62.9564 104.656 62.7558 103.826 62.3546 103.096C61.9715 102.366 61.4426 101.792 60.7677 101.372C60.0929 100.953 59.3177 100.743 58.4422 100.743C57.585 100.743 56.8098 100.953 56.1167 101.372C55.4419 101.792 54.9038 102.366 54.5025 103.096C54.1195 103.826 53.928 104.656 53.928 105.586C53.928 106.516 54.1195 107.355 54.5025 108.103C54.9038 108.832 55.4419 109.407 56.1167 109.826C56.8098 110.246 57.585 110.456 58.4422 110.456ZM69.1648 118.472V98.1988H72.1196V101.263L71.7639 100.552C72.3111 99.7127 73.0406 99.056 73.9526 98.5818C74.8646 98.1076 75.9042 97.8705 77.0715 97.8705C78.476 97.8705 79.7345 98.2079 80.8471 98.8828C81.9779 99.5576 82.8625 100.479 83.5009 101.646C84.1575 102.813 84.4858 104.127 84.4858 105.586C84.4858 107.045 84.1575 108.358 83.5009 109.525C82.8625 110.693 81.987 111.623 80.8744 112.316C79.7618 112.991 78.4942 113.328 77.0715 113.328C75.9225 113.328 74.8737 113.091 73.9253 112.617C72.9951 112.143 72.2746 111.459 71.7639 110.565L72.2564 109.991V118.472H69.1648ZM76.7706 110.456C77.6461 110.456 78.4212 110.246 79.0961 109.826C79.771 109.407 80.2999 108.832 80.6829 108.103C81.0842 107.355 81.2848 106.516 81.2848 105.586C81.2848 104.656 81.0842 103.826 80.6829 103.096C80.2999 102.366 79.771 101.792 79.0961 101.372C78.4212 100.953 77.6461 100.743 76.7706 100.743C75.9133 100.743 75.1382 100.953 74.4451 101.372C73.7702 101.792 73.2322 102.366 72.8309 103.096C72.4479 103.826 72.2564 104.656 72.2564 105.586C72.2564 106.516 72.4479 107.355 72.8309 108.103C73.2322 108.832 73.7702 109.407 74.4451 109.826C75.1382 110.246 75.9133 110.456 76.7706 110.456ZM94.6339 113.328C93.2112 113.328 91.9071 112.991 90.7215 112.316C89.5542 111.641 88.624 110.72 87.9309 109.553C87.2378 108.385 86.8913 107.063 86.8913 105.586C86.8913 104.09 87.2378 102.768 87.9309 101.619C88.624 100.451 89.5542 99.5394 90.7215 98.8828C91.8888 98.2079 93.1929 97.8705 94.6339 97.8705C96.093 97.8705 97.3971 98.2079 98.5462 98.8828C99.7135 99.5394 100.635 100.451 101.309 101.619C102.003 102.768 102.349 104.09 102.349 105.586C102.349 107.081 102.003 108.413 101.309 109.58C100.616 110.747 99.6861 111.669 98.5188 112.343C97.3515 113 96.0565 113.328 94.6339 113.328ZM94.6339 110.456C95.5093 110.456 96.2845 110.246 96.9594 109.826C97.6342 109.407 98.1632 108.832 98.5462 108.103C98.9474 107.355 99.1481 106.516 99.1481 105.586C99.1481 104.656 98.9474 103.826 98.5462 103.096C98.1632 102.366 97.6342 101.792 96.9594 101.372C96.2845 100.953 95.5093 100.743 94.6339 100.743C93.7766 100.743 93.0014 100.953 92.3083 101.372C91.6335 101.792 91.0954 102.366 90.6942 103.096C90.3111 103.826 90.1196 104.656 90.1196 105.586C90.1196 106.516 90.3111 107.355 90.6942 108.103C91.0954 108.832 91.6335 109.407 92.3083 109.826C93.0014 110.246 93.7766 110.456 94.6339 110.456ZM105.367 113V98.1988H108.322V101.181L108.049 100.743C108.377 99.7765 108.906 99.0834 109.635 98.6639C110.365 98.2262 111.24 98.0073 112.262 98.0073H113.165V100.825H111.879C110.857 100.825 110.027 101.144 109.389 101.783C108.769 102.403 108.459 103.297 108.459 104.464V113H105.367ZM121.949 113.164C120.398 113.164 119.195 112.726 118.337 111.851C117.48 110.975 117.052 109.744 117.052 108.157V100.989H114.452V98.1988H114.863C115.556 98.1988 116.094 97.9982 116.477 97.5969C116.86 97.1956 117.052 96.6485 117.052 95.9554V94.8063H120.143V98.1988H123.508V100.989H120.143V108.021C120.143 108.531 120.225 108.969 120.389 109.334C120.553 109.68 120.818 109.954 121.183 110.155C121.548 110.337 122.022 110.428 122.605 110.428C122.751 110.428 122.915 110.419 123.098 110.401C123.28 110.383 123.454 110.364 123.618 110.346V113C123.362 113.036 123.08 113.073 122.77 113.109C122.459 113.146 122.186 113.164 121.949 113.164Z" fill="black"/>
</g>
<defs>
<linearGradient id="paint0_linear_1098_5066" x1="185.17" y1="230.681" x2="39.5764" y2="455.584" gradientUnits="userSpaceOnUse">
<stop offset="0.35" stop-color="#EDE8E4"/>
<stop offset="0.37" stop-color="#E8E4E0"/>
<stop offset="0.38" stop-color="#DCD8D4"/>
<stop offset="0.39" stop-color="#CFCBC7"/>
<stop offset="0.41" stop-color="#CAC6C2"/>
<stop offset="0.51" stop-color="#BEBAB6"/>
<stop offset="0.64" stop-color="#B7B3AF"/>
<stop offset="1" stop-color="#B6B2AE"/>
</linearGradient>
<radialGradient id="paint1_radial_1098_5066" cx="0" cy="0" r="1" gradientUnits="userSpaceOnUse" gradientTransform="translate(170.257 268.346) scale(149.904 168.11)">
<stop stop-color="#FFFAF5"/>
<stop offset="0.31" stop-color="#F4F0EB"/>
<stop offset="0.83" stop-color="#D9D5D1"/>
<stop offset="1" stop-color="#CFCBC7"/>
</radialGradient>
<linearGradient id="paint2_linear_1098_5066" x1="108.686" y1="482.066" x2="278.852" y2="330.283" gradientUnits="userSpaceOnUse">
<stop stop-color="#B6B2AE"/>
<stop offset="1" stop-color="#BCB8B4"/>
</linearGradient>
<clipPath id="clip0_1098_5066">
<rect width="283" height="449" rx="15.1351" fill="white"/>
</clipPath>
<clipPath id="clip1_1098_5066">
<rect y="92" width="594.949" height="357.134" rx="26.3325" fill="white"/>
</clipPath>
</defs>
</svg>
