<svg width="301" height="209" viewBox="0 0 301 209" fill="none" xmlns="http://www.w3.org/2000/svg">
<g clip-path="url(#clip0_1098_4969)">
<rect x="0.988281" y="0.875488" width="300.012" height="207.701" rx="15.1351" fill="#FFFEFD"/>
<path d="M292 175.612H227.624L216.22 131.814L292 175.612Z" fill="#D5B8AC"/>
<path d="M127.47 118.512L241.529 184.435V90.8096L127.47 24.9053V118.512Z" fill="#373737" stroke="#979797" stroke-width="0.187177"/>
<path d="M241.717 90.8096V184.436L242.811 183.8V90.1748L241.717 90.8096Z" fill="#261E22" stroke="#979797" stroke-width="0.187177"/>
<path d="M127.565 24.7422L241.624 90.6484L242.718 90.0127L128.66 24.1074L127.565 24.7422Z" fill="#473B3B" stroke="#979797" stroke-width="0.187177"/>
<path d="M140.006 37.1433H139.99C140.02 37.9296 140.422 38.6485 141.065 39.0769L141.203 39.1619L165.572 53.2341L165.573 53.2351C166.42 53.7362 167.493 53.1144 167.493 52.1257V47.697L150.265 37.1667L140.006 32.1238V37.1433Z" fill="#CFCBC7" stroke="#979797" stroke-width="0.187177"/>
<path d="M140.1 31.9734L167.586 47.8718L168.684 47.2195L141.195 31.3386L140.1 31.9734Z" fill="#EDE8E4" stroke="#979797" stroke-width="0.187177"/>
<path d="M141.89 36.8511C141.654 36.711 141.459 36.6971 141.333 36.7524C141.211 36.8054 141.122 36.9362 141.122 37.1616C141.122 37.3891 141.215 37.6555 141.374 37.9038C141.492 38.0895 141.645 38.2601 141.813 38.3931L141.986 38.5122C142.222 38.6524 142.417 38.6671 142.543 38.6118C142.665 38.5588 142.754 38.4279 142.754 38.2026C142.754 37.9751 142.661 37.7088 142.502 37.4604C142.384 37.2748 142.231 37.1042 142.063 36.9712L141.89 36.8511Z" fill="#373737" stroke="#979797" stroke-width="0.187177"/>
<path d="M165.367 50.4216C165.13 50.2815 164.936 50.2676 164.809 50.323C164.688 50.376 164.598 50.5068 164.598 50.7322C164.598 50.9597 164.691 51.2261 164.85 51.4744C164.969 51.66 165.121 51.8307 165.29 51.9636L165.462 52.0828C165.699 52.223 165.893 52.2377 166.02 52.1824C166.141 52.1294 166.231 51.9985 166.231 51.7732C166.231 51.5456 166.138 51.2793 165.979 51.031C165.86 50.8453 165.708 50.6747 165.54 50.5417L165.367 50.4216Z" fill="#373737" stroke="#979797" stroke-width="0.187177"/>
<path d="M202.562 73.3015H202.547C202.577 74.0878 202.978 74.8067 203.622 75.2351L203.76 75.3201L228.129 89.3923L228.13 89.3933C228.976 89.8944 230.05 89.2726 230.05 88.2839V83.8552L212.821 73.325L202.562 68.282V73.3015Z" fill="#CFCBC7" stroke="#979797" stroke-width="0.187177"/>
<path d="M202.658 68.1321L230.145 84.011L231.256 83.3752L203.769 67.4963L202.658 68.1321Z" fill="#EDE8E4" stroke="#979797" stroke-width="0.187177"/>
<path d="M204.466 73.0088C204.229 72.8687 204.035 72.8548 203.908 72.9102C203.787 72.9631 203.697 73.0939 203.697 73.3193C203.697 73.5469 203.791 73.8133 203.949 74.0615C204.068 74.2472 204.22 74.4178 204.389 74.5508L204.562 74.6699C204.798 74.8101 204.992 74.8248 205.119 74.7695C205.24 74.7166 205.33 74.5856 205.33 74.3604C205.33 74.1328 205.237 73.8665 205.078 73.6182C204.959 73.4325 204.807 73.2619 204.639 73.1289L204.466 73.0088Z" fill="#373737" stroke="#979797" stroke-width="0.187177"/>
<path d="M227.943 86.5786C227.706 86.4477 227.511 86.4339 227.383 86.4878C227.263 86.5389 227.173 86.6646 227.173 86.8892C227.173 87.1167 227.267 87.3831 227.425 87.6313C227.544 87.817 227.696 87.9876 227.865 88.1206L228.036 88.2388C228.273 88.3706 228.468 88.3865 228.596 88.3325C228.717 88.2814 228.806 88.1549 228.806 87.9302C228.806 87.7028 228.713 87.4371 228.554 87.189C228.396 86.9414 228.178 86.7198 227.942 86.5796L227.943 86.5786Z" fill="#373737" stroke="#979797" stroke-width="0.187177"/>
<path d="M130.368 116.802L238.706 179.397V93.8777L130.368 31.2634V116.802Z" fill="#D9D9D9" stroke="#979797" stroke-width="0.187177"/>
<path opacity="0.6" d="M131.427 43.6318L237.666 105.037V94.4717L131.427 33.085V43.6318Z" fill="#E3C7B1" stroke="#979797" stroke-width="0.187177"/>
<path d="M206.649 104.086L236.607 121.397V114.977L206.649 97.6655V104.086Z" fill="#818181" stroke="#979797" stroke-width="0.187177"/>
<path d="M221.156 92.6907L228.77 97.0999V92.1116L221.156 87.7024V92.6907Z" fill="#D9D9D9" stroke="#979797" stroke-width="0.187177"/>
<path d="M193.945 76.9634L201.577 81.3726V76.3843L193.945 71.9751V76.9634Z" fill="#D9D9D9" stroke="#979797" stroke-width="0.187177"/>
<path d="M166.736 61.2549L174.368 65.6465V60.6572L166.736 56.2656V61.2549Z" fill="#D9D9D9" stroke="#979797" stroke-width="0.187177"/>
<path d="M139.525 45.5281L147.157 49.9373V44.949L139.525 40.5398V45.5281Z" fill="#D9D9D9" stroke="#979797" stroke-width="0.187177"/>
<g style="mix-blend-mode:multiply">
<path d="M227.564 105.016L235.196 109.425V107.058L227.564 102.648V105.016ZM213.875 97.0967L221.508 101.505V99.1377L213.875 94.7285V97.0967ZM200.8 89.5303L208.432 93.9395V91.5723L200.8 87.1631V89.5303ZM187.297 81.7227L194.929 86.1318V83.7646L187.297 79.3555V81.7227ZM174.258 74.1934L181.891 78.6025V76.2354L174.258 71.8262V74.1934ZM160.569 66.293L168.201 70.7021V68.335L160.569 63.9258V66.293ZM147.493 58.7266L155.126 63.1357V60.7686L147.493 56.3584V58.7266ZM133.972 50.9189L141.604 55.3281V52.9609L133.972 48.5508V50.9189Z" fill="#E9E9E9"/>
<path d="M227.564 105.016L235.196 109.425V107.058L227.564 102.648V105.016ZM213.875 97.0967L221.508 101.505V99.1377L213.875 94.7285V97.0967ZM200.8 89.5303L208.432 93.9395V91.5723L200.8 87.1631V89.5303ZM187.297 81.7227L194.929 86.1318V83.7646L187.297 79.3555V81.7227ZM174.258 74.1934L181.891 78.6025V76.2354L174.258 71.8262V74.1934ZM160.569 66.293L168.201 70.7021V68.335L160.569 63.9258V66.293ZM147.493 58.7266L155.126 63.1357V60.7686L147.493 56.3584V58.7266ZM133.972 50.9189L141.604 55.3281V52.9609L133.972 48.5508V50.9189Z" stroke="#979797" stroke-width="0.187177"/>
</g>
<path d="M132.503 61.2551L143.275 67.467V61.0471L132.503 54.8157V61.2551Z" fill="#818181" stroke="#979797" stroke-width="0.187177"/>
<path d="M187.834 102.246L223.68 122.958V116.538L187.834 95.8252V102.246Z" fill="#733E2C" stroke="#979797" stroke-width="0.187177"/>
<path d="M146.137 87.188L183.375 108.718V102.298L146.137 80.7681V87.188Z" fill="#D4D8DC" stroke="#979797" stroke-width="0.187177"/>
<path d="M164.656 106.93L209.973 133.127V126.707L164.656 100.51V106.93Z" fill="#D9D9D9" stroke="#979797" stroke-width="0.187177"/>
<path d="M132.448 97.3569L193.999 132.922V126.502L132.448 90.937V97.3569Z" fill="#C76E4E" stroke="#979797" stroke-width="0.187177"/>
<path d="M224.017 150.282L236.589 157.535V151.115L224.017 143.863V150.282Z" fill="#C76E4E" stroke="#979797" stroke-width="0.187177"/>
<path d="M145.153 113.734L209.955 151.196V144.758L145.153 107.314V113.734Z" fill="#E3C7B1" stroke="#979797" stroke-width="0.187177"/>
<path opacity="0.6" d="M132.468 115.519L177.786 141.715V135.295L132.468 109.099V115.519Z" fill="#E3C7B1" stroke="#979797" stroke-width="0.187177"/>
<path opacity="0.6" d="M199.535 154.279L209.712 160.176V153.756L199.535 147.859V154.279Z" fill="#E3C7B1" stroke="#979797" stroke-width="0.187177"/>
<g style="mix-blend-mode:multiply">
<path d="M131.241 116.302L131.288 116.33L237.833 177.892V94.3779L237.788 94.3506L237.787 94.3516L131.241 32.7881V116.302ZM131.528 33.1396L237.621 94.4492L237.667 94.4766V177.622L237.527 177.541L131.435 116.231L131.388 116.204V33.0586L131.528 33.1396Z" fill="#E9E9E9" stroke="#979797" stroke-width="0.187177"/>
<path d="M224.368 97.6355V106.52H224.534V97.6355H224.368Z" fill="#E9E9E9" stroke="#979797" stroke-width="0.187177"/>
<path d="M211.069 79.1943V162.29H211.235V79.1943H211.069Z" fill="#E9E9E9" stroke="#979797" stroke-width="0.187177"/>
<path d="M197.751 82.2615V91.1462H197.917V82.2615H197.751Z" fill="#E9E9E9" stroke="#979797" stroke-width="0.187177"/>
<path d="M184.453 63.8206V146.916H184.619V63.8206H184.453Z" fill="#E9E9E9" stroke="#979797" stroke-width="0.187177"/>
<path d="M171.136 66.8877V75.7725H171.302V66.8877H171.136Z" fill="#E9E9E9" stroke="#979797" stroke-width="0.187177"/>
<path d="M157.837 48.428V131.524H158.003V48.428H157.837Z" fill="#E9E9E9" stroke="#979797" stroke-width="0.187177"/>
<path d="M144.54 51.5142V60.3989H144.706V51.5142H144.54Z" fill="#E9E9E9" stroke="#979797" stroke-width="0.187177"/>
<path d="M131.423 52.7001L131.34 52.8439L237.597 114.394L237.68 114.25L131.423 52.7001Z" fill="#E9E9E9" stroke="#979797" stroke-width="0.187177"/>
<path d="M131.416 61.7605L131.333 61.9042L237.59 123.454L237.673 123.311L131.416 61.7605Z" fill="#E9E9E9" stroke="#979797" stroke-width="0.187177"/>
<path d="M131.48 43.6309L131.397 43.7746L237.606 105.297L237.689 105.153L131.48 43.6309Z" fill="#E9E9E9" stroke="#979797" stroke-width="0.187177"/>
<path d="M131.418 70.823L131.335 70.9667L237.592 132.517L237.675 132.373L131.418 70.823Z" fill="#E9E9E9" stroke="#979797" stroke-width="0.187177"/>
<path d="M131.418 79.8671L131.335 80.0109L237.592 141.561L237.675 141.417L131.418 79.8671Z" fill="#E9E9E9" stroke="#979797" stroke-width="0.187177"/>
<path d="M131.42 88.9296L131.337 89.0734L237.594 150.624L237.677 150.48L131.42 88.9296Z" fill="#E9E9E9" stroke="#979797" stroke-width="0.187177"/>
<path d="M131.42 97.9736L131.337 98.1173L237.594 159.668L237.677 159.524L131.42 97.9736Z" fill="#E9E9E9" stroke="#979797" stroke-width="0.187177"/>
<path d="M131.421 107.036L131.338 107.18L237.595 168.73L237.679 168.586L131.421 107.036Z" fill="#E9E9E9" stroke="#979797" stroke-width="0.187177"/>
</g>
<path d="M222.529 82.9468V88.9956L223.698 88.3218V82.2729L222.529 82.9468Z" fill="url(#paint0_linear_1098_4969)" stroke="#979797" stroke-width="0.187177"/>
<path d="M207.02 80.1421L222.341 88.9946V82.9458L207.02 74.0942V80.1421Z" fill="#CFCBC7" stroke="#979797" stroke-width="0.187177"/>
<path d="M207.113 73.9314L215.406 78.7214L222.437 82.7839L223.605 82.1101L208.265 73.2585L207.113 73.9314Z" fill="#EDE8E4" stroke="#979797" stroke-width="0.187177"/>
<path d="M209.227 75.2651C211.991 76.9708 215.334 78.9599 219.944 81.4546C215.138 78.5012 211.522 76.4959 209.227 75.2651Z" fill="url(#paint1_radial_1098_4969)" stroke="#979797" stroke-width="0.187177"/>
<path d="M159.973 46.7888V52.8367L161.123 52.1658V46.1179L159.973 46.7888Z" fill="url(#paint2_linear_1098_4969)" stroke="#979797" stroke-width="0.187177"/>
<path d="M144.446 43.9846L159.786 52.8372V46.7883L144.446 37.9368V43.9846Z" fill="#CFCBC7" stroke="#979797" stroke-width="0.187177"/>
<path d="M144.539 37.7754L152.831 42.5645L159.879 46.627L161.031 45.9541L145.708 37.1016L144.539 37.7754Z" fill="#EDE8E4" stroke="#979797" stroke-width="0.187177"/>
<path d="M146.671 39.1077C149.435 40.8134 152.778 42.8024 157.388 45.2971C152.582 42.3437 148.966 40.3384 146.671 39.1077Z" fill="url(#paint3_radial_1098_4969)" stroke="#979797" stroke-width="0.187177"/>
<path d="M144.14 127.311C143.768 127.108 143.264 127.118 142.67 127.442V127.441C142.066 127.775 141.506 128.37 141.094 129.066C140.734 129.675 140.491 130.355 140.43 130.994L140.416 131.264V131.266C140.4 131.899 140.591 132.359 140.898 132.611L141.037 132.707H141.038L144.523 134.705L147.625 129.308L144.141 127.31L144.14 127.311Z" fill="url(#paint4_linear_1098_4969)" stroke="#979797" stroke-width="0.187177"/>
<path d="M144.222 133.697L144.244 133.675C144.262 132.886 144.543 132.031 144.985 131.283C145.434 130.522 146.055 129.862 146.742 129.49H146.741C146.949 129.374 147.15 129.292 147.342 129.242C147.073 129.203 146.754 129.253 146.404 129.418L146.238 129.504H146.237C145.633 129.838 145.073 130.434 144.662 131.129C144.301 131.738 144.059 132.418 143.998 133.057L143.982 133.328C143.982 133.86 144.115 134.278 144.33 134.538C144.261 134.303 144.222 134.034 144.222 133.736V133.697Z" fill="url(#paint5_linear_1098_4969)" stroke="#979797" stroke-width="0.187177"/>
<path d="M148.394 129.522C148.052 129.329 147.596 129.312 147.064 129.552L146.833 129.671L146.832 129.672C146.182 130.034 145.584 130.67 145.146 131.41C144.764 132.058 144.507 132.778 144.443 133.451L144.428 133.737C144.428 134.42 144.622 134.902 144.942 135.17L145.087 135.272L176.51 153.415C176.367 153.17 176.276 152.866 176.25 152.509L176.243 152.212C176.253 151.412 176.538 150.541 176.987 149.781C177.381 149.115 177.904 148.525 178.489 148.139L178.744 147.987C179.131 147.777 179.499 147.674 179.831 147.675L148.393 129.523L148.394 129.522Z" fill="url(#paint6_linear_1098_4969)" stroke="#979797" stroke-width="0.187177"/>
<path d="M180.704 148.241C180.339 147.813 179.727 147.695 178.984 148.054L178.833 148.132L178.833 148.133C178.183 148.485 177.585 149.117 177.148 149.857C176.766 150.505 176.51 151.228 176.446 151.908L176.43 152.197C176.421 152.695 176.525 153.089 176.708 153.369C176.866 153.612 177.085 153.774 177.349 153.845L177.465 153.869H177.466L182.77 154.751L184.135 152.373L180.705 148.24L180.704 148.241Z" fill="url(#paint7_linear_1098_4969)" stroke="#979797" stroke-width="0.187177"/>
<path d="M184.051 152.332C183.905 152.245 183.702 152.249 183.438 152.389V152.39C183.169 152.538 182.921 152.802 182.736 153.115C182.575 153.388 182.467 153.692 182.437 153.975L182.429 154.095C182.429 154.388 182.51 154.577 182.638 154.678L182.695 154.716L182.697 154.717L183.756 155.331L183.893 155.409C184.335 155.627 184.784 155.744 185.234 155.751L185.449 155.746H185.455C185.462 155.746 185.486 155.745 185.521 155.741L185.648 155.713L185.654 155.712L185.748 155.683C186.202 155.522 186.456 155.119 186.418 154.634C186.377 154.112 185.995 153.475 185.112 152.946L185.111 152.947L184.053 152.332H184.051Z" fill="#D2231F" stroke="#979797" stroke-width="0.187177"/>
<path d="M185.794 155.102C185.754 154.957 185.573 154.844 185.353 154.907V154.906C185.251 154.938 185.167 155.001 185.114 155.074C185.075 155.129 185.056 155.187 185.057 155.241L185.063 155.294C185.098 155.42 185.242 155.523 185.425 155.505L185.505 155.489C185.606 155.458 185.691 155.395 185.743 155.322C185.782 155.267 185.801 155.21 185.801 155.155L185.794 155.102Z" fill="#C76E4E" stroke="#979797" stroke-width="0.187177"/>
<path d="M129.819 125.973C129.447 125.77 128.943 125.78 128.349 126.104V126.103C127.745 126.437 127.185 127.032 126.773 127.728C126.413 128.337 126.17 129.017 126.109 129.656L126.094 129.926V129.928C126.079 130.56 126.27 131.021 126.577 131.273L126.715 131.368H126.716L130.202 133.366L133.303 127.97L129.82 125.972L129.819 125.973Z" fill="url(#paint8_linear_1098_4969)" stroke="#979797" stroke-width="0.187177"/>
<path d="M129.881 132.359L129.903 132.337C129.921 131.548 130.202 130.693 130.644 129.945C131.094 129.184 131.714 128.524 132.401 128.152H132.4C132.608 128.036 132.809 127.954 133.001 127.904C132.732 127.865 132.414 127.915 132.063 128.08L131.897 128.166H131.896C131.292 128.5 130.733 129.095 130.321 129.791C129.961 130.4 129.718 131.08 129.657 131.719L129.641 131.99C129.641 132.521 129.774 132.94 129.989 133.199C129.92 132.965 129.881 132.696 129.881 132.398V132.359Z" fill="url(#paint9_linear_1098_4969)" stroke="#979797" stroke-width="0.187177"/>
<path d="M134.073 128.165C133.732 127.972 133.275 127.955 132.744 128.195L132.512 128.314L132.511 128.315C131.861 128.677 131.263 129.314 130.826 130.054C130.443 130.701 130.187 131.422 130.123 132.095L130.107 132.38C130.107 133.064 130.302 133.545 130.622 133.813L130.766 133.915L162.189 152.059C162.046 151.814 161.955 151.509 161.929 151.152L161.922 150.855C161.932 150.055 162.217 149.185 162.667 148.424C163.06 147.758 163.583 147.169 164.168 146.782L164.423 146.63C164.81 146.42 165.178 146.318 165.51 146.318L134.072 128.166L134.073 128.165Z" fill="url(#paint10_linear_1098_4969)" stroke="#979797" stroke-width="0.187177"/>
<path d="M166.344 146.901C165.975 146.447 165.306 146.342 164.494 146.794L164.472 146.805H164.457C163.814 147.16 163.223 147.786 162.79 148.519C162.407 149.167 162.152 149.89 162.087 150.57L162.072 150.859C162.063 151.357 162.167 151.751 162.349 152.031C162.507 152.274 162.726 152.436 162.991 152.507L163.107 152.531H163.108L168.412 153.413L169.777 151.035L166.345 146.902L166.344 146.901Z" fill="url(#paint11_linear_1098_4969)" stroke="#979797" stroke-width="0.187177"/>
<path d="M169.73 150.975C169.584 150.888 169.381 150.892 169.118 151.032V151.033C168.848 151.181 168.6 151.445 168.416 151.758C168.254 152.031 168.146 152.335 168.116 152.618L168.108 152.738C168.108 153.031 168.189 153.22 168.317 153.321L168.375 153.359L168.376 153.36L169.435 153.974L169.572 154.052C170.014 154.27 170.464 154.388 170.914 154.394L171.128 154.389H171.134C171.142 154.389 171.166 154.389 171.2 154.385L171.328 154.356L171.333 154.355L171.427 154.326C171.882 154.165 172.135 153.762 172.097 153.277C172.056 152.755 171.675 152.118 170.792 151.589L170.791 151.59L169.732 150.975H169.73Z" fill="#C38B7E" stroke="#979797" stroke-width="0.187177"/>
<path d="M171.473 153.763C171.433 153.619 171.251 153.506 171.031 153.569V153.568C170.93 153.6 170.845 153.663 170.793 153.736C170.754 153.791 170.735 153.849 170.735 153.903L170.742 153.956C170.777 154.082 170.921 154.185 171.104 154.167L171.184 154.151C171.285 154.12 171.37 154.057 171.422 153.984C171.461 153.929 171.48 153.872 171.479 153.817L171.473 153.763Z" fill="#B5B2A1" stroke="#979797" stroke-width="0.187177"/>
<path d="M28.5207 150.196C27.7585 150.196 27.0507 150.054 26.3973 149.771C25.744 149.477 25.1887 149.08 24.7313 148.579C24.274 148.078 23.9364 147.501 23.7187 146.848L25.352 146.162C25.646 146.913 26.0761 147.49 26.6423 147.893C27.2086 148.296 27.8619 148.497 28.6024 148.497C29.0379 148.497 29.419 148.432 29.7457 148.301C30.0724 148.16 30.3228 147.964 30.497 147.713C30.6821 147.463 30.7747 147.174 30.7747 146.848C30.7747 146.401 30.6495 146.047 30.399 145.786C30.1486 145.525 29.7784 145.318 29.2884 145.165L27.0017 144.447C26.087 144.164 25.3901 143.733 24.911 143.156C24.4319 142.568 24.1923 141.882 24.1923 141.098C24.1923 140.412 24.3611 139.813 24.6987 139.302C25.0362 138.779 25.499 138.371 26.087 138.077C26.6859 137.783 27.3665 137.636 28.1287 137.636C28.8582 137.636 29.5225 137.766 30.1214 138.028C30.7202 138.278 31.232 138.627 31.6567 139.073C32.0923 139.519 32.408 140.037 32.604 140.625L31.0034 141.327C30.7638 140.685 30.3881 140.189 29.8764 139.841C29.3755 139.492 28.7929 139.318 28.1287 139.318C27.7258 139.318 27.3719 139.389 27.067 139.53C26.7621 139.661 26.5226 139.857 26.3483 140.118C26.185 140.369 26.1033 140.663 26.1033 141C26.1033 141.392 26.2286 141.741 26.479 142.046C26.7295 142.351 27.1106 142.579 27.6223 142.732L29.7457 143.401C30.7148 143.695 31.4444 144.12 31.9344 144.675C32.4244 145.22 32.6694 145.9 32.6694 146.717C32.6694 147.392 32.4897 147.991 32.1304 148.514C31.7819 149.036 31.2974 149.45 30.6767 149.755C30.056 150.049 29.3374 150.196 28.5207 150.196ZM38.4752 150.098C37.5497 150.098 36.831 149.837 36.3192 149.314C35.8075 148.791 35.5516 148.056 35.5516 147.109V142.83H33.9999V141.164H34.2449C34.6587 141.164 34.9799 141.044 35.2086 140.804C35.4372 140.565 35.5516 140.238 35.5516 139.824V139.138H37.3972V141.164H39.4063V142.83H37.3972V147.027C37.3972 147.332 37.4462 147.594 37.5442 147.811C37.6422 148.018 37.8001 148.182 38.0179 148.301C38.2357 148.41 38.5188 148.465 38.8672 148.465C38.9544 148.465 39.0524 148.459 39.1612 148.448C39.2701 148.437 39.3736 148.427 39.4716 148.416V150C39.3191 150.022 39.1504 150.044 38.9652 150.065C38.7801 150.087 38.6168 150.098 38.4752 150.098ZM45.2619 150.196C44.3799 150.196 43.5959 149.995 42.9099 149.592C42.2348 149.178 41.7067 148.623 41.3256 147.926C40.9444 147.218 40.7539 146.428 40.7539 145.557C40.7539 144.664 40.9444 143.875 41.3256 143.189C41.7176 142.503 42.2402 141.964 42.8936 141.572C43.5469 141.169 44.2873 140.968 45.1149 140.968C45.7791 140.968 46.3726 141.082 46.8952 141.311C47.4179 141.539 47.8589 141.855 48.2182 142.258C48.5776 142.65 48.8498 143.102 49.0349 143.614C49.2309 144.125 49.3289 144.67 49.3289 145.247C49.3289 145.389 49.3235 145.536 49.3126 145.688C49.3017 145.84 49.2799 145.982 49.2472 146.113H42.2076V144.643H48.2019L47.3199 145.312C47.4288 144.779 47.3907 144.305 47.2056 143.891C47.0313 143.467 46.7591 143.135 46.3889 142.895C46.0296 142.645 45.6049 142.519 45.1149 142.519C44.6249 142.519 44.1893 142.645 43.8082 142.895C43.4271 143.135 43.1331 143.483 42.9262 143.94C42.7193 144.387 42.6377 144.931 42.6812 145.574C42.6268 146.173 42.7084 146.695 42.9262 147.142C43.1549 147.588 43.4707 147.937 43.8736 148.187C44.2873 148.437 44.7556 148.563 45.2782 148.563C45.8118 148.563 46.2637 148.443 46.6339 148.203C47.015 147.964 47.3145 147.653 47.5322 147.272L49.0349 148.007C48.8607 148.421 48.5885 148.797 48.2182 149.134C47.8589 149.461 47.4233 149.722 46.9116 149.918C46.4107 150.103 45.8608 150.196 45.2619 150.196ZM51.1302 153.267V141.164H52.8942V142.993L52.6818 142.568C53.0085 142.067 53.4441 141.675 53.9885 141.392C54.533 141.109 55.1536 140.968 55.8505 140.968C56.689 140.968 57.4403 141.169 58.1045 141.572C58.7796 141.975 59.3078 142.525 59.6889 143.222C60.0809 143.919 60.2769 144.703 60.2769 145.574C60.2769 146.445 60.0809 147.229 59.6889 147.926C59.3078 148.623 58.7851 149.178 58.1209 149.592C57.4566 149.995 56.6999 150.196 55.8505 150.196C55.1645 150.196 54.5384 150.054 53.9722 149.771C53.4169 149.488 52.9867 149.08 52.6818 148.546L52.9759 148.203V153.267H51.1302ZM55.6709 148.481C56.1935 148.481 56.6563 148.356 57.0592 148.105C57.4621 147.855 57.7779 147.512 58.0065 147.076C58.2461 146.63 58.3659 146.129 58.3659 145.574C58.3659 145.018 58.2461 144.523 58.0065 144.087C57.7779 143.652 57.4621 143.309 57.0592 143.058C56.6563 142.808 56.1935 142.683 55.6709 142.683C55.1591 142.683 54.6963 142.808 54.2825 143.058C53.8796 143.309 53.5584 143.652 53.3189 144.087C53.0902 144.523 52.9759 145.018 52.9759 145.574C52.9759 146.129 53.0902 146.63 53.3189 147.076C53.5584 147.512 53.8796 147.855 54.2825 148.105C54.6963 148.356 55.1591 148.481 55.6709 148.481ZM64.9274 150V141.164H66.7731V150H64.9274ZM64.9274 139.955V137.832H66.7731V139.955H64.9274ZM68.931 150V141.164H70.695V142.895L70.4827 142.666C70.7005 142.111 71.0489 141.692 71.528 141.409C72.0071 141.115 72.5625 140.968 73.194 140.968C73.8474 140.968 74.4245 141.109 74.9254 141.392C75.4263 141.675 75.8183 142.067 76.1014 142.568C76.3845 143.069 76.526 143.646 76.526 144.3V150H74.6967V144.79C74.6967 144.343 74.615 143.968 74.4517 143.663C74.2884 143.347 74.0543 143.107 73.7494 142.944C73.4554 142.77 73.1178 142.683 72.7367 142.683C72.3556 142.683 72.0126 142.77 71.7077 142.944C71.4137 143.107 71.185 143.347 71.0217 143.663C70.8584 143.978 70.7767 144.354 70.7767 144.79V150H68.931ZM82.3234 150.098C81.3978 150.098 80.6791 149.837 80.1674 149.314C79.6556 148.791 79.3997 148.056 79.3997 147.109V142.83H77.848V141.164H78.093C78.5068 141.164 78.828 141.044 79.0567 140.804C79.2854 140.565 79.3997 140.238 79.3997 139.824V139.138H81.2454V141.164H83.2544V142.83H81.2454V147.027C81.2454 147.332 81.2944 147.594 81.3924 147.811C81.4904 148.018 81.6483 148.182 81.866 148.301C82.0838 148.41 82.3669 148.465 82.7154 148.465C82.8025 148.465 82.9005 148.459 83.0094 148.448C83.1183 148.437 83.2217 148.427 83.3197 148.416V150C83.1673 150.022 82.9985 150.044 82.8134 150.065C82.6283 150.087 82.4649 150.098 82.3234 150.098ZM89.2244 150.196C88.375 150.196 87.5965 149.995 86.8887 149.592C86.1918 149.189 85.6365 148.639 85.2227 147.942C84.8089 147.245 84.602 146.456 84.602 145.574C84.602 144.681 84.8089 143.891 85.2227 143.205C85.6365 142.508 86.1918 141.964 86.8887 141.572C87.5856 141.169 88.3641 140.968 89.2244 140.968C90.0955 140.968 90.874 141.169 91.56 141.572C92.2569 141.964 92.8068 142.508 93.2097 143.205C93.6235 143.891 93.8304 144.681 93.8304 145.574C93.8304 146.467 93.6235 147.261 93.2097 147.958C92.7959 148.655 92.2406 149.205 91.5437 149.608C90.8468 150 90.0737 150.196 89.2244 150.196ZM89.2244 148.481C89.747 148.481 90.2098 148.356 90.6127 148.105C91.0156 147.855 91.3314 147.512 91.56 147.076C91.7996 146.63 91.9194 146.129 91.9194 145.574C91.9194 145.018 91.7996 144.523 91.56 144.087C91.3314 143.652 91.0156 143.309 90.6127 143.058C90.2098 142.808 89.747 142.683 89.2244 142.683C88.7126 142.683 88.2498 142.808 87.836 143.058C87.4331 143.309 87.1119 143.652 86.8723 144.087C86.6437 144.523 86.5293 145.018 86.5293 145.574C86.5293 146.129 86.6437 146.63 86.8723 147.076C87.1119 147.512 87.4331 147.855 87.836 148.105C88.2498 148.356 88.7126 148.481 89.2244 148.481ZM102.309 150.098C101.384 150.098 100.665 149.837 100.153 149.314C99.6417 148.791 99.3858 148.056 99.3858 147.109V142.83H97.8341V141.164H98.0791C98.4929 141.164 98.8141 141.044 99.0428 140.804C99.2714 140.565 99.3858 140.238 99.3858 139.824V139.138H101.231V141.164H103.24V142.83H101.231V147.027C101.231 147.332 101.28 147.594 101.378 147.811C101.476 148.018 101.634 148.182 101.852 148.301C102.07 148.41 102.353 148.465 102.701 148.465C102.789 148.465 102.887 148.459 102.995 148.448C103.104 148.437 103.208 148.427 103.306 148.416V150C103.153 150.022 102.985 150.044 102.799 150.065C102.614 150.087 102.451 150.098 102.309 150.098ZM105.107 150V137.636H106.953V142.895L106.659 142.666C106.876 142.111 107.225 141.692 107.704 141.409C108.183 141.115 108.738 140.968 109.37 140.968C110.023 140.968 110.6 141.109 111.101 141.392C111.602 141.675 111.994 142.067 112.277 142.568C112.56 143.069 112.702 143.641 112.702 144.283V150H110.873V144.79C110.873 144.343 110.785 143.968 110.611 143.663C110.448 143.347 110.219 143.107 109.925 142.944C109.631 142.77 109.294 142.683 108.913 142.683C108.542 142.683 108.205 142.77 107.9 142.944C107.606 143.107 107.372 143.347 107.198 143.663C107.034 143.978 106.953 144.354 106.953 144.79V150H105.107ZM118.826 150.196C117.944 150.196 117.16 149.995 116.474 149.592C115.799 149.178 115.271 148.623 114.89 147.926C114.508 147.218 114.318 146.428 114.318 145.557C114.318 144.664 114.508 143.875 114.89 143.189C115.282 142.503 115.804 141.964 116.458 141.572C117.111 141.169 117.851 140.968 118.679 140.968C119.343 140.968 119.937 141.082 120.459 141.311C120.982 141.539 121.423 141.855 121.782 142.258C122.142 142.65 122.414 143.102 122.599 143.614C122.795 144.125 122.893 144.67 122.893 145.247C122.893 145.389 122.888 145.536 122.877 145.688C122.866 145.84 122.844 145.982 122.811 146.113H115.772V144.643H121.766L120.884 145.312C120.993 144.779 120.955 144.305 120.77 143.891C120.595 143.467 120.323 143.135 119.953 142.895C119.594 142.645 119.169 142.519 118.679 142.519C118.189 142.519 117.753 142.645 117.372 142.895C116.991 143.135 116.697 143.483 116.49 143.94C116.283 144.387 116.202 144.931 116.245 145.574C116.191 146.173 116.272 146.695 116.49 147.142C116.719 147.588 117.035 147.937 117.438 148.187C117.851 148.437 118.32 148.563 118.842 148.563C119.376 148.563 119.828 148.443 120.198 148.203C120.579 147.964 120.879 147.653 121.096 147.272L122.599 148.007C122.425 148.421 122.153 148.797 121.782 149.134C121.423 149.461 120.987 149.722 120.476 149.918C119.975 150.103 119.425 150.196 118.826 150.196ZM28.5207 170.196C27.7585 170.196 27.0507 170.054 26.3973 169.771C25.744 169.477 25.1887 169.08 24.7313 168.579C24.274 168.078 23.9364 167.501 23.7187 166.848L25.352 166.162C25.646 166.913 26.0761 167.49 26.6423 167.893C27.2086 168.296 27.8619 168.497 28.6024 168.497C29.0379 168.497 29.419 168.432 29.7457 168.301C30.0724 168.16 30.3228 167.964 30.497 167.713C30.6821 167.463 30.7747 167.174 30.7747 166.848C30.7747 166.401 30.6495 166.047 30.399 165.786C30.1486 165.525 29.7784 165.318 29.2884 165.165L27.0017 164.447C26.087 164.164 25.3901 163.733 24.911 163.156C24.4319 162.568 24.1923 161.882 24.1923 161.098C24.1923 160.412 24.3611 159.813 24.6987 159.302C25.0362 158.779 25.499 158.371 26.087 158.077C26.6859 157.783 27.3665 157.636 28.1287 157.636C28.8582 157.636 29.5225 157.766 30.1214 158.028C30.7202 158.278 31.232 158.627 31.6567 159.073C32.0923 159.519 32.408 160.037 32.604 160.625L31.0034 161.327C30.7638 160.685 30.3881 160.189 29.8764 159.841C29.3755 159.492 28.7929 159.318 28.1287 159.318C27.7258 159.318 27.3719 159.389 27.067 159.53C26.7621 159.661 26.5226 159.857 26.3483 160.118C26.185 160.369 26.1033 160.663 26.1033 161C26.1033 161.392 26.2286 161.741 26.479 162.046C26.7295 162.351 27.1106 162.579 27.6223 162.732L29.7457 163.401C30.7148 163.695 31.4444 164.12 31.9344 164.675C32.4244 165.22 32.6694 165.9 32.6694 166.717C32.6694 167.392 32.4897 167.991 32.1304 168.514C31.7819 169.036 31.2974 169.45 30.6767 169.755C30.056 170.049 29.3374 170.196 28.5207 170.196ZM38.4752 170.098C37.5497 170.098 36.831 169.837 36.3192 169.314C35.8075 168.791 35.5516 168.056 35.5516 167.109V162.83H33.9999V161.164H34.2449C34.6587 161.164 34.9799 161.044 35.2086 160.804C35.4372 160.565 35.5516 160.238 35.5516 159.824V159.138H37.3972V161.164H39.4063V162.83H37.3972V167.027C37.3972 167.332 37.4462 167.594 37.5442 167.811C37.6422 168.018 37.8001 168.182 38.0179 168.301C38.2357 168.41 38.5188 168.465 38.8672 168.465C38.9544 168.465 39.0524 168.459 39.1612 168.448C39.2701 168.437 39.3736 168.427 39.4716 168.416V170C39.3191 170.022 39.1504 170.044 38.9652 170.065C38.7801 170.087 38.6168 170.098 38.4752 170.098ZM44.4251 170.196C43.7608 170.196 43.1783 170.049 42.6774 169.755C42.1765 169.45 41.7845 169.031 41.5014 168.497C41.2292 167.953 41.0931 167.327 41.0931 166.619V161.164H42.9387V166.456C42.9387 166.859 43.0204 167.212 43.1837 167.517C43.3471 167.822 43.5757 168.062 43.8697 168.236C44.1637 168.399 44.5013 168.481 44.8824 168.481C45.2744 168.481 45.6174 168.394 45.9114 168.22C46.2054 168.045 46.4341 167.8 46.5974 167.485C46.7716 167.169 46.8587 166.799 46.8587 166.374V161.164H48.6881V170H46.9404V168.269L47.1364 168.497C46.9295 169.042 46.5865 169.461 46.1074 169.755C45.6283 170.049 45.0675 170.196 44.4251 170.196ZM54.9264 170.196C54.0771 170.196 53.3149 169.995 52.6397 169.592C51.9755 169.178 51.4474 168.623 51.0554 167.926C50.6743 167.229 50.4837 166.445 50.4837 165.574C50.4837 164.703 50.6797 163.919 51.0717 163.222C51.4637 162.525 51.9918 161.975 52.6561 161.572C53.3203 161.169 54.0716 160.968 54.9101 160.968C55.6179 160.968 56.244 161.109 56.7884 161.392C57.3329 161.675 57.763 162.067 58.0788 162.568L57.8011 162.993V157.636H59.6304V170H57.8828V168.203L58.0951 168.546C57.7902 169.08 57.3546 169.488 56.7884 169.771C56.2222 170.054 55.6015 170.196 54.9264 170.196ZM55.1061 168.481C55.6179 168.481 56.0752 168.356 56.4781 168.105C56.8919 167.855 57.2131 167.512 57.4418 167.076C57.6813 166.63 57.8011 166.129 57.8011 165.574C57.8011 165.018 57.6813 164.523 57.4418 164.087C57.2131 163.652 56.8919 163.309 56.4781 163.058C56.0752 162.808 55.6179 162.683 55.1061 162.683C54.5943 162.683 54.1315 162.808 53.7177 163.058C53.304 163.309 52.9827 163.652 52.7541 164.087C52.5254 164.523 52.4111 165.018 52.4111 165.574C52.4111 166.129 52.5254 166.63 52.7541 167.076C52.9827 167.512 53.2985 167.855 53.7014 168.105C54.1152 168.356 54.5834 168.481 55.1061 168.481ZM65.9338 170.196C65.0518 170.196 64.2678 169.995 63.5818 169.592C62.9067 169.178 62.3786 168.623 61.9975 167.926C61.6164 167.218 61.4258 166.428 61.4258 165.557C61.4258 164.664 61.6164 163.875 61.9975 163.189C62.3895 162.503 62.9122 161.964 63.5655 161.572C64.2188 161.169 64.9593 160.968 65.7868 160.968C66.4511 160.968 67.0445 161.082 67.5672 161.311C68.0898 161.539 68.5309 161.855 68.8902 162.258C69.2495 162.65 69.5217 163.102 69.7069 163.614C69.9029 164.125 70.0009 164.67 70.0009 165.247C70.0009 165.389 69.9954 165.536 69.9845 165.688C69.9736 165.84 69.9519 165.982 69.9192 166.113H62.8795V164.643H68.8739L67.9918 165.312C68.1007 164.779 68.0626 164.305 67.8775 163.891C67.7033 163.467 67.4311 163.135 67.0608 162.895C66.7015 162.645 66.2768 162.519 65.7868 162.519C65.2968 162.519 64.8613 162.645 64.4802 162.895C64.0991 163.135 63.8051 163.483 63.5982 163.94C63.3913 164.387 63.3096 164.931 63.3532 165.574C63.2987 166.173 63.3804 166.695 63.5982 167.142C63.8268 167.588 64.1426 167.937 64.5455 168.187C64.9593 168.437 65.4275 168.563 65.9502 168.563C66.4837 168.563 66.9356 168.443 67.3058 168.203C67.687 167.964 67.9864 167.653 68.2042 167.272L69.7069 168.007C69.5326 168.421 69.2604 168.797 68.8902 169.134C68.5309 169.461 68.0953 169.722 67.5835 169.918C67.0826 170.103 66.5327 170.196 65.9338 170.196ZM71.8021 170V161.164H73.5661V162.895L73.3538 162.666C73.5716 162.111 73.92 161.692 74.3991 161.409C74.8782 161.115 75.4336 160.968 76.0651 160.968C76.7185 160.968 77.2956 161.109 77.7965 161.392C78.2974 161.675 78.6894 162.067 78.9725 162.568C79.2556 163.069 79.3971 163.646 79.3971 164.3V170H77.5678V164.79C77.5678 164.343 77.4861 163.968 77.3228 163.663C77.1595 163.347 76.9254 163.107 76.6205 162.944C76.3265 162.77 75.9889 162.683 75.6078 162.683C75.2267 162.683 74.8837 162.77 74.5788 162.944C74.2848 163.107 74.0561 163.347 73.8928 163.663C73.7295 163.978 73.6478 164.354 73.6478 164.79V170H71.8021ZM85.1945 170.098C84.2689 170.098 83.5502 169.837 83.0385 169.314C82.5267 168.791 82.2708 168.056 82.2708 167.109V162.83H80.7191V161.164H80.9641C81.3779 161.164 81.6991 161.044 81.9278 160.804C82.1565 160.565 82.2708 160.238 82.2708 159.824V159.138H84.1165V161.164H86.1255V162.83H84.1165V167.027C84.1165 167.332 84.1655 167.594 84.2635 167.811C84.3615 168.018 84.5194 168.182 84.7371 168.301C84.9549 168.41 85.238 168.465 85.5865 168.465C85.6736 168.465 85.7716 168.459 85.8805 168.448C85.9894 168.437 86.0928 168.427 86.1908 168.416V170C86.0384 170.022 85.8696 170.044 85.6845 170.065C85.4994 170.087 85.336 170.098 85.1945 170.098ZM87.0936 170L91.373 157.832H93.7576L98.037 170H95.979L95.048 167.272H90.099L89.1516 170H87.0936ZM90.6543 165.557H94.46L92.304 159.187H92.843L90.6543 165.557ZM103.065 170.196C102.216 170.196 101.454 169.995 100.779 169.592C100.114 169.178 99.5862 168.623 99.1942 167.926C98.8131 167.229 98.6226 166.445 98.6226 165.574C98.6226 164.703 98.8186 163.919 99.2106 163.222C99.6026 162.525 100.131 161.975 100.795 161.572C101.459 161.169 102.21 160.968 103.049 160.968C103.757 160.968 104.383 161.109 104.927 161.392C105.472 161.675 105.902 162.067 106.218 162.568L105.94 162.993V157.636H107.769V170H106.022V168.203L106.234 168.546C105.929 169.08 105.493 169.488 104.927 169.771C104.361 170.054 103.74 170.196 103.065 170.196ZM103.245 168.481C103.757 168.481 104.214 168.356 104.617 168.105C105.031 167.855 105.352 167.512 105.581 167.076C105.82 166.63 105.94 166.129 105.94 165.574C105.94 165.018 105.82 164.523 105.581 164.087C105.352 163.652 105.031 163.309 104.617 163.058C104.214 162.808 103.757 162.683 103.245 162.683C102.733 162.683 102.27 162.808 101.857 163.058C101.443 163.309 101.122 163.652 100.893 164.087C100.664 164.523 100.55 165.018 100.55 165.574C100.55 166.129 100.664 166.63 100.893 167.076C101.122 167.512 101.437 167.855 101.84 168.105C102.254 168.356 102.722 168.481 103.245 168.481ZM114.007 170.196C113.158 170.196 112.396 169.995 111.721 169.592C111.056 169.178 110.528 168.623 110.136 167.926C109.755 167.229 109.565 166.445 109.565 165.574C109.565 164.703 109.761 163.919 110.153 163.222C110.545 162.525 111.073 161.975 111.737 161.572C112.401 161.169 113.153 160.968 113.991 160.968C114.699 160.968 115.325 161.109 115.869 161.392C116.414 161.675 116.844 162.067 117.16 162.568L116.882 162.993V157.636H118.711V170H116.964V168.203L117.176 168.546C116.871 169.08 116.436 169.488 115.869 169.771C115.303 170.054 114.682 170.196 114.007 170.196ZM114.187 168.481C114.699 168.481 115.156 168.356 115.559 168.105C115.973 167.855 116.294 167.512 116.523 167.076C116.762 166.63 116.882 166.129 116.882 165.574C116.882 165.018 116.762 164.523 116.523 164.087C116.294 163.652 115.973 163.309 115.559 163.058C115.156 162.808 114.699 162.683 114.187 162.683C113.675 162.683 113.212 162.808 112.799 163.058C112.385 163.309 112.064 163.652 111.835 164.087C111.606 164.523 111.492 165.018 111.492 165.574C111.492 166.129 111.606 166.63 111.835 167.076C112.064 167.512 112.379 167.855 112.782 168.105C113.196 168.356 113.664 168.481 114.187 168.481ZM123.512 170.196C122.913 170.196 122.385 170.093 121.928 169.886C121.481 169.668 121.133 169.374 120.882 169.004C120.632 168.623 120.507 168.176 120.507 167.664C120.507 167.185 120.61 166.755 120.817 166.374C121.035 165.993 121.367 165.672 121.813 165.41C122.26 165.149 122.821 164.964 123.496 164.855L126.566 164.349V165.802L123.855 166.276C123.365 166.363 123.006 166.521 122.777 166.75C122.548 166.967 122.434 167.251 122.434 167.599C122.434 167.937 122.559 168.214 122.81 168.432C123.071 168.639 123.403 168.742 123.806 168.742C124.307 168.742 124.743 168.633 125.113 168.416C125.494 168.198 125.788 167.909 125.995 167.55C126.202 167.18 126.305 166.771 126.305 166.325V164.055C126.305 163.619 126.142 163.265 125.815 162.993C125.499 162.71 125.075 162.568 124.541 162.568C124.051 162.568 123.621 162.699 123.251 162.96C122.891 163.211 122.625 163.537 122.45 163.94L120.915 163.173C121.078 162.737 121.345 162.356 121.715 162.029C122.086 161.692 122.516 161.43 123.006 161.245C123.507 161.06 124.035 160.968 124.59 160.968C125.287 160.968 125.902 161.098 126.436 161.36C126.98 161.621 127.399 161.986 127.693 162.454C127.998 162.911 128.151 163.445 128.151 164.055V170H126.387V168.399L126.762 168.448C126.556 168.808 126.289 169.118 125.962 169.379C125.646 169.641 125.282 169.842 124.868 169.984C124.465 170.125 124.013 170.196 123.512 170.196ZM29.9254 190.196C29.0651 190.196 28.2648 190.038 27.5243 189.722C26.7948 189.407 26.1578 188.971 25.6133 188.416C25.0798 187.849 24.6606 187.185 24.3557 186.423C24.0508 185.661 23.8983 184.822 23.8983 183.908C23.8983 183.004 24.0453 182.171 24.3393 181.409C24.6442 180.636 25.0689 179.971 25.6133 179.416C26.1578 178.85 26.7948 178.414 27.5243 178.109C28.2539 177.794 29.0542 177.636 29.9254 177.636C30.7856 177.636 31.5533 177.783 32.2284 178.077C32.9144 178.371 33.4915 178.757 33.9597 179.236C34.4279 179.705 34.7655 180.216 34.9724 180.772L33.241 181.588C32.9797 180.935 32.5605 180.407 31.9834 180.004C31.4171 179.59 30.7311 179.383 29.9254 179.383C29.1196 179.383 28.4064 179.574 27.7857 179.955C27.165 180.336 26.6805 180.864 26.332 181.539C25.9945 182.214 25.8257 183.004 25.8257 183.908C25.8257 184.811 25.9945 185.606 26.332 186.292C26.6805 186.967 27.165 187.496 27.7857 187.877C28.4064 188.247 29.1196 188.432 29.9254 188.432C30.7311 188.432 31.4171 188.231 31.9834 187.828C32.5605 187.425 32.9797 186.897 33.241 186.243L34.9724 187.06C34.7655 187.604 34.4279 188.116 33.9597 188.595C33.4915 189.074 32.9144 189.461 32.2284 189.755C31.5533 190.049 30.7856 190.196 29.9254 190.196ZM40.8782 190.196C40.0288 190.196 39.2503 189.995 38.5425 189.592C37.8456 189.189 37.2903 188.639 36.8765 187.942C36.4627 187.245 36.2558 186.456 36.2558 185.574C36.2558 184.681 36.4627 183.891 36.8765 183.205C37.2903 182.508 37.8456 181.964 38.5425 181.572C39.2394 181.169 40.0179 180.968 40.8782 180.968C41.7493 180.968 42.5278 181.169 43.2138 181.572C43.9107 181.964 44.4606 182.508 44.8635 183.205C45.2773 183.891 45.4842 184.681 45.4842 185.574C45.4842 186.467 45.2773 187.261 44.8635 187.958C44.4497 188.655 43.8944 189.205 43.1975 189.608C42.5006 190 41.7275 190.196 40.8782 190.196ZM40.8782 188.481C41.4008 188.481 41.8636 188.356 42.2665 188.105C42.6694 187.855 42.9852 187.512 43.2138 187.076C43.4534 186.63 43.5732 186.129 43.5732 185.574C43.5732 185.018 43.4534 184.523 43.2138 184.087C42.9852 183.652 42.6694 183.309 42.2665 183.058C41.8636 182.808 41.4008 182.683 40.8782 182.683C40.3664 182.683 39.9036 182.808 39.4898 183.058C39.0869 183.309 38.7657 183.652 38.5262 184.087C38.2975 184.523 38.1832 185.018 38.1832 185.574C38.1832 186.129 38.2975 186.63 38.5262 187.076C38.7657 187.512 39.0869 187.855 39.4898 188.105C39.9036 188.356 40.3664 188.481 40.8782 188.481ZM47.2861 190V181.164H49.0501V183.075L48.8214 182.781C49.0065 182.182 49.3441 181.73 49.8341 181.425C50.3241 181.12 50.8849 180.968 51.5164 180.968C52.2242 180.968 52.8503 181.158 53.3948 181.539C53.9501 181.91 54.3203 182.405 54.5054 183.026L53.9828 183.075C54.2441 182.367 54.6416 181.839 55.1751 181.49C55.7196 181.142 56.3402 180.968 57.0371 180.968C57.6469 180.968 58.1968 181.109 58.6868 181.392C59.1877 181.675 59.5851 182.067 59.8791 182.568C60.1731 183.069 60.3201 183.641 60.3201 184.283V190H58.4745V184.79C58.4745 184.343 58.3928 183.968 58.2295 183.663C58.077 183.347 57.8592 183.107 57.5761 182.944C57.3039 182.77 56.9827 182.683 56.6125 182.683C56.2422 182.683 55.9156 182.77 55.6324 182.944C55.3493 183.107 55.1261 183.347 54.9628 183.663C54.7994 183.978 54.7178 184.354 54.7178 184.79V190H52.8884V184.79C52.8884 184.343 52.8068 183.968 52.6434 183.663C52.491 183.347 52.2732 183.107 51.9901 182.944C51.7179 182.77 51.3912 182.683 51.0101 182.683C50.6399 182.683 50.3132 182.77 50.0301 182.944C49.747 183.107 49.5238 183.347 49.3604 183.663C49.208 183.978 49.1318 184.354 49.1318 184.79V190H47.2861ZM62.2956 190V181.164H64.0596V183.075L63.8309 182.781C64.016 182.182 64.3536 181.73 64.8436 181.425C65.3336 181.12 65.8944 180.968 66.5259 180.968C67.2337 180.968 67.8598 181.158 68.4043 181.539C68.9596 181.91 69.3298 182.405 69.5149 183.026L68.9923 183.075C69.2536 182.367 69.651 181.839 70.1846 181.49C70.7291 181.142 71.3497 180.968 72.0466 180.968C72.6564 180.968 73.2063 181.109 73.6963 181.392C74.1972 181.675 74.5946 182.067 74.8886 182.568C75.1826 183.069 75.3296 183.641 75.3296 184.283V190H73.4839V184.79C73.4839 184.343 73.4023 183.968 73.2389 183.663C73.0865 183.347 72.8687 183.107 72.5856 182.944C72.3134 182.77 71.9922 182.683 71.6219 182.683C71.2517 182.683 70.9251 182.77 70.6419 182.944C70.3588 183.107 70.1356 183.347 69.9723 183.663C69.8089 183.978 69.7273 184.354 69.7273 184.79V190H67.8979V184.79C67.8979 184.343 67.8163 183.968 67.6529 183.663C67.5005 183.347 67.2827 183.107 66.9996 182.944C66.7274 182.77 66.4007 182.683 66.0196 182.683C65.6494 182.683 65.3227 182.77 65.0396 182.944C64.7565 183.107 64.5333 183.347 64.3699 183.663C64.2175 183.978 64.1413 184.354 64.1413 184.79V190H62.2956ZM80.4574 190.196C79.7932 190.196 79.2106 190.049 78.7097 189.755C78.2089 189.45 77.8168 189.031 77.5337 188.497C77.2615 187.953 77.1254 187.327 77.1254 186.619V181.164H78.9711V186.456C78.9711 186.859 79.0527 187.212 79.2161 187.517C79.3794 187.822 79.6081 188.062 79.9021 188.236C80.1961 188.399 80.5336 188.481 80.9147 188.481C81.3067 188.481 81.6498 188.394 81.9438 188.22C82.2378 188.045 82.4664 187.8 82.6298 187.485C82.804 187.169 82.8911 186.799 82.8911 186.374V181.164H84.7204V190H82.9728V188.269L83.1688 188.497C82.9619 189.042 82.6189 189.461 82.1398 189.755C81.6606 190.049 81.0999 190.196 80.4574 190.196ZM86.8754 190V181.164H88.6394V182.895L88.4271 182.666C88.6449 182.111 88.9933 181.692 89.4724 181.409C89.9515 181.115 90.5069 180.968 91.1384 180.968C91.7918 180.968 92.3689 181.109 92.8698 181.392C93.3707 181.675 93.7627 182.067 94.0458 182.568C94.3289 183.069 94.4704 183.646 94.4704 184.3V190H92.6411V184.79C92.6411 184.343 92.5594 183.968 92.3961 183.663C92.2328 183.347 91.9987 183.107 91.6938 182.944C91.3998 182.77 91.0622 182.683 90.6811 182.683C90.3 182.683 89.957 182.77 89.6521 182.944C89.3581 183.107 89.1294 183.347 88.9661 183.663C88.8028 183.978 88.7211 184.354 88.7211 184.79V190H86.8754ZM96.4458 190V181.164H98.2914V190H96.4458ZM96.4458 179.955V177.832H98.2914V179.955H96.4458ZM104.271 190.098C103.346 190.098 102.627 189.837 102.115 189.314C101.604 188.791 101.348 188.056 101.348 187.109V182.83H99.796V181.164H100.041C100.455 181.164 100.776 181.044 101.005 180.804C101.233 180.565 101.348 180.238 101.348 179.824V179.138H103.193V181.164H105.202V182.83H103.193V187.027C103.193 187.332 103.242 187.594 103.34 187.811C103.438 188.018 103.596 188.182 103.814 188.301C104.032 188.41 104.315 188.465 104.663 188.465C104.75 188.465 104.848 188.459 104.957 188.448C105.066 188.437 105.17 188.427 105.268 188.416V190C105.115 190.022 104.946 190.044 104.761 190.065C104.576 190.087 104.413 190.098 104.271 190.098ZM107.853 193.593C107.635 193.593 107.417 193.572 107.2 193.528C106.993 193.495 106.802 193.441 106.628 193.365V191.78C106.759 191.813 106.916 191.84 107.102 191.862C107.287 191.895 107.466 191.911 107.641 191.911C108.152 191.911 108.528 191.797 108.768 191.568C109.018 191.35 109.241 191.013 109.437 190.555L110.025 189.216L109.993 190.768L106.171 181.164H108.147L110.973 188.53H110.303L113.112 181.164H115.105L111.201 190.964C110.994 191.486 110.733 191.944 110.417 192.336C110.112 192.739 109.748 193.049 109.323 193.267C108.909 193.484 108.419 193.593 107.853 193.593ZM119.501 186.39V184.757H132.404V186.39H119.501Z" fill="#191A15"/>
<rect x="23" y="118" width="33" height="6" rx="3" fill="#796146"/>
</g>
<defs>
<linearGradient id="paint0_linear_1098_4969" x1="224.832" y1="87.3542" x2="221.411" y2="83.9366" gradientUnits="userSpaceOnUse">
<stop stop-color="#B6B2AE"/>
<stop offset="1" stop-color="#BCB8B4"/>
</linearGradient>
<radialGradient id="paint1_radial_1098_4969" cx="0" cy="0" r="1" gradientUnits="userSpaceOnUse" gradientTransform="translate(214.69 78.4123) rotate(180) scale(8.97102 8.97892)">
<stop stop-color="#FFFAF5"/>
<stop offset="0.09" stop-color="#FBF6F1"/>
<stop offset="0.52" stop-color="#F0EBE7"/>
<stop offset="1" stop-color="#EDE8E4"/>
</radialGradient>
<linearGradient id="paint2_linear_1098_4969" x1="162.257" y1="51.1972" x2="158.836" y2="47.7797" gradientUnits="userSpaceOnUse">
<stop stop-color="#B6B2AE"/>
<stop offset="1" stop-color="#BCB8B4"/>
</linearGradient>
<radialGradient id="paint3_radial_1098_4969" cx="0" cy="0" r="1" gradientUnits="userSpaceOnUse" gradientTransform="translate(152.116 42.2548) rotate(180) scale(0.928678 0.929495)">
<stop stop-color="#FFFAF5"/>
<stop offset="0.09" stop-color="#FBF6F1"/>
<stop offset="0.52" stop-color="#F0EBE7"/>
<stop offset="1" stop-color="#EDE8E4"/>
</radialGradient>
<linearGradient id="paint4_linear_1098_4969" x1="145.188" y1="127.787" x2="141.971" y2="133.343" gradientUnits="userSpaceOnUse">
<stop stop-color="#824800"/>
<stop offset="1" stop-color="#CA1D18"/>
</linearGradient>
<linearGradient id="paint5_linear_1098_4969" x1="147.288" y1="129.051" x2="144.033" y2="134.086" gradientUnits="userSpaceOnUse">
<stop stop-color="#C76E4E"/>
<stop offset="1" stop-color="#E4312E"/>
</linearGradient>
<linearGradient id="paint6_linear_1098_4969" x1="163.595" y1="138.179" x2="160.173" y2="144.088" gradientUnits="userSpaceOnUse">
<stop stop-color="#EDE8E4"/>
<stop offset="1" stop-color="#CFCBC7"/>
</linearGradient>
<linearGradient id="paint7_linear_1098_4969" x1="181.054" y1="148.087" x2="178.598" y2="160.839" gradientUnits="userSpaceOnUse">
<stop stop-color="#CFCBC7"/>
<stop offset="1" stop-color="#B6B2AE"/>
</linearGradient>
<linearGradient id="paint8_linear_1098_4969" x1="130.848" y1="126.449" x2="127.631" y2="132.005" gradientUnits="userSpaceOnUse">
<stop stop-color="#BF847E"/>
<stop offset="1" stop-color="#C76E4E"/>
</linearGradient>
<linearGradient id="paint9_linear_1098_4969" x1="132.947" y1="127.713" x2="129.693" y2="132.748" gradientUnits="userSpaceOnUse">
<stop stop-color="#796146"/>
<stop offset="1" stop-color="#544029"/>
</linearGradient>
<linearGradient id="paint10_linear_1098_4969" x1="149.256" y1="136.841" x2="145.852" y2="142.75" gradientUnits="userSpaceOnUse">
<stop stop-color="#EDE8E4"/>
<stop offset="1" stop-color="#CFCBC7"/>
</linearGradient>
<linearGradient id="paint11_linear_1098_4969" x1="166.714" y1="146.749" x2="164.277" y2="159.501" gradientUnits="userSpaceOnUse">
<stop stop-color="#CFCBC7"/>
<stop offset="1" stop-color="#B6B2AE"/>
</linearGradient>
<clipPath id="clip0_1098_4969">
<rect x="0.988281" y="0.875488" width="300.012" height="207.701" rx="15.1351" fill="white"/>
</clipPath>
</defs>
</svg>
