<svg width="301" height="209" viewBox="0 0 301 209" fill="none" xmlns="http://www.w3.org/2000/svg">
<g clip-path="url(#clip0_1098_4915)">
<rect x="0.570312" y="0.875488" width="300.012" height="207.701" rx="15.1351" fill="#FFFEFD"/>
<path d="M140.685 107.056L251.591 165.532L285.824 147.573L174.938 89.0781L140.685 107.056Z" fill="#EAE4DF" stroke="#B5B2A1" stroke-width="0.377652"/>
<path d="M175.1 88.7371L285.934 147.204L268.971 84.4919L158.115 26.0242L175.1 88.7371Z" fill="#D8D0CA" stroke="#B5B2A1" stroke-width="0.377652"/>
<path d="M156.351 25.9846V25.9856L139.362 108.475L250.325 166.999L267.272 84.6184L267.325 84.3547L156.382 25.8293L156.351 25.9846Z" fill="#EFE9E4" stroke="#B5B2A1" stroke-width="0.377652"/>
<path d="M173.662 122.126L246.019 160.283L260.963 88.7642L189.048 50.8267L173.662 122.126Z" fill="#E3C7B1" stroke="#B5B2A1" stroke-width="0.377652"/>
<path d="M145.345 107.193L174.644 122.657L189.588 51.1377L160.289 35.6738L145.345 107.193Z" fill="#A99885" stroke="#B5B2A1" stroke-width="0.377652"/>
<path d="M156.653 25.5449L267.54 84.04L269.431 83.0449L158.522 24.5684L156.653 25.5449Z" fill="#A99885" stroke="#B5B2A1" stroke-width="0.377652"/>
<path d="M267.688 84.3599L267.646 84.5688L267.666 84.5884L267.645 84.6938L250.707 166.931L287.136 147.806L269.675 83.3208L267.688 84.3599ZM269.151 84.1743L269.193 84.3462L269.313 84.314L286.432 147.524L286.472 147.67L286.338 147.741L251.697 165.914L251.344 166.099L251.425 165.708L268.08 84.7827L268.099 84.6938L268.179 84.6528L268.912 84.2739L268.884 84.1743H269.151Z" fill="#D8D0CA" stroke="#B5B2A1" stroke-width="0.377652"/>
<path d="M157.468 31.3542L160.725 33.074L161.351 29.9646L158.112 28.2449L157.468 31.3542Z" fill="#D8D0CA" stroke="#B5B2A1" stroke-width="0.377652"/>
<path d="M164.565 20.1885C163.372 20.1885 162.021 20.7464 160.787 21.6807C159.556 22.6131 158.459 23.9083 157.768 25.3525L157.751 25.3857L157.733 25.4014C156.949 27.0599 156.89 28.5437 157.481 29.5566L157.609 29.7539L157.61 29.7549C158.072 30.41 158.855 30.7919 159.832 30.792C160.274 30.792 160.739 30.6845 161.221 30.5381L161.332 29.9824L161.083 29.8477C160.662 29.9834 160.241 30.0898 159.832 30.0898C159.166 30.0898 158.618 29.8722 158.271 29.3887L158.27 29.3896C157.963 28.9671 157.844 28.3871 157.884 27.7432C157.918 27.1779 158.075 26.5499 158.349 25.9062L158.474 25.6289C159.082 24.3458 160.078 23.1657 161.176 22.3057C162.269 21.449 163.488 20.8906 164.545 20.8906C165.21 20.8906 165.76 21.1075 166.107 21.5908C166.414 22.0133 166.533 22.5934 166.493 23.2373C166.459 23.8026 166.302 24.4305 166.028 25.0742L165.904 25.3516C165.544 26.1435 165.011 26.8825 164.407 27.543L165.088 27.9072C165.636 27.3057 166.114 26.646 166.487 25.9365L166.65 25.6113V25.6104L166.801 25.2783C167.455 23.7419 167.471 22.375 166.916 21.4238L166.788 21.2266L166.787 21.2256C166.325 20.5705 165.542 20.1886 164.565 20.1885Z" fill="#EFEAE5" stroke="#B5B2A1" stroke-width="0.377652"/>
<g style="mix-blend-mode:screen">
<path d="M159.399 23.2583C158.971 23.7564 158.567 24.3332 158.229 24.9858C158.232 24.9868 158.233 24.9888 158.235 24.9897C158.25 24.9962 158.266 25.0003 158.279 25.0034H158.281C158.585 24.3802 158.96 23.7916 159.399 23.2583Z" fill="white"/>
<path d="M159.399 23.2583C158.971 23.7564 158.567 24.3332 158.229 24.9858C158.232 24.9868 158.233 24.9888 158.235 24.9897C158.25 24.9962 158.266 25.0003 158.279 25.0034H158.281C158.585 24.3802 158.96 23.7916 159.399 23.2583Z" stroke="#B5B2A1" stroke-width="0.377652"/>
</g>
<path d="M163.975 34.7766L167.23 36.4963L167.857 33.3684L164.619 31.6487L163.975 34.7766Z" fill="#D8D0CA" stroke="#B5B2A1" stroke-width="0.377652"/>
<path d="M171.071 23.5923C169.878 23.5923 168.527 24.1503 167.293 25.0845C166.062 26.0169 164.964 27.3121 164.273 28.7563L164.257 28.7896L164.239 28.8052C163.454 30.4637 163.396 31.9475 163.987 32.9604L164.115 33.1577L164.116 33.1587C164.578 33.8138 165.361 34.1957 166.338 34.1958C166.78 34.1958 167.245 34.0883 167.727 33.9419L167.838 33.3862L167.589 33.2515C167.168 33.3872 166.747 33.4937 166.338 33.4937C165.672 33.4936 165.124 33.276 164.776 32.7925L164.775 32.7935C164.469 32.371 164.35 31.7909 164.39 31.147C164.424 30.5817 164.581 29.9538 164.854 29.3101L164.979 29.0327C165.588 27.7496 166.584 26.5695 167.682 25.7095C168.775 24.8528 169.994 24.2945 171.051 24.2944C171.716 24.2944 172.266 24.5113 172.613 24.9946C172.919 25.4171 173.038 25.9972 172.999 26.6411C172.964 27.2064 172.808 27.8343 172.534 28.478L172.41 28.7554C172.05 29.5473 171.517 30.2863 170.913 30.9468L171.594 31.311C172.142 30.7095 172.62 30.0498 172.993 29.3403L173.156 29.0151V29.0142L173.307 28.6821C173.961 27.1457 173.977 25.7788 173.422 24.8276L173.294 24.6304L173.293 24.6294C172.831 23.9743 172.048 23.5924 171.071 23.5923Z" fill="#EFEAE5" stroke="#B5B2A1" stroke-width="0.377652"/>
<g style="mix-blend-mode:screen">
<path d="M165.905 26.6624C165.477 27.1605 165.073 27.7373 164.735 28.3899C164.737 28.3909 164.739 28.3929 164.741 28.3938C164.756 28.4002 164.771 28.4044 164.785 28.4075H164.787C165.091 27.7843 165.466 27.1957 165.905 26.6624Z" fill="white"/>
<path d="M165.905 26.6624C165.477 27.1605 165.073 27.7373 164.735 28.3899C164.737 28.3909 164.739 28.3929 164.741 28.3938C164.756 28.4002 164.771 28.4044 164.785 28.4075H164.787C165.091 27.7843 165.466 27.1957 165.905 26.6624Z" stroke="#B5B2A1" stroke-width="0.377652"/>
</g>
<path d="M170.479 38.1802L173.736 39.8999L174.362 36.7905L171.105 35.0708L170.479 38.1802Z" fill="#D8D0CA" stroke="#B5B2A1" stroke-width="0.377652"/>
<path d="M177.577 26.9961C176.383 26.9961 175.033 27.5541 173.799 28.4883C172.568 29.4207 171.47 30.7159 170.779 32.1602L170.763 32.1934L170.745 32.209C169.96 33.8675 169.902 35.3513 170.493 36.3643L170.621 36.5615L170.622 36.5625C171.084 37.2176 171.867 37.5995 172.844 37.5996C173.286 37.5996 173.751 37.4922 174.232 37.3457L174.344 36.79L174.095 36.6553C173.673 36.791 173.253 36.8975 172.844 36.8975C172.178 36.8974 171.63 36.6798 171.282 36.1963L171.281 36.1973C170.975 35.7748 170.856 35.1947 170.896 34.5508C170.93 33.9855 171.087 33.3576 171.36 32.7139L171.485 32.4365C172.093 31.1535 173.09 29.9733 174.188 29.1133C175.281 28.2566 176.5 27.6983 177.557 27.6982C178.222 27.6982 178.772 27.9151 179.119 28.3984C179.425 28.8209 179.544 29.401 179.505 30.0449C179.47 30.6102 179.313 31.2381 179.04 31.8818L178.916 32.1592C178.556 32.9511 178.023 33.6901 177.419 34.3506L178.1 34.7148C178.647 34.1133 179.125 33.4536 179.499 32.7441L179.662 32.4189V32.418L179.812 32.0859C180.466 30.5495 180.483 29.1826 179.928 28.2314L179.8 28.0342L179.799 28.0332C179.337 27.3781 178.554 26.9962 177.577 26.9961Z" fill="#EFEAE5" stroke="#B5B2A1" stroke-width="0.377652"/>
<g style="mix-blend-mode:screen">
<path d="M172.411 30.0842C171.983 30.5823 171.579 31.1592 171.241 31.8118C171.243 31.8127 171.245 31.8147 171.247 31.8157C171.262 31.8221 171.277 31.8263 171.291 31.8293H171.293C171.597 31.2062 171.972 30.6176 172.411 30.0842Z" fill="white"/>
<path d="M172.411 30.0842C171.983 30.5823 171.579 31.1592 171.241 31.8118C171.243 31.8127 171.245 31.8147 171.247 31.8157C171.262 31.8221 171.277 31.8263 171.291 31.8293H171.293C171.597 31.2062 171.972 30.6176 172.411 30.0842Z" stroke="#B5B2A1" stroke-width="0.377652"/>
</g>
<path d="M176.983 41.603L180.24 43.3228L180.867 40.1948L177.611 38.4751L176.983 41.603Z" fill="#D8D0CA" stroke="#B5B2A1" stroke-width="0.377652"/>
<path d="M184.082 30.4182C182.888 30.4182 181.537 30.9762 180.304 31.9104C179.072 32.8428 177.975 34.138 177.284 35.5823L177.268 35.6155L177.25 35.6311C176.465 37.2897 176.407 38.7735 176.998 39.7864L177.126 39.9836L177.127 39.9846C177.589 40.6397 178.372 41.0217 179.349 41.0217C179.791 41.0217 180.256 40.9143 180.737 40.7678L180.849 40.2122L180.6 40.0774C180.178 40.2132 179.758 40.3196 179.349 40.3196C178.683 40.3195 178.135 40.1019 177.787 39.6184L177.786 39.6194C177.48 39.1969 177.361 38.6168 177.4 37.9729C177.435 37.4076 177.592 36.7797 177.865 36.136L177.99 35.8586C178.598 34.5756 179.595 33.3954 180.692 32.5354C181.786 31.6787 183.005 31.1204 184.062 31.1204C184.727 31.1204 185.277 31.3372 185.624 31.8206C185.93 32.2431 186.049 32.8231 186.01 33.467C185.975 34.0324 185.818 34.6602 185.545 35.304L185.421 35.5813C185.06 36.3733 184.528 37.1123 183.924 37.7727L184.604 38.137C185.152 37.5354 185.63 36.8758 186.004 36.1663L186.167 35.8411V35.8401L186.317 35.5081C186.971 33.9716 186.988 32.6047 186.433 31.6536L186.305 31.4563L186.304 31.4553C185.842 30.8002 185.059 30.4183 184.082 30.4182Z" fill="#EFEAE5" stroke="#B5B2A1" stroke-width="0.377652"/>
<g style="mix-blend-mode:screen">
<path d="M178.916 33.4883C178.488 33.9864 178.084 34.5632 177.746 35.2158C177.748 35.2168 177.75 35.2188 177.752 35.2197C177.767 35.2262 177.782 35.2303 177.796 35.2334H177.798C178.102 34.6102 178.476 34.0216 178.916 33.4883Z" fill="white"/>
<path d="M178.916 33.4883C178.488 33.9864 178.084 34.5632 177.746 35.2158C177.748 35.2168 177.75 35.2188 177.752 35.2197C177.767 35.2262 177.782 35.2303 177.796 35.2334H177.798C178.102 34.6102 178.476 34.0216 178.916 33.4883Z" stroke="#B5B2A1" stroke-width="0.377652"/>
</g>
<path d="M183.491 45.0073L186.729 46.7261L187.375 43.6167L184.118 41.897L183.491 45.0073Z" fill="#D8D0CA" stroke="#B5B2A1" stroke-width="0.377652"/>
<path d="M190.567 33.8223C189.374 33.8223 188.023 34.3802 186.789 35.3145C185.558 36.2469 184.461 37.5421 183.77 38.9863L183.753 39.0195L183.735 39.0352C182.951 40.6937 182.892 42.1775 183.483 43.1904L183.611 43.3877L183.612 43.3887C184.074 44.0438 184.857 44.4257 185.834 44.4258C186.276 44.4258 186.741 44.3183 187.223 44.1719L187.334 43.6162L187.085 43.4814C186.664 43.6172 186.243 43.7236 185.834 43.7236C185.168 43.7236 184.62 43.506 184.272 43.0225L184.271 43.0234C183.965 42.6009 183.846 42.0209 183.886 41.377C183.92 40.8117 184.077 40.1837 184.351 39.54L184.476 39.2627C185.084 37.9796 186.08 36.7994 187.178 35.9395C188.271 35.0827 189.49 34.5244 190.547 34.5244C191.212 34.5244 191.762 34.7413 192.109 35.2246C192.416 35.6471 192.534 36.2272 192.495 36.8711C192.461 37.4364 192.304 38.0643 192.03 38.708L191.906 38.9854C191.546 39.7773 191.013 40.5163 190.409 41.1768L191.09 41.541C191.638 40.9395 192.116 40.2798 192.489 39.5703L192.652 39.2451V39.2441L192.803 38.9121C193.457 37.3757 193.473 36.0088 192.918 35.0576L192.79 34.8604L192.789 34.8594C192.327 34.2043 191.544 33.8223 190.567 33.8223Z" fill="#EFEAE5" stroke="#B5B2A1" stroke-width="0.377652"/>
<g style="mix-blend-mode:screen">
<path d="M185.422 36.9104C184.994 37.4085 184.59 37.9853 184.252 38.6379C184.254 38.6389 184.256 38.6409 184.258 38.6418C184.273 38.6483 184.288 38.6524 184.302 38.6555H184.304C184.607 38.0323 184.982 37.4437 185.422 36.9104Z" fill="white"/>
<path d="M185.422 36.9104C184.994 37.4085 184.59 37.9853 184.252 38.6379C184.254 38.6389 184.256 38.6409 184.258 38.6418C184.273 38.6483 184.288 38.6524 184.302 38.6555H184.304C184.607 38.0323 184.982 37.4437 185.422 36.9104Z" stroke="#B5B2A1" stroke-width="0.377652"/>
</g>
<path d="M189.994 48.4287L193.232 50.1484L193.878 47.0205L190.622 45.3008L189.994 48.4287Z" fill="#D8D0CA" stroke="#B5B2A1" stroke-width="0.377652"/>
<path d="M197.072 37.2444C195.878 37.2444 194.528 37.8024 193.294 38.7366C192.063 39.669 190.965 40.9642 190.274 42.4084L190.258 42.4417L190.24 42.4573C189.455 44.1158 189.397 45.5996 189.988 46.6125L190.116 46.8098L190.117 46.8108C190.579 47.4659 191.362 47.8478 192.339 47.8479C192.781 47.8479 193.246 47.7404 193.728 47.594L193.839 47.0383L193.59 46.9036C193.168 47.0393 192.748 47.1458 192.339 47.1458C191.673 47.1457 191.125 46.9281 190.777 46.4446L190.776 46.4456C190.47 46.0231 190.351 45.443 190.391 44.7991C190.425 44.2338 190.582 43.6059 190.855 42.9622L190.98 42.6848C191.589 41.4017 192.585 40.2216 193.683 39.3616C194.776 38.5049 195.995 37.9466 197.052 37.9465C197.717 37.9465 198.267 38.1634 198.614 38.6467C198.92 39.0692 199.039 39.6493 199 40.2932C198.965 40.8585 198.809 41.4864 198.535 42.1301L198.411 42.4075C198.051 43.1994 197.518 43.9384 196.914 44.5989L197.595 44.9631C198.143 44.3616 198.621 43.7019 198.994 42.9924L199.157 42.6672V42.6663L199.308 42.3342C199.962 40.7978 199.978 39.4309 199.423 38.4797L199.295 38.2825L199.294 38.2815C198.832 37.6264 198.049 37.2445 197.072 37.2444Z" fill="#EFEAE5" stroke="#B5B2A1" stroke-width="0.377652"/>
<g style="mix-blend-mode:screen">
<path d="M191.926 40.3147C191.497 40.8128 191.093 41.3896 190.756 42.0422C190.758 42.0432 190.76 42.0452 190.762 42.0461C190.777 42.0526 190.792 42.0567 190.806 42.0598H190.808C191.111 41.4366 191.486 40.848 191.926 40.3147Z" fill="white"/>
<path d="M191.926 40.3147C191.497 40.8128 191.093 41.3896 190.756 42.0422C190.758 42.0432 190.76 42.0452 190.762 42.0461C190.777 42.0526 190.792 42.0567 190.806 42.0598H190.808C191.111 41.4366 191.486 40.848 191.926 40.3147Z" stroke="#B5B2A1" stroke-width="0.377652"/>
</g>
<path d="M196.498 51.8333L199.736 53.552L200.382 50.4426L197.125 48.7229L196.498 51.8333Z" fill="#D8D0CA" stroke="#B5B2A1" stroke-width="0.377652"/>
<path d="M203.576 40.6482C202.382 40.6482 201.032 41.2062 199.798 42.1404C198.567 43.0728 197.469 44.368 196.778 45.8123L196.762 45.8455L196.744 45.8611C195.959 47.5196 195.901 49.0034 196.492 50.0164L196.62 50.2136L196.621 50.2146C197.083 50.8697 197.866 51.2516 198.843 51.2517C199.285 51.2517 199.75 51.1443 200.231 50.9978L200.343 50.4421L200.094 50.3074C199.672 50.4431 199.252 50.5496 198.843 50.5496C198.177 50.5495 197.629 50.3319 197.281 49.8484L197.28 49.8494C196.974 49.4269 196.855 48.8468 196.895 48.2029C196.929 47.6376 197.086 47.0097 197.359 46.366L197.484 46.0886C198.092 44.8056 199.089 43.6254 200.187 42.7654C201.28 41.9087 202.499 41.3504 203.556 41.3503C204.221 41.3503 204.771 41.5672 205.118 42.0505C205.424 42.473 205.543 43.0531 205.504 43.697C205.469 44.2623 205.312 44.8902 205.039 45.5339L204.915 45.8113C204.555 46.6032 204.022 47.3422 203.418 48.0027L204.099 48.3669C204.646 47.7654 205.125 47.1057 205.498 46.3962L205.661 46.071V46.0701L205.812 45.738C206.466 44.2016 206.482 42.8347 205.927 41.8835L205.799 41.6863L205.798 41.6853C205.336 41.0302 204.553 40.6483 203.576 40.6482Z" fill="#EFEAE5" stroke="#B5B2A1" stroke-width="0.377652"/>
<g style="mix-blend-mode:screen">
<path d="M198.43 43.7185C198.001 44.2166 197.597 44.7934 197.26 45.446C197.262 45.447 197.263 45.449 197.266 45.45C197.281 45.4564 197.296 45.4605 197.31 45.4636H197.312C197.615 44.8404 197.99 44.2518 198.43 43.7185Z" fill="white"/>
<path d="M198.43 43.7185C198.001 44.2166 197.597 44.7934 197.26 45.446C197.262 45.447 197.263 45.449 197.266 45.45C197.281 45.4564 197.296 45.4605 197.31 45.4636H197.312C197.615 44.8404 197.99 44.2518 198.43 43.7185Z" stroke="#B5B2A1" stroke-width="0.377652"/>
</g>
<path d="M202.984 55.2549L206.242 56.9746L206.888 53.8467L203.63 52.127L202.984 55.2549Z" fill="#D8D0CA" stroke="#B5B2A1" stroke-width="0.377652"/>
<path d="M210.082 44.0706C208.888 44.0706 207.537 44.6285 206.304 45.5627C205.072 46.4951 203.975 47.7904 203.284 49.2346L203.268 49.2678L203.25 49.2834C202.465 50.942 202.407 52.4258 202.998 53.4387L203.126 53.636L203.127 53.637C203.589 54.2921 204.372 54.674 205.349 54.6741C205.791 54.6741 206.256 54.5666 206.737 54.4202L206.849 53.8645L206.6 53.7297C206.178 53.8655 205.758 53.9719 205.349 53.9719C204.683 53.9719 204.135 53.7543 203.787 53.2708L203.786 53.2717C203.48 52.8492 203.361 52.2692 203.4 51.6252C203.435 51.06 203.592 50.432 203.865 49.7883L203.99 49.511C204.598 48.2279 205.595 47.0477 206.692 46.1877C207.786 45.331 209.005 44.7727 210.062 44.7727C210.727 44.7727 211.277 44.9895 211.624 45.4729C211.93 45.8954 212.049 46.4754 212.01 47.1194C211.975 47.6847 211.818 48.3126 211.545 48.9563L211.421 49.2336C211.06 50.0256 210.528 50.7646 209.924 51.425L210.604 51.7893C211.152 51.1877 211.63 50.5281 212.004 49.8186L212.167 49.4934V49.4924L212.317 49.1604C212.971 47.624 212.988 46.2571 212.433 45.3059L212.305 45.1086L212.304 45.1077C211.842 44.4526 211.059 44.0706 210.082 44.0706Z" fill="#EFEAE5" stroke="#B5B2A1" stroke-width="0.377652"/>
<g style="mix-blend-mode:screen">
<path d="M204.936 47.1409C204.507 47.639 204.103 48.2158 203.766 48.8684C203.768 48.8694 203.769 48.8714 203.771 48.8723C203.786 48.8787 203.802 48.8829 203.815 48.886H203.817C204.121 48.2628 204.496 47.6742 204.936 47.1409Z" fill="white"/>
<path d="M204.936 47.1409C204.507 47.639 204.103 48.2158 203.766 48.8684C203.768 48.8694 203.769 48.8714 203.771 48.8723C203.786 48.8787 203.802 48.8829 203.815 48.886H203.817C204.121 48.2628 204.496 47.6742 204.936 47.1409Z" stroke="#B5B2A1" stroke-width="0.377652"/>
</g>
<path d="M209.491 58.6592L212.749 60.3789L213.395 57.251L210.137 55.5312L209.491 58.6592Z" fill="#D8D0CA" stroke="#B5B2A1" stroke-width="0.377652"/>
<path d="M216.588 47.4744C215.394 47.4744 214.043 48.0323 212.81 48.9666C211.578 49.899 210.481 51.1942 209.79 52.6384L209.773 52.6716L209.756 52.6873C208.971 54.3458 208.912 55.8296 209.504 56.8425L209.632 57.0398L209.633 57.0408C210.095 57.6959 210.878 58.0778 211.854 58.0779C212.296 58.0779 212.762 57.9704 213.243 57.824L213.354 57.2683L213.105 57.1335C212.684 57.2693 212.264 57.3757 211.854 57.3757C211.189 57.3757 210.64 57.1581 210.293 56.6746L210.292 56.6755C209.986 56.253 209.867 55.673 209.906 55.0291C209.941 54.4638 210.098 53.8358 210.371 53.1921L210.496 52.9148C211.104 51.6317 212.101 50.4515 213.198 49.5916C214.292 48.7348 215.511 48.1765 216.567 48.1765C217.233 48.1765 217.782 48.3934 218.13 48.8767C218.436 49.2992 218.555 49.8793 218.516 50.5232C218.481 51.0885 218.324 51.7164 218.051 52.3601L217.927 52.6375C217.566 53.4294 217.034 54.1684 216.43 54.8289L217.11 55.1931C217.658 54.5916 218.136 53.9319 218.51 53.2224L218.673 52.8972V52.8962L218.823 52.5642C219.477 51.0278 219.494 49.6609 218.938 48.7097L218.811 48.5125L218.81 48.5115C218.347 47.8564 217.565 47.4744 216.588 47.4744Z" fill="#EFEAE5" stroke="#B5B2A1" stroke-width="0.377652"/>
<g style="mix-blend-mode:screen">
<path d="M211.442 50.5447C211.014 51.0428 210.61 51.6196 210.272 52.2722C210.275 52.2732 210.276 52.2752 210.278 52.2761C210.293 52.2826 210.309 52.2867 210.322 52.2898H210.324C210.628 51.6666 211.003 51.078 211.442 50.5447Z" fill="white"/>
<path d="M211.442 50.5447C211.014 51.0428 210.61 51.6196 210.272 52.2722C210.275 52.2732 210.276 52.2752 210.278 52.2761C210.293 52.2826 210.309 52.2867 210.322 52.2898H210.324C210.628 51.6666 211.003 51.078 211.442 50.5447Z" stroke="#B5B2A1" stroke-width="0.377652"/>
</g>
<path d="M215.995 62.0813L219.253 63.801L219.898 60.6731L216.641 58.9534L215.995 62.0813Z" fill="#D8D0CA" stroke="#B5B2A1" stroke-width="0.377652"/>
<path d="M223.092 50.897C221.898 50.897 220.547 51.4549 219.313 52.3892C218.082 53.3216 216.985 54.6168 216.294 56.061L216.277 56.0942L216.26 56.1099C215.475 57.7684 215.416 59.2522 216.008 60.2651L216.136 60.4624L216.137 60.4634C216.599 61.1185 217.382 61.5004 218.358 61.5005C218.8 61.5005 219.266 61.393 219.747 61.2466L219.858 60.6909L219.609 60.5562C219.188 60.6919 218.768 60.7983 218.358 60.7983C217.693 60.7983 217.144 60.5807 216.797 60.0972L216.796 60.0981C216.49 59.6756 216.371 59.0956 216.41 58.4517C216.445 57.8864 216.602 57.2584 216.875 56.6147L217 56.3374C217.608 55.0543 218.604 53.8741 219.702 53.0142C220.796 52.1575 222.015 51.5991 223.071 51.5991C223.737 51.5991 224.286 51.816 224.634 52.2993C224.94 52.7218 225.059 53.3019 225.02 53.9458C224.985 54.5111 224.828 55.139 224.555 55.7827L224.431 56.0601C224.07 56.852 223.538 57.591 222.934 58.2515L223.614 58.6157C224.162 58.0142 224.64 57.3545 225.014 56.645L225.177 56.3198V56.3188L225.327 55.9868C225.981 54.4504 225.998 53.0835 225.442 52.1323L225.314 51.9351L225.313 51.9341C224.851 51.279 224.068 50.8971 223.092 50.897Z" fill="#EFEAE5" stroke="#B5B2A1" stroke-width="0.377652"/>
<g style="mix-blend-mode:screen">
<path d="M217.946 53.9673C217.518 54.4654 217.114 55.0422 216.776 55.6948C216.778 55.6958 216.78 55.6978 216.782 55.6987C216.797 55.7052 216.813 55.7093 216.826 55.7124H216.828C217.132 55.0892 217.507 54.5006 217.946 53.9673Z" fill="white"/>
<path d="M217.946 53.9673C217.518 54.4654 217.114 55.0422 216.776 55.6948C216.778 55.6958 216.78 55.6978 216.782 55.6987C216.797 55.7052 216.813 55.7093 216.826 55.7124H216.828C217.132 55.0892 217.507 54.5006 217.946 53.9673Z" stroke="#B5B2A1" stroke-width="0.377652"/>
</g>
<path d="M222.501 65.4851L225.759 67.2048L226.404 64.0769L223.146 62.3572L222.501 65.4851Z" fill="#D8D0CA" stroke="#B5B2A1" stroke-width="0.377652"/>
<path d="M229.597 54.3008C228.403 54.3008 227.052 54.8587 225.818 55.793C224.587 56.7254 223.49 58.0206 222.799 59.4648L222.782 59.498L222.765 59.5137C221.98 61.1722 221.921 62.656 222.513 63.6689L222.641 63.8662L222.642 63.8672C223.104 64.5223 223.887 64.9042 224.863 64.9043C225.305 64.9043 225.771 64.7968 226.252 64.6504L226.363 64.0947L226.114 63.96C225.693 64.0957 225.273 64.2021 224.863 64.2021C224.198 64.2021 223.649 63.9845 223.302 63.501L223.301 63.502C222.995 63.0795 222.876 62.4994 222.915 61.8555C222.95 61.2902 223.107 60.6623 223.38 60.0186L223.505 59.7412C224.113 58.4581 225.109 57.278 226.207 56.418C227.301 55.5613 228.52 55.003 229.576 55.0029C230.242 55.0029 230.791 55.2198 231.139 55.7031C231.445 56.1256 231.564 56.7057 231.524 57.3496C231.49 57.9149 231.333 58.5428 231.06 59.1865L230.936 59.4639C230.575 60.2558 230.043 60.9948 229.438 61.6553L230.119 62.0195C230.667 61.418 231.145 60.7583 231.519 60.0488L231.682 59.7236V59.7227L231.832 59.3906C232.486 57.8542 232.503 56.4873 231.947 55.5361L231.819 55.3389L231.818 55.3379C231.356 54.6828 230.573 54.3009 229.597 54.3008Z" fill="#EFEAE5" stroke="#B5B2A1" stroke-width="0.377652"/>
<g style="mix-blend-mode:screen">
<path d="M224.45 57.3711C224.022 57.8692 223.618 58.446 223.28 59.0986C223.282 59.0996 223.284 59.1016 223.286 59.1025C223.301 59.109 223.316 59.1131 223.33 59.1162H223.332C223.636 58.493 224.011 57.9044 224.45 57.3711Z" fill="white"/>
<path d="M224.45 57.3711C224.022 57.8692 223.618 58.446 223.28 59.0986C223.282 59.0996 223.284 59.1016 223.286 59.1025C223.301 59.109 223.316 59.1131 223.33 59.1162H223.332C223.636 58.493 224.011 57.9044 224.45 57.3711Z" stroke="#B5B2A1" stroke-width="0.377652"/>
</g>
<path d="M229.005 68.9075L232.263 70.6272L232.908 67.4993L229.65 65.7795L229.005 68.9075Z" fill="#D8D0CA" stroke="#B5B2A1" stroke-width="0.377652"/>
<path d="M236.103 57.7231C234.909 57.7231 233.558 58.2811 232.324 59.2153C231.093 60.1477 229.996 61.443 229.305 62.8872L229.288 62.9204L229.271 62.936C228.486 64.5946 228.427 66.0784 229.019 67.0913L229.146 67.2886L229.147 67.2896C229.61 67.9446 230.392 68.3266 231.369 68.3267C231.811 68.3267 232.276 68.2192 232.758 68.0728L232.869 67.5171L232.62 67.3823C232.199 67.5181 231.779 67.6245 231.369 67.6245C230.704 67.6245 230.155 67.4068 229.808 66.9233L229.807 66.9243C229.5 66.5018 229.382 65.9218 229.421 65.2778C229.455 64.7126 229.612 64.0846 229.886 63.4409L230.011 63.1636C230.619 61.8805 231.615 60.7003 232.713 59.8403C233.806 58.9836 235.025 58.4253 236.082 58.4253C236.748 58.4253 237.297 58.6421 237.645 59.1255C237.951 59.548 238.07 60.128 238.03 60.772C237.996 61.3373 237.839 61.9652 237.565 62.6089L237.441 62.8862C237.081 63.6782 236.549 64.4172 235.944 65.0776L236.625 65.4419C237.173 64.8403 237.651 64.1807 238.024 63.4712L238.188 63.146V63.145L238.338 62.813C238.992 61.2766 239.009 59.9097 238.453 58.9585L238.325 58.7612L238.324 58.7603C237.862 58.1052 237.079 57.7232 236.103 57.7231Z" fill="#EFEAE5" stroke="#B5B2A1" stroke-width="0.377652"/>
<g style="mix-blend-mode:screen">
<path d="M230.956 60.793C230.528 61.2911 230.124 61.8679 229.786 62.5205C229.788 62.5215 229.79 62.5235 229.792 62.5244C229.807 62.5308 229.822 62.535 229.836 62.5381H229.838C230.142 61.9149 230.517 61.3263 230.956 60.793Z" fill="white"/>
<path d="M230.956 60.793C230.528 61.2911 230.124 61.8679 229.786 62.5205C229.788 62.5215 229.79 62.5235 229.792 62.5244C229.807 62.5308 229.822 62.535 229.836 62.5381H229.838C230.142 61.9149 230.517 61.3263 230.956 60.793Z" stroke="#B5B2A1" stroke-width="0.377652"/>
</g>
<path d="M235.509 72.3115L238.767 74.0312L239.412 70.9033L236.154 69.1836L235.509 72.3115Z" fill="#D8D0CA" stroke="#B5B2A1" stroke-width="0.377652"/>
<path d="M242.605 61.1272C241.412 61.1272 240.061 61.6852 238.827 62.6194C237.596 63.5518 236.499 64.847 235.808 66.2913L235.791 66.3245L235.773 66.3401C234.989 67.9986 234.93 69.4824 235.521 70.4954L235.649 70.6926L235.65 70.6936C236.113 71.3487 236.895 71.7306 237.872 71.7307C238.314 71.7307 238.779 71.6233 239.261 71.4768L239.372 70.9211L239.123 70.7864C238.702 70.9221 238.281 71.0286 237.872 71.0286C237.207 71.0285 236.658 70.8109 236.311 70.3274L236.31 70.3284C236.003 69.9059 235.884 69.3258 235.924 68.6819C235.958 68.1166 236.115 67.4887 236.389 66.845L236.514 66.5676C237.122 65.2846 238.118 64.1044 239.216 63.2444C240.309 62.3877 241.528 61.8294 242.585 61.8293C243.25 61.8293 243.8 62.0462 244.147 62.5295C244.454 62.952 244.573 63.5321 244.533 64.176C244.499 64.7413 244.342 65.3692 244.068 66.0129L243.944 66.2903C243.584 67.0823 243.051 67.8212 242.447 68.4817L243.128 68.8459C243.676 68.2444 244.154 67.5847 244.527 66.8752L244.69 66.55V66.5491L244.841 66.217C245.495 64.6806 245.511 63.3137 244.956 62.3625L244.828 62.1653L244.827 62.1643C244.365 61.5092 243.582 61.1273 242.605 61.1272Z" fill="#EFEAE5" stroke="#B5B2A1" stroke-width="0.377652"/>
<g style="mix-blend-mode:screen">
<path d="M237.459 64.1973C237.031 64.6954 236.627 65.2722 236.289 65.9248C236.291 65.9258 236.293 65.9278 236.295 65.9287C236.31 65.9351 236.325 65.9393 236.339 65.9424H236.341C236.645 65.3192 237.019 64.7306 237.459 64.1973Z" fill="white"/>
<path d="M237.459 64.1973C237.031 64.6954 236.627 65.2722 236.289 65.9248C236.291 65.9258 236.293 65.9278 236.295 65.9287C236.31 65.9351 236.325 65.9393 236.339 65.9424H236.341C236.645 65.3192 237.019 64.7306 237.459 64.1973Z" stroke="#B5B2A1" stroke-width="0.377652"/>
</g>
<path d="M242.014 75.7334L245.271 77.4531L245.917 74.3252L242.659 72.6055L242.014 75.7334Z" fill="#D8D0CA" stroke="#B5B2A1" stroke-width="0.377652"/>
<path d="M249.11 64.5491C247.917 64.5491 246.566 65.107 245.332 66.0413C244.101 66.9737 243.004 68.2689 242.312 69.7131L242.296 69.7463L242.278 69.762C241.493 71.4205 241.435 72.9043 242.026 73.9172L242.154 74.1145L242.155 74.1155C242.617 74.7706 243.4 75.1525 244.377 75.1526C244.819 75.1526 245.284 75.0451 245.766 74.8987L245.877 74.343L245.628 74.2083C245.207 74.344 244.786 74.4504 244.377 74.4504C243.711 74.4504 243.163 74.2328 242.815 73.7493L242.814 73.7502C242.508 73.3277 242.389 72.7477 242.429 72.1038C242.463 71.5385 242.62 70.9105 242.894 70.2668L243.019 69.9895C243.627 68.7064 244.623 67.5262 245.721 66.6663C246.814 65.8096 248.033 65.2512 249.09 65.2512C249.755 65.2512 250.305 65.4681 250.652 65.9514C250.959 66.3739 251.077 66.954 251.038 67.5979C251.003 68.1632 250.847 68.7911 250.573 69.4348L250.449 69.7122C250.089 70.5041 249.556 71.2431 248.952 71.9036L249.633 72.2678C250.181 71.6663 250.659 71.0066 251.032 70.2971L251.195 69.9719V69.9709L251.346 69.6389C252 68.1025 252.016 66.7356 251.461 65.7844L251.333 65.5872L251.332 65.5862C250.87 64.9311 250.087 64.5492 249.11 64.5491Z" fill="#EFEAE5" stroke="#B5B2A1" stroke-width="0.377652"/>
<g style="mix-blend-mode:screen">
<path d="M243.964 67.6191C243.536 68.1172 243.132 68.6941 242.794 69.3467C242.796 69.3476 242.798 69.3497 242.8 69.3506C242.815 69.357 242.83 69.3612 242.844 69.3643H242.846C243.149 68.7411 243.524 68.1525 243.964 67.6191Z" fill="white"/>
<path d="M243.964 67.6191C243.536 68.1172 243.132 68.6941 242.794 69.3467C242.796 69.3476 242.798 69.3497 242.8 69.3506C242.815 69.357 242.83 69.3612 242.844 69.3643H242.846C243.149 68.7411 243.524 68.1525 243.964 67.6191Z" stroke="#B5B2A1" stroke-width="0.377652"/>
</g>
<path d="M248.521 79.1372L251.778 80.8569L252.424 77.729L249.166 76.0093L248.521 79.1372Z" fill="#D8D0CA" stroke="#B5B2A1" stroke-width="0.377652"/>
<path d="M255.616 67.9531C254.422 67.9531 253.072 68.5111 251.838 69.4453C250.607 70.3777 249.509 71.673 248.818 73.1172L248.802 73.1504L248.784 73.166C247.999 74.8246 247.941 76.3084 248.532 77.3213L248.66 77.5186L248.661 77.5195C249.123 78.1746 249.906 78.5566 250.883 78.5566C251.325 78.5566 251.79 78.4492 252.271 78.3027L252.383 77.7471L252.134 77.6123C251.712 77.7481 251.292 77.8545 250.883 77.8545C250.217 77.8544 249.669 77.6368 249.321 77.1533L249.32 77.1543C249.014 76.7318 248.895 76.1518 248.935 75.5078C248.969 74.9425 249.126 74.3146 249.399 73.6709L249.524 73.3936C250.133 72.1105 251.129 70.9303 252.227 70.0703C253.32 69.2136 254.539 68.6553 255.596 68.6553C256.261 68.6553 256.811 68.8721 257.158 69.3555C257.464 69.778 257.583 70.358 257.544 71.002C257.509 71.5673 257.352 72.1951 257.079 72.8389L256.955 73.1162C256.595 73.9082 256.062 74.6472 255.458 75.3076L256.139 75.6719C256.686 75.0703 257.165 74.4107 257.538 73.7012L257.701 73.376V73.375L257.852 73.043C258.506 71.5066 258.522 70.1396 257.967 69.1885L257.839 68.9912L257.838 68.9902C257.376 68.3351 256.593 67.9532 255.616 67.9531Z" fill="#EFEAE5" stroke="#B5B2A1" stroke-width="0.377652"/>
<g style="mix-blend-mode:screen">
<path d="M250.471 71.0234C250.042 71.5215 249.638 72.0984 249.301 72.751C249.303 72.7519 249.304 72.754 249.307 72.7549C249.322 72.7613 249.337 72.7655 249.351 72.7686H249.353C249.656 72.1454 250.031 71.5568 250.471 71.0234Z" fill="white"/>
<path d="M250.471 71.0234C250.042 71.5215 249.638 72.0984 249.301 72.751C249.303 72.7519 249.304 72.754 249.307 72.7549C249.322 72.7613 249.337 72.7655 249.351 72.7686H249.353C249.656 72.1454 250.031 71.5568 250.471 71.0234Z" stroke="#B5B2A1" stroke-width="0.377652"/>
</g>
<path d="M255.025 82.541L258.283 84.2607L258.929 81.1514L255.671 79.4316L255.025 82.541Z" fill="#D8D0CA" stroke="#B5B2A1" stroke-width="0.377652"/>
<path d="M262.123 71.3752C260.929 71.3752 259.578 71.9332 258.345 72.8674C257.113 73.7998 256.016 75.0951 255.325 76.5393L255.309 76.5725L255.291 76.5881C254.506 78.2467 254.448 79.7305 255.039 80.7434L255.167 80.9407L255.168 80.9417C255.63 81.5967 256.413 81.9787 257.39 81.9788C257.832 81.9788 258.297 81.8713 258.778 81.7249L258.89 81.1692L258.641 81.0344C258.219 81.1702 257.799 81.2766 257.39 81.2766C256.724 81.2766 256.176 81.0589 255.828 80.5754L255.827 80.5764C255.521 80.1539 255.402 79.5739 255.441 78.9299C255.476 78.3646 255.633 77.7367 255.906 77.093L256.031 76.8157C256.639 75.5326 257.636 74.3524 258.733 73.4924C259.827 72.6357 261.046 72.0774 262.103 72.0774C262.768 72.0774 263.318 72.2942 263.665 72.7776C263.971 73.2001 264.09 73.7801 264.051 74.4241C264.016 74.9894 263.859 75.6173 263.586 76.261L263.462 76.5383C263.101 77.3303 262.569 78.0693 261.965 78.7297L262.646 79.094C263.193 78.4924 263.671 77.8328 264.045 77.1233L264.208 76.7981V76.7971L264.358 76.4651C265.012 74.9287 265.029 73.5618 264.474 72.6106L264.346 72.4133L264.345 72.4124C263.883 71.7573 263.1 71.3753 262.123 71.3752Z" fill="#EFEAE5" stroke="#B5B2A1" stroke-width="0.377652"/>
<g style="mix-blend-mode:screen">
<path d="M256.977 74.4456C256.548 74.9437 256.144 75.5205 255.807 76.1731C255.809 76.1741 255.81 76.1761 255.812 76.177C255.827 76.1834 255.843 76.1876 255.856 76.1907H255.858C256.162 75.5675 256.537 74.9789 256.977 74.4456Z" fill="white"/>
<path d="M256.977 74.4456C256.548 74.9437 256.144 75.5205 255.807 76.1731C255.809 76.1741 255.81 76.1761 255.812 76.177C255.827 76.1834 255.843 76.1876 255.856 76.1907H255.858C256.162 75.5675 256.537 74.9789 256.977 74.4456Z" stroke="#B5B2A1" stroke-width="0.377652"/>
</g>
<path d="M261.53 85.9639L264.788 87.6836L265.434 84.5557L262.176 82.8359L261.53 85.9639Z" fill="#D8D0CA" stroke="#B5B2A1" stroke-width="0.377652"/>
<path d="M268.627 74.7793C267.433 74.7793 266.082 75.3373 264.849 76.2715C263.617 77.2039 262.52 78.4991 261.829 79.9434L261.812 79.9766L261.795 79.9922C261.01 81.6507 260.951 83.1345 261.543 84.1475L261.671 84.3447L261.672 84.3457C262.134 85.0008 262.917 85.3827 263.894 85.3828C264.335 85.3828 264.801 85.2754 265.282 85.1289L265.394 84.5732L265.145 84.4385C264.723 84.5742 264.303 84.6807 263.894 84.6807C263.228 84.6806 262.679 84.463 262.332 83.9795L262.331 83.9805C262.025 83.558 261.906 82.9779 261.945 82.334C261.98 81.7687 262.137 81.1408 262.41 80.4971L262.535 80.2197C263.143 78.9367 264.14 77.7565 265.237 76.8965C266.331 76.0398 267.55 75.4815 268.606 75.4814C269.272 75.4814 269.821 75.6983 270.169 76.1816C270.475 76.6041 270.594 77.1842 270.555 77.8281C270.52 78.3934 270.363 79.0213 270.09 79.665L269.966 79.9424C269.605 80.7344 269.073 81.4733 268.469 82.1338L269.149 82.498C269.697 81.8965 270.175 81.2368 270.549 80.5273L270.712 80.2021V80.2012C271.511 78.5303 271.573 77.0338 270.978 76.0146L270.85 75.8174L270.849 75.8164C270.387 75.1613 269.604 74.7794 268.627 74.7793Z" fill="#EFEAE5" stroke="#B5B2A1" stroke-width="0.377652"/>
<g style="mix-blend-mode:screen">
<path d="M263.48 77.8496C263.052 78.3477 262.648 78.9245 262.311 79.5771C262.313 79.5781 262.314 79.5801 262.316 79.5811C262.331 79.5875 262.347 79.5916 262.36 79.5947H262.362C262.666 78.9715 263.041 78.3829 263.48 77.8496Z" fill="white"/>
<path d="M263.48 77.8496C263.052 78.3477 262.648 78.9245 262.311 79.5771C262.313 79.5781 262.314 79.5801 262.316 79.5811C262.331 79.5875 262.347 79.5916 262.36 79.5947H262.362C262.666 78.9715 263.041 78.3829 263.48 77.8496Z" stroke="#B5B2A1" stroke-width="0.377652"/>
</g>
<path opacity="0.6" d="M246.807 83.9614C246.76 83.9361 246.703 83.935 246.655 83.9546C246.631 83.9645 246.613 83.9778 246.601 83.9917L246.578 84.0347L246.577 84.0376L244.523 93.3716C244.486 93.5718 244.56 93.7825 244.742 93.9155L244.828 93.9673L244.83 93.9692L255.701 99.7144L257.667 90.1489C257.711 89.9065 257.596 89.6725 257.359 89.5435L257.36 89.5425L246.809 83.9624L246.807 83.9614Z" fill="#889A9E" stroke="#B5B2A1" stroke-width="0.377652"/>
<path opacity="0.8" d="M233.011 76.7146C232.964 76.6893 232.908 76.6882 232.859 76.7078C232.835 76.7177 232.817 76.7309 232.805 76.7449L232.782 76.7878L232.781 76.7908L230.728 86.1248C230.687 86.364 230.801 86.5944 231.034 86.7224L241.905 92.4675L243.871 82.9021C243.916 82.6597 243.8 82.4257 243.563 82.2966L243.564 82.2957L233.013 76.7156L233.011 76.7146Z" fill="#BD7A71" stroke="#B5B2A1" stroke-width="0.377652"/>
<path opacity="0.6" d="M219.193 69.4675C219.147 69.4422 219.09 69.4411 219.042 69.4607C219.018 69.4706 219 69.4839 218.987 69.4978L218.965 69.5408L218.964 69.5437L216.91 78.8591L216.909 78.863C216.853 79.0929 216.976 79.343 217.217 79.4753L228.088 85.2205L230.054 75.655C230.098 75.4126 229.983 75.1786 229.746 75.0496L229.747 75.0486L219.195 69.4685L219.193 69.4675Z" fill="#889A9E" stroke="#B5B2A1" stroke-width="0.377652"/>
<path d="M205.486 62.2795C205.335 62.2057 205.182 62.2702 205.127 62.3772L205.109 62.425L203.096 71.6301C203.055 71.8695 203.169 72.0996 203.402 72.2278L214.273 77.9729L216.239 68.4075C216.284 68.1652 216.168 67.931 215.932 67.802L215.933 67.801L205.487 62.2786L205.486 62.2795Z" fill="#A99885" stroke="#B5B2A1" stroke-width="0.377652"/>
<path d="M191.691 55.0325C191.54 54.9587 191.387 55.0231 191.332 55.1301L191.314 55.178L189.301 64.3831C189.26 64.6224 189.374 64.8526 189.607 64.9807L200.479 70.7258L202.444 61.1604C202.489 60.9181 202.373 60.684 202.137 60.5549L202.138 60.554L191.692 55.0315L191.691 55.0325Z" fill="#A99885" stroke="#B5B2A1" stroke-width="0.377652"/>
<path opacity="0.6" d="M244.208 96.5344C244.162 96.5091 244.105 96.508 244.057 96.5276C244.032 96.5375 244.014 96.5508 244.002 96.5647L243.979 96.6077L243.979 96.6106L241.925 105.945C241.884 106.184 241.998 106.414 242.231 106.542L253.103 112.287L255.068 102.722C255.113 102.48 254.998 102.246 254.761 102.116L254.762 102.115L244.21 96.5354L244.208 96.5344Z" fill="#889A9E" stroke="#B5B2A1" stroke-width="0.377652"/>
<path d="M230.413 89.2871C230.367 89.2618 230.31 89.2607 230.262 89.2803C230.237 89.2902 230.22 89.3034 230.207 89.3174L230.185 89.3604L230.184 89.3633L228.13 98.6973C228.089 98.9365 228.203 99.1669 228.437 99.2949L239.308 105.04L241.273 95.4746C241.318 95.2322 241.203 94.9982 240.966 94.8691L240.967 94.8682L230.415 89.2881L230.413 89.2871Z" fill="#A99885" stroke="#B5B2A1" stroke-width="0.377652"/>
<path opacity="0.8" d="M216.596 82.04C216.549 82.0148 216.493 82.0136 216.444 82.0332C216.42 82.0431 216.402 82.0564 216.39 82.0703L216.367 82.1133L216.366 82.1162L214.312 91.4502C214.272 91.6894 214.386 91.9198 214.619 92.0479L225.49 97.793L227.456 88.2275C227.501 87.9852 227.385 87.7512 227.148 87.6221L227.149 87.6211L216.598 82.041L216.596 82.04Z" fill="#BD7A71" stroke="#B5B2A1" stroke-width="0.377652"/>
<path opacity="0.6" d="M202.888 74.8523C202.737 74.7785 202.584 74.8429 202.528 74.95L202.511 74.9978L200.497 84.2029C200.46 84.4031 200.534 84.6137 200.716 84.7468L200.802 84.7996L200.804 84.8005L211.675 90.5457L213.642 80.9783H213.641C213.684 80.7552 213.57 80.5046 213.336 80.3757L213.335 80.3767L202.889 74.8513L202.888 74.8523Z" fill="#889A9E" stroke="#B5B2A1" stroke-width="0.377652"/>
<path opacity="0.8" d="M189.093 67.6052C188.942 67.5314 188.789 67.5958 188.733 67.7029L188.716 67.7507L186.702 76.9558C186.661 77.1951 186.776 77.4253 187.009 77.5535L197.88 83.2986L199.846 73.7332C199.89 73.4909 199.775 73.2567 199.538 73.1277L199.539 73.1267L189.094 67.6042L189.093 67.6052Z" fill="#BD7A71" stroke="#B5B2A1" stroke-width="0.377652"/>
<path d="M241.609 109.107C241.563 109.081 241.506 109.08 241.458 109.1C241.434 109.11 241.416 109.123 241.403 109.137L241.381 109.18L241.38 109.183L239.326 118.517C239.285 118.739 239.4 118.987 239.633 119.115L250.504 124.86L252.47 115.294C252.514 115.052 252.399 114.818 252.162 114.689L252.163 114.688L241.611 109.108L241.609 109.107Z" fill="#A99885" stroke="#B5B2A1" stroke-width="0.377652"/>
<path opacity="0.6" d="M227.815 101.86C227.769 101.834 227.712 101.833 227.664 101.853C227.64 101.863 227.622 101.876 227.609 101.89L227.587 101.933L227.586 101.936L225.532 111.27C225.495 111.47 225.569 111.681 225.751 111.814L225.837 111.865L225.839 111.867L236.71 117.613L238.676 108.047C238.72 107.805 238.605 107.571 238.368 107.442L238.369 107.441L227.817 101.861L227.815 101.86Z" fill="#889A9E" stroke="#B5B2A1" stroke-width="0.377652"/>
<path d="M213.998 94.6125C213.908 94.5633 213.812 94.6085 213.78 94.6721L213.771 94.7004L213.769 94.7073L211.715 104.04C211.674 104.28 211.788 104.51 212.021 104.638L222.889 110.382L224.858 100.799C224.903 100.557 224.787 100.324 224.551 100.195L224.552 100.194L214 94.6135L213.998 94.6125Z" fill="#A99885" stroke="#B5B2A1" stroke-width="0.377652"/>
<path opacity="0.8" d="M200.29 87.4248C200.139 87.351 199.986 87.4154 199.931 87.5225L199.913 87.5703L197.899 96.7754C197.859 96.9975 197.973 97.2451 198.206 97.373L209.077 103.118L211.043 93.5527C211.087 93.3104 210.972 93.0763 210.735 92.9473L210.736 92.9463L200.291 87.4238L200.29 87.4248Z" fill="#BD7A71" stroke="#B5B2A1" stroke-width="0.377652"/>
<path d="M186.495 80.1777C186.344 80.1039 186.191 80.1684 186.136 80.2754L186.118 80.3232L184.104 89.5283C184.063 89.7677 184.178 89.9978 184.411 90.126L195.282 95.8711L197.248 86.3057C197.292 86.0634 197.177 85.8292 196.94 85.7002L196.941 85.6992L186.496 80.1768L186.495 80.1777Z" fill="#A99885" stroke="#B5B2A1" stroke-width="0.377652"/>
<path opacity="0.8" d="M239.012 121.679C238.965 121.654 238.909 121.653 238.86 121.672C238.836 121.682 238.818 121.696 238.806 121.709L238.783 121.752L238.782 121.755L236.729 131.089C236.688 131.329 236.802 131.559 237.035 131.687L247.906 137.432L249.872 127.867C249.917 127.624 249.801 127.39 249.564 127.261L249.565 127.26L239.014 121.68L239.012 121.679Z" fill="#BD7A71" stroke="#B5B2A1" stroke-width="0.377652"/>
<path d="M225.217 114.433C225.17 114.407 225.114 114.406 225.065 114.426C225.041 114.436 225.023 114.449 225.011 114.463L224.988 114.506L224.987 114.509L222.934 123.843C222.893 124.065 223.007 124.313 223.24 124.44L234.111 130.186L236.077 120.62C236.122 120.378 236.006 120.144 235.77 120.015L235.771 120.014L225.219 114.434L225.217 114.433Z" fill="#A99885" stroke="#B5B2A1" stroke-width="0.377652"/>
<path opacity="0.8" d="M211.4 107.185C211.354 107.16 211.297 107.159 211.249 107.178C211.225 107.188 211.207 107.201 211.194 107.215L211.172 107.258L211.171 107.261L209.117 116.595C209.076 116.834 209.191 117.065 209.424 117.193L220.295 122.938L222.261 113.373C222.305 113.13 222.19 112.896 221.953 112.767L221.954 112.766L211.402 107.186L211.4 107.185Z" fill="#BD7A71" stroke="#B5B2A1" stroke-width="0.377652"/>
<path opacity="0.6" d="M197.693 99.9971C197.542 99.9233 197.389 99.9877 197.334 100.095L197.316 100.143L195.303 109.348C195.262 109.587 195.376 109.817 195.609 109.945L206.48 115.69L208.446 106.125C208.491 105.883 208.375 105.649 208.139 105.52L208.14 105.519L197.694 99.9961L197.693 99.9971Z" fill="#889A9E" stroke="#B5B2A1" stroke-width="0.377652"/>
<path opacity="0.8" d="M183.897 92.7502C183.746 92.6765 183.593 92.7409 183.538 92.8479L183.521 92.8958L181.507 102.101C181.466 102.323 181.581 102.57 181.813 102.698L192.685 108.444L194.65 98.8782C194.695 98.6359 194.579 98.4018 194.343 98.2727L194.344 98.2717L183.898 92.7493L183.897 92.7502Z" fill="#BD7A71" stroke="#B5B2A1" stroke-width="0.377652"/>
<path d="M236.414 134.252C236.368 134.227 236.311 134.226 236.263 134.245C236.238 134.255 236.22 134.268 236.208 134.282L236.186 134.325L236.185 134.328L234.131 143.662C234.09 143.901 234.204 144.132 234.438 144.26L245.309 150.005L247.274 140.439C247.319 140.197 247.204 139.963 246.967 139.834L246.968 139.833L236.416 134.253L236.414 134.252Z" fill="#A99885" stroke="#B5B2A1" stroke-width="0.377652"/>
<path opacity="0.6" d="M222.619 127.005C222.573 126.979 222.516 126.978 222.468 126.998C222.443 127.008 222.426 127.021 222.413 127.035L222.391 127.078L222.39 127.081L220.336 136.415C220.295 136.654 220.409 136.884 220.643 137.012L231.514 142.758L233.479 133.192C233.524 132.95 233.409 132.716 233.172 132.587L233.173 132.586L222.621 127.006L222.619 127.005Z" fill="#889A9E" stroke="#B5B2A1" stroke-width="0.377652"/>
<path d="M208.802 119.758C208.755 119.733 208.699 119.731 208.65 119.751C208.626 119.761 208.608 119.774 208.596 119.788L208.573 119.831V119.834L206.539 129.148L206.354 129.108L206.539 129.149L206.538 129.153C206.482 129.383 206.605 129.633 206.846 129.766L217.698 135.501L219.662 125.945C219.707 125.703 219.591 125.469 219.354 125.34L219.355 125.339L208.804 119.759L208.802 119.758Z" fill="#A99885" stroke="#B5B2A1" stroke-width="0.377652"/>
<g style="mix-blend-mode:multiply" opacity="0.2">
<path d="M195.095 112.57C194.944 112.496 194.791 112.56 194.735 112.667L194.718 112.715L192.704 121.92C192.663 122.159 192.778 122.39 193.011 122.518L203.882 128.263L205.848 118.698C205.892 118.455 205.777 118.221 205.54 118.092L205.541 118.091L195.096 112.569L195.095 112.57Z" fill="#CA413E"/>
<path d="M195.095 112.57C194.944 112.496 194.791 112.56 194.735 112.667L194.718 112.715L192.704 121.92C192.663 122.159 192.778 122.39 193.011 122.518L203.882 128.263L205.848 118.698C205.892 118.455 205.777 118.221 205.54 118.092L205.541 118.091L195.096 112.569L195.095 112.57Z" stroke="#B5B2A1" stroke-width="0.377652"/>
</g>
<g style="mix-blend-mode:multiply" opacity="0.2">
<path d="M181.299 105.323C181.148 105.249 180.995 105.313 180.939 105.42L180.922 105.468L178.908 114.673C178.867 114.895 178.982 115.143 179.215 115.271L190.086 121.016L192.052 111.451C192.096 111.208 191.981 110.974 191.744 110.845L191.745 110.844L181.3 105.322L181.299 105.323Z" fill="#CA413E"/>
<path d="M181.299 105.323C181.148 105.249 180.995 105.313 180.939 105.42L180.922 105.468L178.908 114.673C178.867 114.895 178.982 115.143 179.215 115.271L190.086 121.016L192.052 111.451C192.096 111.208 191.981 110.974 191.744 110.845L191.745 110.844L181.3 105.322L181.299 105.323Z" stroke="#B5B2A1" stroke-width="0.377652"/>
</g>
<path d="M176.426 47.0349C176.275 46.9611 176.122 47.0255 176.066 47.1326L176.049 47.1804L174.035 56.3855C173.994 56.6076 174.109 56.8552 174.342 56.9832L185.213 62.7283L187.179 53.1628C187.223 52.9205 187.108 52.6864 186.871 52.5574L186.872 52.5564L176.427 47.0339L176.426 47.0349Z" fill="#E8D5C6" stroke="#B5B2A1" stroke-width="0.377652"/>
<path d="M162.61 39.7881C162.459 39.7143 162.306 39.7787 162.251 39.8857L162.233 39.9336L160.22 49.1387C160.179 49.3607 160.294 49.6083 160.526 49.7363L171.397 55.4814L173.363 45.916C173.408 45.6737 173.292 45.4396 173.056 45.3105L173.057 45.3096L162.611 39.7871L162.61 39.7881Z" fill="#A99885" stroke="#B5B2A1" stroke-width="0.377652"/>
<path d="M173.809 59.6077C173.658 59.5339 173.505 59.5983 173.449 59.7053L173.432 59.7532L171.418 68.9583C171.377 69.1803 171.492 69.4279 171.725 69.5559L182.596 75.301L184.562 65.7356C184.606 65.4933 184.491 65.2592 184.254 65.1301L184.255 65.1292L173.81 59.6067L173.809 59.6077Z" fill="#A99885" stroke="#B5B2A1" stroke-width="0.377652"/>
<path d="M160.013 52.3608C159.862 52.287 159.709 52.3515 159.653 52.4585L159.636 52.5063L157.622 61.7114C157.581 61.9508 157.695 62.1809 157.929 62.3091L168.8 68.0542L170.766 58.4888C170.81 58.2465 170.695 58.0123 170.458 57.8833L170.459 57.8823L160.014 52.3599L160.013 52.3608Z" fill="#E8D5C6" stroke="#B5B2A1" stroke-width="0.377652"/>
<path d="M171.209 72.1804C171.058 72.1066 170.905 72.171 170.85 72.2781L170.832 72.3259L168.818 81.531C168.777 81.7703 168.892 82.0005 169.125 82.1287L179.996 87.8738L181.962 78.3083C182.006 78.066 181.891 77.8319 181.654 77.7029L181.655 77.7019L171.21 72.1794L171.209 72.1804Z" fill="#E8D5C6" stroke="#B5B2A1" stroke-width="0.377652"/>
<path d="M157.414 64.9331C157.263 64.8593 157.11 64.9237 157.055 65.0308L157.037 65.0786L155.023 74.2837C154.982 74.523 155.097 74.7532 155.33 74.8813L166.201 80.6265L168.167 71.061C168.211 70.8187 168.096 70.5846 167.859 70.4556L167.86 70.4546L157.415 64.9321L157.414 64.9331Z" fill="#A99885" stroke="#B5B2A1" stroke-width="0.377652"/>
<path d="M168.612 84.7529C168.461 84.6791 168.308 84.7436 168.253 84.8506L168.235 84.8984L166.222 94.1035C166.181 94.3428 166.295 94.573 166.528 94.7012L177.399 100.446L179.365 90.8809C179.41 90.6386 179.294 90.4044 179.058 90.2754L179.059 90.2744L168.613 84.752L168.612 84.7529Z" fill="#A99885" stroke="#B5B2A1" stroke-width="0.377652"/>
<path d="M154.813 77.5056C154.662 77.4318 154.509 77.4962 154.454 77.6033L154.437 77.6511L152.423 86.8562L152.422 86.8601C152.366 87.0899 152.489 87.3401 152.729 87.4724L163.597 93.2156L165.567 83.6316H165.566C165.61 83.4077 165.495 83.1566 165.259 83.0281L165.26 83.0271L154.814 77.5046L154.813 77.5056Z" fill="#E8D5C6" stroke="#B5B2A1" stroke-width="0.377652"/>
<g style="mix-blend-mode:multiply" opacity="0.2">
<path d="M166.014 97.3254C165.863 97.2516 165.71 97.3161 165.654 97.4231L165.637 97.4709L163.623 106.676C163.582 106.898 163.697 107.146 163.93 107.274L174.801 113.019L176.767 103.453C176.811 103.211 176.696 102.977 176.459 102.848L176.46 102.847L166.015 97.3245L166.014 97.3254Z" fill="#C88043"/>
<path d="M166.014 97.3254C165.863 97.2516 165.71 97.3161 165.654 97.4231L165.637 97.4709L163.623 106.676C163.582 106.898 163.697 107.146 163.93 107.274L174.801 113.019L176.767 103.453C176.811 103.211 176.696 102.977 176.459 102.848L176.46 102.847L166.015 97.3245L166.014 97.3254Z" stroke="#B5B2A1" stroke-width="0.377652"/>
</g>
<g style="mix-blend-mode:multiply" opacity="0.2">
<path d="M152.217 90.0789C152.066 90.0051 151.913 90.0695 151.857 90.1765L151.84 90.2244L149.826 99.4294L149.825 99.4333C149.769 99.6632 149.892 99.9133 150.133 100.046L161 105.789L162.97 96.2068C163.014 95.9645 162.899 95.7304 162.662 95.6013L162.663 95.6003L152.218 90.0779L152.217 90.0789Z" fill="#C88043"/>
<path d="M152.217 90.0789C152.066 90.0051 151.913 90.0695 151.857 90.1765L151.84 90.2244L149.826 99.4294L149.825 99.4333C149.769 99.6632 149.892 99.9133 150.133 100.046L161 105.789L162.97 96.2068C163.014 95.9645 162.899 95.7304 162.662 95.6013L162.663 95.6003L152.218 90.0779L152.217 90.0789Z" stroke="#B5B2A1" stroke-width="0.377652"/>
</g>
<path d="M239.879 154.097L244.083 156.311L244.245 155.526L240.041 153.311L239.879 154.097ZM238.59 151.023L244.506 154.134L244.668 153.348L238.752 150.237L238.59 151.023ZM235.811 151.974L238.625 153.456L238.787 152.671L235.973 151.189L235.811 151.974ZM230.735 149.321L234.557 151.333L234.719 150.548L230.897 148.535L230.735 149.321ZM234.521 148.9L237.336 150.382L237.498 149.596L234.684 148.114L234.521 148.9ZM225.52 146.575L229.461 148.644L229.623 147.858L225.682 145.789L225.52 146.575ZM228.661 145.825L233.288 148.26L233.45 147.473L228.823 145.039L228.661 145.825ZM221.794 144.636L224.265 145.936L224.427 145.149L221.956 143.85L221.794 144.636ZM224.23 143.501L227.146 145.037L227.308 144.252L224.393 142.715L224.23 143.501ZM220.162 141.36L222.977 142.842L223.139 142.056L220.324 140.573L220.162 141.36Z" fill="#A99885" stroke="#B5B2A1" stroke-width="0.377652"/>
<path d="M153.923 109.004L157.864 111.072L158.027 110.286L154.086 108.218L153.923 109.004ZM157.729 108.62L162.356 111.055L162.519 110.268L157.892 107.834L157.729 108.62ZM148.768 106.314L152.669 108.364L152.831 107.578L148.93 105.527L148.768 106.314ZM153.299 106.277L156.214 107.814L156.376 107.028L153.461 105.491L153.299 106.277ZM149.23 104.154L152.045 105.637L152.207 104.851L149.393 103.368L149.23 104.154Z" fill="#A99885" stroke="#B5B2A1" stroke-width="0.377652"/>
<path d="M22.8233 101V86.2302H18.2539V83.807H30.0236V86.2302H25.5234V101H22.8233ZM36.2065 101.277C35.0064 101.277 33.9064 100.992 32.9063 100.423C31.9217 99.8538 31.137 99.0768 30.5524 98.0922C29.9677 97.1075 29.6754 95.9921 29.6754 94.7459C29.6754 93.4843 29.9677 92.3689 30.5524 91.3996C31.137 90.4149 31.9217 89.6457 32.9063 89.0918C33.891 88.5226 34.991 88.2379 36.2065 88.2379C37.4373 88.2379 38.5373 88.5226 39.5066 89.0918C40.4913 89.6457 41.2682 90.4149 41.8375 91.3996C42.4221 92.3689 42.7144 93.4843 42.7144 94.7459C42.7144 96.0075 42.4221 97.1306 41.8375 98.1153C41.2528 99.0999 40.4682 99.8769 39.4835 100.446C38.4989 101 37.4065 101.277 36.2065 101.277ZM36.2065 98.8538C36.945 98.8538 37.5988 98.6768 38.1681 98.323C38.7373 97.9691 39.1835 97.4845 39.5066 96.8691C39.8451 96.2383 40.0143 95.5305 40.0143 94.7459C40.0143 93.9612 39.8451 93.2612 39.5066 92.6458C39.1835 92.0304 38.7373 91.5458 38.1681 91.1919C37.5988 90.838 36.945 90.6611 36.2065 90.6611C35.4834 90.6611 34.8295 90.838 34.2448 91.1919C33.6756 91.5458 33.2217 92.0304 32.8833 92.6458C32.5602 93.2612 32.3986 93.9612 32.3986 94.7459C32.3986 95.5305 32.5602 96.2383 32.8833 96.8691C33.2217 97.4845 33.6756 97.9691 34.2448 98.323C34.8295 98.6768 35.4834 98.8538 36.2065 98.8538ZM51.2837 101.277C50.0837 101.277 48.9836 100.992 47.9836 100.423C46.9989 99.8538 46.2143 99.0768 45.6296 98.0922C45.045 97.1075 44.7527 95.9921 44.7527 94.7459C44.7527 93.4843 45.045 92.3689 45.6296 91.3996C46.2143 90.4149 46.9989 89.6457 47.9836 89.0918C48.9682 88.5226 50.0683 88.2379 51.2837 88.2379C52.5145 88.2379 53.6146 88.5226 54.5839 89.0918C55.5685 89.6457 56.3455 90.4149 56.9147 91.3996C57.4994 92.3689 57.7917 93.4843 57.7917 94.7459C57.7917 96.0075 57.4994 97.1306 56.9147 98.1153C56.3301 99.0999 55.5454 99.8769 54.5608 100.446C53.5761 101 52.4838 101.277 51.2837 101.277ZM51.2837 98.8538C52.0222 98.8538 52.6761 98.6768 53.2453 98.323C53.8146 97.9691 54.2608 97.4845 54.5839 96.8691C54.9223 96.2383 55.0916 95.5305 55.0916 94.7459C55.0916 93.9612 54.9223 93.2612 54.5839 92.6458C54.2608 92.0304 53.8146 91.5458 53.2453 91.1919C52.6761 90.838 52.0222 90.6611 51.2837 90.6611C50.5606 90.6611 49.9067 90.838 49.3221 91.1919C48.7528 91.5458 48.299 92.0304 47.9605 92.6458C47.6374 93.2612 47.4759 93.9612 47.4759 94.7459C47.4759 95.5305 47.6374 96.2383 47.9605 96.8691C48.299 97.4845 48.7528 97.9691 49.3221 98.323C49.9067 98.6768 50.5606 98.8538 51.2837 98.8538ZM60.3376 101V83.53H62.9454V101H60.3376ZM70.61 101.277C69.333 101.277 68.2099 100.962 67.2406 100.331C66.2867 99.6999 65.6175 98.8538 65.2328 97.7922L67.2406 96.846C67.5791 97.5537 68.0407 98.1153 68.6253 98.5307C69.2253 98.9461 69.8869 99.1538 70.61 99.1538C71.2254 99.1538 71.7254 99.0153 72.1101 98.7384C72.4947 98.4614 72.687 98.0845 72.687 97.6076C72.687 97.2998 72.6024 97.0537 72.4331 96.8691C72.2639 96.6691 72.0485 96.5075 71.787 96.3844C71.5408 96.2613 71.2869 96.169 71.0254 96.1075L69.0638 95.5536C67.9868 95.2459 67.1791 94.7844 66.6406 94.1689C66.1175 93.5382 65.856 92.8074 65.856 91.9765C65.856 91.2227 66.0483 90.5688 66.4329 90.0149C66.8175 89.4457 67.3483 89.0072 68.0253 88.6995C68.7022 88.3918 69.4638 88.2379 70.31 88.2379C71.4485 88.2379 72.4639 88.5226 73.3563 89.0918C74.2486 89.6457 74.8794 90.4226 75.2486 91.4227L73.2409 92.3689C72.9947 91.7688 72.6024 91.2919 72.0639 90.938C71.5408 90.5842 70.9485 90.4073 70.2869 90.4073C69.7177 90.4073 69.2638 90.5457 68.9253 90.8227C68.5868 91.0842 68.4176 91.4304 68.4176 91.8612C68.4176 92.1535 68.4945 92.3996 68.6484 92.5997C68.8022 92.7843 69.0022 92.9381 69.2484 93.0612C69.4946 93.1689 69.7484 93.2612 70.01 93.3381L72.0408 93.9382C73.0716 94.2305 73.864 94.692 74.4178 95.3228C74.9717 95.9383 75.2486 96.6767 75.2486 97.5383C75.2486 98.2768 75.0486 98.9307 74.6486 99.4999C74.264 100.054 73.7255 100.492 73.0332 100.815C72.3408 101.123 71.5331 101.277 70.61 101.277ZM24.9234 123.138C23.6156 123.138 22.6002 122.769 21.8771 122.031C21.154 121.292 20.7924 120.254 20.7924 118.915V112.869H18.6V110.515H18.9462C19.5308 110.515 19.9847 110.346 20.3078 110.007C20.6309 109.669 20.7924 109.207 20.7924 108.622V107.653H23.4002V110.515H26.2388V112.869H23.4002V118.8C23.4002 119.231 23.4695 119.6 23.6079 119.908C23.7464 120.2 23.9695 120.431 24.2772 120.6C24.5849 120.754 24.9849 120.831 25.4772 120.831C25.6003 120.831 25.7388 120.823 25.8926 120.808C26.0465 120.792 26.1926 120.777 26.3311 120.761V123C26.1157 123.031 25.8773 123.062 25.6157 123.092C25.3542 123.123 25.1234 123.138 24.9234 123.138ZM28.876 123V105.53H31.4838V112.961L31.0684 112.638C31.3761 111.853 31.8684 111.261 32.5454 110.861C33.2223 110.446 34.007 110.238 34.8993 110.238C35.8224 110.238 36.6379 110.438 37.3456 110.838C38.0533 111.238 38.6072 111.792 39.0072 112.5C39.4072 113.207 39.6072 114.015 39.6072 114.923V123H37.0225V115.638C37.0225 115.007 36.8994 114.477 36.6532 114.046C36.4225 113.6 36.0994 113.261 35.684 113.03C35.2686 112.784 34.7916 112.661 34.2531 112.661C33.73 112.661 33.2531 112.784 32.8223 113.03C32.4069 113.261 32.0761 113.6 31.83 114.046C31.5992 114.492 31.4838 115.023 31.4838 115.638V123H28.876ZM46.1368 123.277C45.2906 123.277 44.5444 123.131 43.8983 122.838C43.2675 122.531 42.7751 122.115 42.4213 121.592C42.0674 121.054 41.8905 120.423 41.8905 119.7C41.8905 119.023 42.0366 118.415 42.329 117.877C42.6367 117.338 43.1059 116.884 43.7367 116.515C44.3675 116.146 45.1598 115.884 46.1137 115.73L50.4524 115.015V117.069L46.6214 117.738C45.9291 117.861 45.4214 118.084 45.0983 118.408C44.7752 118.715 44.6137 119.115 44.6137 119.608C44.6137 120.084 44.7906 120.477 45.1445 120.785C45.5137 121.077 45.983 121.223 46.5522 121.223C47.2599 121.223 47.8753 121.069 48.3984 120.761C48.9369 120.454 49.3523 120.046 49.6446 119.538C49.937 119.015 50.0831 118.438 50.0831 117.807V114.6C50.0831 113.984 49.8523 113.484 49.3908 113.1C48.9446 112.7 48.3446 112.5 47.5907 112.5C46.8984 112.5 46.2907 112.684 45.7676 113.053C45.2598 113.407 44.8829 113.869 44.6367 114.438L42.4674 113.353C42.6982 112.738 43.0751 112.2 43.5982 111.738C44.1213 111.261 44.7291 110.892 45.4214 110.63C46.1291 110.369 46.8753 110.238 47.6599 110.238C48.6446 110.238 49.5139 110.423 50.2677 110.792C51.037 111.161 51.6293 111.676 52.0447 112.338C52.4755 112.984 52.6909 113.738 52.6909 114.6V123H50.1985V120.738L50.7293 120.808C50.437 121.315 50.06 121.754 49.5985 122.123C49.1523 122.492 48.6369 122.777 48.0523 122.977C47.483 123.177 46.8445 123.277 46.1368 123.277ZM60.9149 123.138C59.6072 123.138 58.5918 122.769 57.8687 122.031C57.1456 121.292 56.784 120.254 56.784 118.915V112.869H54.5916V110.515H54.9378C55.5224 110.515 55.9763 110.346 56.2994 110.007C56.6225 109.669 56.784 109.207 56.784 108.622V107.653H59.3918V110.515H62.2304V112.869H59.3918V118.8C59.3918 119.231 59.461 119.6 59.5995 119.908C59.738 120.2 59.9611 120.431 60.2688 120.6C60.5765 120.754 60.9765 120.831 61.4688 120.831C61.5919 120.831 61.7304 120.823 61.8842 120.808C62.0381 120.792 62.1842 120.777 62.3227 120.761V123C62.1073 123.031 61.8688 123.062 61.6073 123.092C61.3457 123.123 61.115 123.138 60.9149 123.138ZM70.3094 123V112.869H68.0017V110.515H70.3094V109.869C70.3094 108.93 70.5018 108.146 70.8864 107.515C71.271 106.869 71.8018 106.376 72.4788 106.038C73.1711 105.699 73.9634 105.53 74.8558 105.53C75.025 105.53 75.2173 105.545 75.4327 105.576C75.6481 105.592 75.8251 105.615 75.9635 105.645V107.907C75.8404 107.876 75.702 107.861 75.5481 107.861C75.3943 107.846 75.2712 107.838 75.1789 107.838C74.4865 107.838 73.9327 107.999 73.5173 108.322C73.1019 108.63 72.8942 109.146 72.8942 109.869V110.515H75.7558V112.869H72.8942V123H70.3094ZM83.5754 123.277C82.3292 123.277 81.2215 122.992 80.2522 122.423C79.2983 121.838 78.5522 121.054 78.0137 120.069C77.4752 119.069 77.2059 117.954 77.2059 116.723C77.2059 115.461 77.4752 114.346 78.0137 113.377C78.5675 112.407 79.306 111.646 80.2291 111.092C81.1523 110.523 82.1985 110.238 83.3677 110.238C84.3062 110.238 85.1447 110.399 85.8832 110.723C86.6217 111.046 87.2448 111.492 87.7525 112.061C88.2602 112.615 88.6449 113.253 88.9064 113.977C89.1834 114.7 89.3218 115.469 89.3218 116.284C89.3218 116.484 89.3141 116.692 89.2988 116.907C89.2834 117.123 89.2526 117.323 89.2064 117.507H79.2599V115.43H87.7295L86.4832 116.377C86.6371 115.623 86.5833 114.954 86.3217 114.369C86.0755 113.769 85.6909 113.3 85.1678 112.961C84.6601 112.607 84.0601 112.43 83.3677 112.43C82.6754 112.43 82.06 112.607 81.5215 112.961C80.983 113.3 80.5676 113.792 80.2753 114.438C79.983 115.069 79.8676 115.838 79.9291 116.746C79.8522 117.592 79.9676 118.331 80.2753 118.961C80.5984 119.592 81.0446 120.084 81.6138 120.438C82.1985 120.792 82.86 120.969 83.5985 120.969C84.3524 120.969 84.9909 120.8 85.514 120.461C86.0525 120.123 86.4756 119.684 86.7833 119.146L88.9064 120.184C88.6603 120.769 88.2756 121.3 87.7525 121.777C87.2448 122.238 86.6294 122.608 85.9063 122.885C85.1986 123.146 84.4216 123.277 83.5754 123.277ZM97.7287 123.277C96.4825 123.277 95.3747 122.992 94.4055 122.423C93.4516 121.838 92.7054 121.054 92.1669 120.069C91.6284 119.069 91.3592 117.954 91.3592 116.723C91.3592 115.461 91.6284 114.346 92.1669 113.377C92.7208 112.407 93.4593 111.646 94.3824 111.092C95.3055 110.523 96.3517 110.238 97.521 110.238C98.4595 110.238 99.298 110.399 100.036 110.723C100.775 111.046 101.398 111.492 101.906 112.061C102.413 112.615 102.798 113.253 103.06 113.977C103.337 114.7 103.475 115.469 103.475 116.284C103.475 116.484 103.467 116.692 103.452 116.907C103.437 117.123 103.406 117.323 103.36 117.507H93.4131V115.43H101.883L100.636 116.377C100.79 115.623 100.736 114.954 100.475 114.369C100.229 113.769 99.8441 113.3 99.321 112.961C98.8133 112.607 98.2133 112.43 97.521 112.43C96.8286 112.43 96.2132 112.607 95.6747 112.961C95.1363 113.3 94.7209 113.792 94.4285 114.438C94.1362 115.069 94.0208 115.838 94.0824 116.746C94.0054 117.592 94.1208 118.331 94.4285 118.961C94.7516 119.592 95.1978 120.084 95.7671 120.438C96.3517 120.792 97.0133 120.969 97.7517 120.969C98.5056 120.969 99.1441 120.8 99.6672 120.461C100.206 120.123 100.629 119.684 100.936 119.146L103.06 120.184C102.813 120.769 102.429 121.3 101.906 121.777C101.398 122.238 100.783 122.608 100.06 122.885C99.3518 123.146 98.5749 123.277 97.7287 123.277ZM106.02 123V105.53H108.628V123H106.02ZM19.5231 146V133.515H22.0156V135.961L21.7155 135.638C22.0232 134.853 22.5156 134.261 23.1925 133.861C23.8695 133.446 24.6541 133.238 25.5465 133.238C26.4696 133.238 27.285 133.438 27.9927 133.838C28.7004 134.238 29.2543 134.792 29.6543 135.5C30.0543 136.207 30.2544 137.023 30.2544 137.946V146H27.6696V138.638C27.6696 138.007 27.5542 137.477 27.3235 137.046C27.0927 136.6 26.7619 136.261 26.3311 136.03C25.9157 135.784 25.4388 135.661 24.9003 135.661C24.3618 135.661 23.8772 135.784 23.4464 136.03C23.031 136.261 22.7079 136.6 22.4771 137.046C22.2463 137.492 22.1309 138.023 22.1309 138.638V146H19.5231ZM36.784 146.277C35.9378 146.277 35.1916 146.131 34.5454 145.838C33.9146 145.531 33.4223 145.115 33.0684 144.592C32.7146 144.054 32.5376 143.423 32.5376 142.7C32.5376 142.023 32.6838 141.415 32.9761 140.877C33.2838 140.338 33.7531 139.884 34.3839 139.515C35.0146 139.146 35.807 138.884 36.7609 138.73L41.0995 138.015V140.069L37.2686 140.738C36.5763 140.861 36.0685 141.084 35.7454 141.408C35.4224 141.715 35.2608 142.115 35.2608 142.608C35.2608 143.084 35.4377 143.477 35.7916 143.785C36.1608 144.077 36.6301 144.223 37.1994 144.223C37.9071 144.223 38.5225 144.069 39.0456 143.761C39.5841 143.454 39.9995 143.046 40.2918 142.538C40.5841 142.015 40.7303 141.438 40.7303 140.807V137.6C40.7303 136.984 40.4995 136.484 40.0379 136.1C39.5918 135.7 38.9917 135.5 38.2379 135.5C37.5455 135.5 36.9378 135.684 36.4147 136.053C35.907 136.407 35.5301 136.869 35.2839 137.438L33.1146 136.353C33.3453 135.738 33.7223 135.2 34.2454 134.738C34.7685 134.261 35.3762 133.892 36.0685 133.63C36.7763 133.369 37.5224 133.238 38.3071 133.238C39.2917 133.238 40.161 133.423 40.9149 133.792C41.6842 134.161 42.2765 134.676 42.6919 135.338C43.1227 135.984 43.3381 136.738 43.3381 137.6V146H40.8457V143.738L41.3765 143.808C41.0841 144.315 40.7072 144.754 40.2456 145.123C39.7995 145.492 39.2841 145.777 38.6994 145.977C38.1302 146.177 37.4917 146.277 36.784 146.277ZM51.5621 146.138C50.2543 146.138 49.2389 145.769 48.5158 145.031C47.7927 144.292 47.4311 143.254 47.4311 141.915V135.869H45.2388V133.515H45.5849C46.1696 133.515 46.6234 133.346 46.9465 133.007C47.2696 132.669 47.4311 132.207 47.4311 131.622V130.653H50.0389V133.515H52.8775V135.869H50.0389V141.8C50.0389 142.231 50.1082 142.6 50.2467 142.908C50.3851 143.2 50.6082 143.431 50.9159 143.6C51.2236 143.754 51.6236 143.831 52.116 143.831C52.239 143.831 52.3775 143.823 52.5314 143.808C52.6852 143.792 52.8314 143.777 52.9698 143.761V146C52.7544 146.031 52.516 146.062 52.2544 146.092C51.9929 146.123 51.7621 146.138 51.5621 146.138ZM59.9687 146.277C59.0302 146.277 58.2071 146.069 57.4994 145.654C56.7917 145.223 56.2378 144.631 55.8378 143.877C55.4532 143.108 55.2609 142.223 55.2609 141.223V133.515H57.8687V140.992C57.8687 141.561 57.9841 142.061 58.2148 142.492C58.4456 142.923 58.7687 143.261 59.1841 143.508C59.5995 143.738 60.0764 143.854 60.6149 143.854C61.1688 143.854 61.6534 143.731 62.0688 143.485C62.4842 143.238 62.8073 142.892 63.0381 142.446C63.2843 142 63.4074 141.477 63.4074 140.877V133.515H65.9921V146H63.5227V143.554L63.7997 143.877C63.5074 144.646 63.0227 145.238 62.3458 145.654C61.6688 146.069 60.8765 146.277 59.9687 146.277ZM69.0369 146V133.515H71.5293V136.03L71.2985 135.661C71.5755 134.846 72.0217 134.261 72.6371 133.907C73.2525 133.538 73.991 133.353 74.8525 133.353H75.6141V135.73H74.5294C73.6679 135.73 72.9678 136 72.4294 136.538C71.9063 137.061 71.6447 137.815 71.6447 138.8V146H69.0369ZM81.1368 146.277C80.2906 146.277 79.5444 146.131 78.8982 145.838C78.2674 145.531 77.7751 145.115 77.4212 144.592C77.0674 144.054 76.8904 143.423 76.8904 142.7C76.8904 142.023 77.0366 141.415 77.3289 140.877C77.6366 140.338 78.1059 139.884 78.7367 139.515C79.3674 139.146 80.1598 138.884 81.1137 138.73L85.4523 138.015V140.069L81.6214 140.738C80.9291 140.861 80.4213 141.084 80.0982 141.408C79.7752 141.715 79.6136 142.115 79.6136 142.608C79.6136 143.084 79.7905 143.477 80.1444 143.785C80.5137 144.077 80.9829 144.223 81.5522 144.223C82.2599 144.223 82.8753 144.069 83.3984 143.761C83.9369 143.454 84.3523 143.046 84.6446 142.538C84.9369 142.015 85.0831 141.438 85.0831 140.807V137.6C85.0831 136.984 84.8523 136.484 84.3907 136.1C83.9446 135.7 83.3445 135.5 82.5907 135.5C81.8983 135.5 81.2906 135.684 80.7675 136.053C80.2598 136.407 79.8829 136.869 79.6367 137.438L77.4674 136.353C77.6981 135.738 78.0751 135.2 78.5982 134.738C79.1213 134.261 79.729 133.892 80.4213 133.63C81.1291 133.369 81.8752 133.238 82.6599 133.238C83.6445 133.238 84.5138 133.423 85.2677 133.792C86.037 134.161 86.6293 134.676 87.0447 135.338C87.4755 135.984 87.6909 136.738 87.6909 137.6V146H85.1985V143.738L85.7293 143.808C85.4369 144.315 85.06 144.754 84.5984 145.123C84.1523 145.492 83.6369 145.777 83.0522 145.977C82.483 146.177 81.8445 146.277 81.1368 146.277ZM90.74 146V128.53H93.3478V146H90.74ZM97.0661 149.392V148.123C97.5738 148 97.9661 147.762 98.2431 147.408C98.52 147.069 98.6892 146.6 98.7508 146H97.5276V143H100.182V144.961C100.182 146.192 99.92 147.185 99.3969 147.939C98.8738 148.692 98.0969 149.177 97.0661 149.392ZM19.5231 169V156.515H22.0156V158.961L21.7155 158.638C22.0232 157.853 22.5156 157.261 23.1925 156.861C23.8695 156.446 24.6541 156.238 25.5465 156.238C26.4696 156.238 27.285 156.438 27.9927 156.838C28.7004 157.238 29.2543 157.792 29.6543 158.5C30.0543 159.207 30.2544 160.023 30.2544 160.946V169H27.6696V161.638C27.6696 161.007 27.5542 160.477 27.3235 160.046C27.0927 159.6 26.7619 159.261 26.3311 159.03C25.9157 158.784 25.4388 158.661 24.9003 158.661C24.3618 158.661 23.8772 158.784 23.4464 159.03C23.031 159.261 22.7079 159.6 22.4771 160.046C22.2463 160.492 22.1309 161.023 22.1309 161.638V169H19.5231ZM39.0687 169.277C37.8686 169.277 36.7686 168.992 35.7685 168.423C34.7839 167.854 33.9992 167.077 33.4146 166.092C32.8299 165.108 32.5376 163.992 32.5376 162.746C32.5376 161.484 32.8299 160.369 33.4146 159.4C33.9992 158.415 34.7839 157.646 35.7685 157.092C36.7532 156.523 37.8532 156.238 39.0687 156.238C40.2995 156.238 41.3995 156.523 42.3688 157.092C43.3535 157.646 44.1304 158.415 44.6997 159.4C45.2843 160.369 45.5766 161.484 45.5766 162.746C45.5766 164.007 45.2843 165.131 44.6997 166.115C44.115 167.1 43.3304 167.877 42.3457 168.446C41.3611 169 40.2687 169.277 39.0687 169.277ZM39.0687 166.854C39.8072 166.854 40.461 166.677 41.0303 166.323C41.5995 165.969 42.0457 165.484 42.3688 164.869C42.7073 164.238 42.8765 163.531 42.8765 162.746C42.8765 161.961 42.7073 161.261 42.3688 160.646C42.0457 160.03 41.5995 159.546 41.0303 159.192C40.461 158.838 39.8072 158.661 39.0687 158.661C38.3456 158.661 37.6917 158.838 37.107 159.192C36.5378 159.546 36.0839 160.03 35.7454 160.646C35.4224 161.261 35.2608 161.961 35.2608 162.746C35.2608 163.531 35.4224 164.238 35.7454 164.869C36.0839 165.484 36.5378 165.969 37.107 166.323C37.6917 166.677 38.3456 166.854 39.0687 166.854ZM53.2974 169.138C51.9897 169.138 50.9743 168.769 50.2512 168.031C49.5281 167.292 49.1665 166.254 49.1665 164.915V158.869H46.9741V156.515H47.3203C47.9049 156.515 48.3588 156.346 48.6819 156.007C49.005 155.669 49.1665 155.207 49.1665 154.622V153.653H51.7743V156.515H54.6129V158.869H51.7743V164.8C51.7743 165.231 51.8435 165.6 51.982 165.908C52.1205 166.2 52.3436 166.431 52.6513 166.6C52.959 166.754 53.359 166.831 53.8513 166.831C53.9744 166.831 54.1129 166.823 54.2667 166.808C54.4206 166.792 54.5667 166.777 54.7052 166.761V169C54.4898 169.031 54.2513 169.062 53.9898 169.092C53.7282 169.123 53.4974 169.138 53.2974 169.138Z" fill="#191A15"/>
<path d="M24.4164 184.199C23.533 184.199 22.7269 183.994 21.9981 183.586C21.2803 183.177 20.7061 182.62 20.2754 181.913C19.8558 181.206 19.646 180.4 19.646 179.495C19.646 178.589 19.8558 177.783 20.2754 177.076C20.7061 176.37 21.2803 175.812 21.9981 175.403C22.7158 174.995 23.522 174.79 24.4164 174.79C25.2998 174.79 26.1004 174.995 26.8182 175.403C27.536 175.812 28.1047 176.37 28.5243 177.076C28.9549 177.772 29.1703 178.578 29.1703 179.495C29.1703 180.4 28.9549 181.206 28.5243 181.913C28.0936 182.62 27.5194 183.177 26.8016 183.586C26.0839 183.994 25.2888 184.199 24.4164 184.199ZM24.4164 182.211C24.9023 182.211 25.3274 182.095 25.6918 181.863C26.0673 181.631 26.3599 181.311 26.5697 180.903C26.7906 180.483 26.901 180.014 26.901 179.495C26.901 178.965 26.7906 178.501 26.5697 178.103C26.3599 177.695 26.0673 177.374 25.6918 177.143C25.3274 176.9 24.9023 176.778 24.4164 176.778C23.9195 176.778 23.4833 176.9 23.1079 177.143C22.7324 177.374 22.4343 177.695 22.2134 178.103C22.0036 178.501 21.8987 178.965 21.8987 179.495C21.8987 180.014 22.0036 180.483 22.2134 180.903C22.4343 181.311 22.7324 181.631 23.1079 181.863C23.4833 182.095 23.9195 182.211 24.4164 182.211ZM33.3705 184L29.8258 174.989H32.1945L34.7619 182.079H33.884L36.468 174.989H38.8366L35.292 184H33.3705ZM44.1477 184.199C43.2201 184.199 42.4085 183.989 41.7128 183.569C41.0171 183.15 40.476 182.581 40.0895 181.863C39.7031 181.145 39.5098 180.35 39.5098 179.478C39.5098 178.573 39.7031 177.772 40.0895 177.076C40.4871 176.37 41.0227 175.812 41.6963 175.403C42.3809 174.995 43.1428 174.79 43.9821 174.79C44.6888 174.79 45.3072 174.906 45.8372 175.138C46.3783 175.37 46.8366 175.69 47.2121 176.099C47.5875 176.508 47.8746 176.977 48.0734 177.507C48.2721 178.026 48.3715 178.589 48.3715 179.196C48.3715 179.351 48.3605 179.511 48.3384 179.677C48.3274 179.842 48.2998 179.986 48.2556 180.107H41.2987V178.451H47.0298L46.0029 179.23C46.1023 178.722 46.0747 178.269 45.9201 177.871C45.7765 177.474 45.5336 177.159 45.1912 176.927C44.86 176.695 44.4569 176.579 43.9821 176.579C43.5293 176.579 43.1263 176.695 42.7729 176.927C42.4195 177.148 42.149 177.479 41.9613 177.921C41.7846 178.352 41.7183 178.876 41.7625 179.495C41.7183 180.047 41.7901 180.538 41.9778 180.969C42.1766 181.388 42.4637 181.714 42.8392 181.946C43.2257 182.178 43.6674 182.294 44.1643 182.294C44.6612 182.294 45.0808 182.189 45.4231 181.979C45.7765 181.769 46.0526 181.488 46.2513 181.134L48.0071 181.996C47.8304 182.426 47.5544 182.807 47.1789 183.139C46.8035 183.47 46.3562 183.729 45.8372 183.917C45.3293 184.105 44.7661 184.199 44.1477 184.199ZM50.0164 184V174.989H52.0538V176.993L51.8881 176.695C52.0979 176.022 52.4237 175.552 52.8654 175.287C53.3182 175.022 53.8592 174.89 54.4887 174.89H55.0187V176.811H54.2402C53.6218 176.811 53.1249 177.004 52.7495 177.391C52.374 177.766 52.1863 178.296 52.1863 178.981V184H50.0164ZM58.481 184L55.3835 174.989H57.6693L59.9386 181.83L59.1435 181.814L61.5619 174.989H63.4833L65.8851 181.814L65.09 181.83L67.3593 174.989H69.6451L66.5476 184H64.6096L62.1582 176.861H62.887L60.4024 184H58.481ZM70.8346 184V171.461H73.0045V176.762L72.7063 176.447C72.9161 175.906 73.2585 175.497 73.7333 175.221C74.2192 174.934 74.7823 174.79 75.4228 174.79C76.0854 174.79 76.6706 174.934 77.1786 175.221C77.6976 175.508 78.1007 175.911 78.3878 176.43C78.6749 176.938 78.8184 177.529 78.8184 178.203V184H76.6485V178.716C76.6485 178.319 76.5712 177.976 76.4166 177.689C76.2621 177.402 76.0467 177.181 75.7707 177.027C75.5056 176.861 75.1909 176.778 74.8265 176.778C74.4731 176.778 74.1584 176.861 73.8824 177.027C73.6063 177.181 73.391 177.402 73.2364 177.689C73.0818 177.976 73.0045 178.319 73.0045 178.716V184H70.8346ZM84.9268 184.199C83.9992 184.199 83.1876 183.989 82.4919 183.569C81.7962 183.15 81.2551 182.581 80.8686 181.863C80.4821 181.145 80.2889 180.35 80.2889 179.478C80.2889 178.573 80.4821 177.772 80.8686 177.076C81.2661 176.37 81.8017 175.812 82.4753 175.403C83.1599 174.995 83.9219 174.79 84.7611 174.79C85.4679 174.79 86.0863 174.906 86.6163 175.138C87.1574 175.37 87.6157 175.69 87.9911 176.099C88.3666 176.508 88.6537 176.977 88.8524 177.507C89.0512 178.026 89.1506 178.589 89.1506 179.196C89.1506 179.351 89.1395 179.511 89.1175 179.677C89.1064 179.842 89.0788 179.986 89.0346 180.107H82.0778V178.451H87.8089L86.7819 179.23C86.8813 178.722 86.8537 178.269 86.6991 177.871C86.5556 177.474 86.3126 177.159 85.9703 176.927C85.639 176.695 85.236 176.579 84.7611 176.579C84.3084 176.579 83.9053 176.695 83.552 176.927C83.1986 177.148 82.9281 177.479 82.7403 177.921C82.5636 178.352 82.4974 178.876 82.5416 179.495C82.4974 180.047 82.5692 180.538 82.7569 180.969C82.9557 181.388 83.2428 181.714 83.6182 181.946C84.0047 182.178 84.4464 182.294 84.9433 182.294C85.4403 182.294 85.8599 182.189 86.2022 181.979C86.5556 181.769 86.8316 181.488 87.0304 181.134L88.7862 181.996C88.6095 182.426 88.3334 182.807 87.958 183.139C87.5825 183.47 87.1353 183.729 86.6163 183.917C86.1083 184.105 85.5452 184.199 84.9268 184.199ZM90.7955 184V171.461H92.9653V184H90.7955ZM94.9688 184V174.989H97.0062V177.076L96.7743 176.728C96.9399 176.077 97.2712 175.591 97.7681 175.271C98.265 174.951 98.8503 174.79 99.5239 174.79C100.264 174.79 100.915 174.984 101.478 175.37C102.042 175.757 102.406 176.265 102.572 176.894L101.959 176.944C102.235 176.226 102.649 175.69 103.201 175.337C103.753 174.973 104.388 174.79 105.106 174.79C105.746 174.79 106.315 174.934 106.812 175.221C107.32 175.508 107.718 175.911 108.005 176.43C108.292 176.938 108.435 177.529 108.435 178.203V184H106.265V178.716C106.265 178.319 106.194 177.976 106.05 177.689C105.907 177.402 105.708 177.181 105.454 177.027C105.2 176.861 104.891 176.778 104.526 176.778C104.184 176.778 103.88 176.861 103.615 177.027C103.35 177.181 103.146 177.402 103.002 177.689C102.859 177.976 102.787 178.319 102.787 178.716V184H100.617V178.716C100.617 178.319 100.545 177.976 100.402 177.689C100.258 177.402 100.054 177.181 99.7889 177.027C99.5349 176.861 99.2313 176.778 98.8779 176.778C98.5356 176.778 98.2319 176.861 97.9669 177.027C97.7019 177.181 97.4976 177.402 97.354 177.689C97.2105 177.976 97.1387 178.319 97.1387 178.716V184H94.9688ZM110.271 184V174.989H112.441V184H110.271ZM110.271 173.979V171.66H112.441V173.979H110.271ZM114.444 184V174.989H116.482V176.762L116.316 176.447C116.526 175.906 116.868 175.497 117.343 175.221C117.829 174.934 118.392 174.79 119.033 174.79C119.695 174.79 120.28 174.934 120.788 175.221C121.307 175.508 121.71 175.911 121.998 176.43C122.285 176.938 122.428 177.529 122.428 178.203V184H120.258V178.716C120.258 178.319 120.181 177.976 120.026 177.689C119.872 177.402 119.657 177.181 119.38 177.027C119.115 176.861 118.801 176.778 118.436 176.778C118.083 176.778 117.768 176.861 117.492 177.027C117.216 177.181 117.001 177.402 116.846 177.689C116.692 177.976 116.614 178.319 116.614 178.716V184H114.444ZM128.636 187.644C127.962 187.644 127.338 187.534 126.764 187.313C126.19 187.092 125.693 186.783 125.273 186.385C124.865 185.999 124.567 185.54 124.379 185.01L126.4 184.248C126.532 184.668 126.792 185.005 127.178 185.259C127.576 185.524 128.062 185.656 128.636 185.656C129.078 185.656 129.464 185.574 129.795 185.408C130.138 185.242 130.403 184.999 130.591 184.679C130.778 184.37 130.872 183.994 130.872 183.553V181.499L131.286 181.996C130.977 182.537 130.563 182.945 130.044 183.221C129.525 183.498 128.934 183.636 128.272 183.636C127.432 183.636 126.681 183.442 126.019 183.056C125.356 182.669 124.837 182.139 124.462 181.466C124.086 180.792 123.899 180.036 123.899 179.196C123.899 178.346 124.086 177.59 124.462 176.927C124.837 176.265 125.351 175.746 126.002 175.37C126.654 174.984 127.394 174.79 128.222 174.79C128.895 174.79 129.486 174.934 129.994 175.221C130.513 175.497 130.944 175.9 131.286 176.43L130.988 176.977V174.989H133.042V183.553C133.042 184.337 132.849 185.038 132.462 185.656C132.087 186.275 131.568 186.761 130.905 187.114C130.254 187.467 129.497 187.644 128.636 187.644ZM128.537 181.631C129 181.631 129.403 181.532 129.746 181.333C130.099 181.123 130.375 180.836 130.574 180.472C130.773 180.107 130.872 179.688 130.872 179.213C130.872 178.749 130.767 178.335 130.557 177.971C130.359 177.595 130.083 177.303 129.729 177.093C129.387 176.883 128.989 176.778 128.537 176.778C128.084 176.778 127.675 176.883 127.311 177.093C126.946 177.303 126.659 177.595 126.45 177.971C126.251 178.335 126.151 178.749 126.151 179.213C126.151 179.677 126.251 180.091 126.45 180.455C126.659 180.82 126.941 181.107 127.294 181.317C127.659 181.526 128.073 181.631 128.537 181.631ZM136.095 184V181.681H138.282V184H136.095Z" fill="#191A15"/>
<rect x="18" y="65" width="51" height="6" rx="3" fill="#796146"/>
</g>
<defs>
<clipPath id="clip0_1098_4915">
<rect x="0.570312" y="0.875488" width="300.012" height="207.701" rx="15.1351" fill="white"/>
</clipPath>
</defs>
</svg>
