<svg width="25" height="26" viewBox="0 0 25 26" fill="none" xmlns="http://www.w3.org/2000/svg">
<path d="M13.5935 22.0126V24.5921L10.4981 22.5285L7.40263 24.5921V22.0126H6.88672C4.89224 22.0126 3.27539 20.3957 3.27539 18.4012V5.50363C3.27539 3.79408 4.66127 2.4082 6.37082 2.4082H20.8161C21.386 2.4082 21.848 2.87016 21.848 3.44001V20.9808C21.848 21.5506 21.386 22.0126 20.8161 22.0126H13.5935ZM7.40263 19.949V17.8853H13.5935V19.949H19.7843V16.8535H6.88672C6.03194 16.8535 5.33901 17.5465 5.33901 18.4012C5.33901 19.256 6.03194 19.949 6.88672 19.949H7.40263ZM7.40263 5.50363V7.56725H9.46625V5.50363H7.40263ZM7.40263 8.59906V10.6627H9.46625V8.59906H7.40263ZM7.40263 11.6945V13.7581H9.46625V11.6945H7.40263Z" fill="white"/>
</svg>
