<svg width="359" height="265" viewBox="0 0 359 265" fill="none" xmlns="http://www.w3.org/2000/svg">
<path d="M183.778 82.2657L51.0586 158.882C49.8251 159.613 48.7286 159.659 47.9062 159.202L222.84 260.58C223.662 261.037 224.758 260.991 225.992 260.26L358.665 183.644L183.732 82.2657H183.778Z" fill="#C6C3C0"/>
<path d="M349.802 183.319L220.281 258.107V242.254C220.281 235.812 223.708 229.827 229.327 226.584L349.802 157.003V183.319Z" fill="#B7B29A"/>
<path d="M45.9414 162.628C44.6622 161.852 43.8398 160.253 43.8398 158.014L157.051 217.452L219.184 259.621C219.184 261.905 219.641 263.276 220.92 264.052L45.9414 162.628Z" fill="#C38B7E"/>
<path d="M219.139 244.135L147.686 208.591L43.7949 142.483C43.7949 137.914 46.993 132.295 51.0134 130.01L170.164 177.753L226.358 231.663C222.383 233.947 219.139 239.566 219.139 244.135Z" fill="#BF847E"/>
<path d="M219.139 244.134L43.7949 142.482L43.8406 157.969L219.185 259.622L219.139 244.134Z" fill="#C38B7E"/>
<path d="M225.901 231.385L51.0137 130.007L183.687 53.3905L358.575 154.769L225.901 231.385Z" fill="#C6C3C0"/>
<path d="M358.575 154.769V158.013L225.902 234.629C223.48 236.045 221.47 239.472 221.516 242.258V257.746C221.562 260.533 223.572 261.675 225.993 260.259L358.667 183.643V186.886L225.993 263.503C222.018 265.787 218.729 263.96 218.729 259.391V243.903C218.683 239.335 221.927 233.715 225.902 231.431L358.575 154.815V154.769Z" fill="#C76E4E"/>
<path d="M188.523 54.7129L65.3067 125.847C64.1646 126.486 63.1138 126.578 62.3828 126.121L224.798 220.281C225.529 220.692 226.58 220.646 227.722 220.006L350.938 148.873L188.523 54.7129Z" fill="#C6C3C0"/>
<path d="M342.716 148.554L222.424 217.997V203.286C222.424 197.301 225.622 191.727 230.83 188.758L342.716 124.157V148.599V148.554Z" fill="#B7B29A"/>
<path d="M60.5544 129.315C59.3665 128.63 58.5898 127.122 58.5898 125.021L163.76 180.21L221.462 219.409C221.462 221.511 221.873 222.835 223.107 223.521L60.5544 129.315Z" fill="#C38B7E"/>
<path d="M221.371 205.019L155.035 171.987L58.5449 110.63C58.5449 106.382 61.5145 101.173 65.2608 99.0261L175.913 143.342L228.087 193.369C224.387 195.516 221.371 200.724 221.371 204.973V205.019Z" fill="#BF847E"/>
<path d="M221.371 205.018L58.5449 110.63L58.5906 125.021L221.417 219.409L221.371 205.018Z" fill="#C38B7E"/>
<path d="M227.675 193.188L65.2598 99.0278L188.476 27.894L350.891 122.054L227.675 193.188Z" fill="#C6C3C0"/>
<path d="M350.891 122.054V125.069L227.675 196.203C225.39 197.528 223.563 200.68 223.609 203.284V217.675C223.654 220.28 225.482 221.33 227.766 220.005L350.982 148.872V151.887L227.766 223.021C224.065 225.168 221.05 223.432 221.004 219.183V204.792C220.959 200.543 223.974 195.335 227.675 193.188L350.891 122.054Z" fill="#C76E4E"/>
<path d="M280.854 113.276L127.484 24.4155C129.449 23.2733 131.094 20.4865 131.094 18.2021L284.417 107.062C284.417 109.347 282.818 112.133 280.808 113.276H280.854Z" fill="#C38B7E"/>
<path d="M129.996 3.25903C130.636 3.62452 131.047 4.44688 131.047 5.54336V18.1985L284.416 107.059L284.873 92.1192L129.996 3.25903Z" fill="#C38B7E"/>
<path d="M153.525 186.74L0.201172 97.9255L127.484 24.416L280.853 113.276L153.525 186.74Z" fill="#DCD1C5"/>
<path d="M6.82422 75.7183L153.432 160.375V182.396L6.82422 97.7391V75.7183Z" fill="#C9C6B8"/>
<path d="M280.029 105.189V92.5343C280.029 91.3922 279.572 90.6155 278.932 90.25L153.432 160.379V182.4L276.465 111.357C278.43 110.169 280.029 107.428 280.029 105.144V105.189Z" fill="#B7B29A"/>
<path d="M153.525 189.385L0.201172 100.525V97.9209L153.525 186.735V189.385Z" fill="#C38B7E"/>
<path d="M131.643 0.475326C130.592 -0.164284 129.084 -0.0729105 127.439 0.886505L0.111328 74.3503L153.435 163.21L284.921 89.2898L131.643 0.475326Z" fill="#DCD1C5"/>
<path d="M280.76 89.701C284.003 87.8279 286.653 89.3355 286.653 93.0818V105.737C286.699 109.483 284.049 114.052 280.805 115.925L153.477 189.435V186.785L280.805 113.275C282.77 112.133 284.415 109.346 284.415 107.062V94.4067C284.415 92.1224 282.77 91.2087 280.76 92.3508L153.432 165.86V163.21L280.76 89.701Z" fill="#C76E4E"/>
<path d="M153.481 165.858L0.111328 76.9983V74.3484L153.435 163.209L153.481 165.858Z" fill="#C38B7E"/>
<path opacity="0.7" d="M25.0132 72.707L22.6832 74.0319L21.541 73.3923L23.871 72.0674L25.0132 72.707ZM28.8052 69.1892L25.3787 71.1537L26.5208 71.7933L29.9473 69.8288L28.8052 69.1892ZM39.7242 62.9301L30.3128 68.3668L31.455 69.0064L40.8664 63.5697L39.7242 62.9301ZM44.9325 59.8691L41.2319 62.0164L42.374 62.656L46.0746 60.5088L44.9325 59.8691ZM46.4401 59.0011L47.5823 59.6407L53.6129 56.1685L52.4707 55.5289L46.4401 59.0011ZM57.3592 52.6964L53.9784 54.6609L55.1205 55.3005L58.5013 53.336L57.3592 52.6964ZM61.7908 50.1836L58.9125 51.8283L60.0547 52.4679L62.9329 50.8232L61.7908 50.1836ZM29.8559 72.1588L24.602 75.1741L25.7442 75.8137L30.9981 72.7984L29.8559 72.1588ZM34.7444 69.2805L31.3179 71.2451L32.4601 71.8847L35.8866 69.9202L34.7444 69.2805ZM40.4552 66.0368L36.2977 68.4582L37.4399 69.0978L41.5974 66.6764L40.4552 66.0368ZM44.567 63.6611L41.9629 65.1688L43.105 65.8084L45.7091 64.3007L44.567 63.6611ZM46.0746 62.7931L47.2168 63.4327L54.6637 59.1382L53.5215 58.4986L46.0746 62.7931ZM57.9988 55.8944L55.0292 57.5848L56.1713 58.2244L59.1409 56.534L57.9988 55.8944ZM67.4559 50.4121L59.5064 54.9807L60.6486 55.6203L68.598 51.0517L67.4559 50.4121ZM29.993 75.5853L27.663 76.9102L28.8052 77.5498L31.1352 76.2249L29.993 75.5853ZM34.9271 72.7527L31.5007 74.7172L32.6428 75.3568L36.0693 73.3923L34.9271 72.7527ZM39.9527 69.8288L36.4348 71.8847L37.577 72.5243L41.0948 70.4684L39.9527 69.8288ZM51.0545 63.4327L41.4603 68.9607L42.6025 69.6004L52.1966 64.0723L51.0545 63.4327ZM52.5621 62.5646L53.7043 63.2043L59.7349 59.7321L58.5927 59.0925L52.5621 62.5646ZM63.4812 56.2599L60.1004 58.2244L61.2425 58.864L64.6233 56.8995L63.4812 56.2599ZM67.9127 53.7015L65.0345 55.3462L66.1767 55.9858L69.0549 54.3411L67.9127 53.7015ZM35.9779 75.6766L30.724 78.692L31.8662 79.3316L37.1201 76.3163L35.9779 75.6766ZM40.8664 72.8441L37.4399 74.8086L38.5821 75.4482L42.0085 73.4837L40.8664 72.8441ZM46.5772 69.5547L42.4197 71.976L43.5619 72.6157L47.7193 70.1943L46.5772 69.5547ZM50.689 67.179L48.0848 68.6866L49.227 69.3262L51.8311 67.8186L50.689 67.179ZM52.1966 66.3109L53.3388 66.9505L60.7857 62.656L59.6435 62.0164L52.1966 66.3109ZM64.1208 59.4123L61.1512 61.1027L62.2933 61.7423L65.2629 60.0519L64.1208 59.4123ZM74.3088 53.5187L65.6284 58.5442L66.7706 59.1838L75.451 54.1583L74.3088 53.5187ZM36.115 79.1031L33.785 80.428L34.9271 81.0676L37.2571 79.7427L36.115 79.1031ZM41.0491 76.2706L37.6226 78.2351L38.7648 78.8747L42.1913 76.9102L41.0491 76.2706ZM52.6535 69.5547L42.5568 75.4025L43.6989 76.0421L53.7956 70.1943L52.6535 69.5547ZM57.1764 66.9505L52.1052 69.8745L53.2474 70.5141L58.3186 67.5902L57.1764 66.9505ZM58.6841 66.0825L59.8262 66.7221L65.8569 63.2499L64.7147 62.6103L58.6841 66.0825ZM69.6488 59.7778L66.268 61.7423L67.4102 62.3819L70.791 60.4174L69.6488 59.7778ZM74.0347 57.2193L71.1565 58.864L72.2986 59.5037L75.1769 57.8589L74.0347 57.2193ZM42.0999 79.1945L36.846 82.2098L37.9881 82.8494L43.2421 79.8341L42.0999 79.1945ZM47.034 76.3619L43.6076 78.3265L44.7497 78.9661L48.1762 77.0016L47.034 76.3619ZM50.3235 74.4431L48.5417 75.4939L49.6839 76.1335L51.4656 75.0827L50.3235 74.4431ZM56.8109 70.7425L51.8311 73.6208L52.9733 74.2604L57.9531 71.3821L56.8109 70.7425ZM58.3186 69.8288L59.4608 70.4684L66.9076 66.1739L65.7655 65.5343L58.3186 69.8288ZM70.2428 62.9758L67.2731 64.6662L68.4153 65.3058L71.3849 63.6154L70.2428 62.9758ZM81.2075 56.6254L71.7504 62.0621L72.8926 62.7017L82.3497 57.265L81.2075 56.6254ZM68.5067 46.2546L63.2527 49.2699L64.3949 49.9095L69.6488 46.8942L68.5067 46.2546ZM73.4408 43.422L70.0143 45.3865L71.1565 46.0262L74.583 44.0616L73.4408 43.422ZM84.4969 37.0259L74.9485 42.554L76.0906 43.1936L85.6391 37.6655L84.4969 37.0259ZM91.624 32.9141L86.0046 36.1579L87.1467 36.7975L92.7662 33.5538L91.624 32.9141ZM93.1317 32.0461L94.2738 32.6857L99.5734 29.6247L98.4313 28.9851L93.1317 32.0461ZM103.32 26.1982L99.9389 28.1628L101.081 28.8024L104.462 26.8378L103.32 26.1982ZM74.4916 46.346L68.9635 49.544L70.1057 50.1836L75.6338 46.9856L74.4916 46.346ZM79.4257 43.5134L75.9992 45.4779L77.1414 46.1175L80.5679 44.153L79.4257 43.5134ZM85.0908 40.224L80.9334 42.6454L82.0755 43.285L86.233 40.8636L85.0908 40.224ZM91.2585 36.7061L86.6442 39.4016L87.7863 40.0412L92.4007 37.3457L91.2585 36.7061ZM92.7662 35.7924L93.9083 36.432L98.5683 33.7365L97.4262 33.0969L92.7662 35.7924ZM103.959 29.3506L98.9338 32.2289L100.076 32.8685L105.102 29.9902L103.959 29.3506ZM74.6287 49.8181L69.3747 52.8334L70.5169 53.473L75.7708 50.4577L74.6287 49.8181ZM79.5628 46.9856L76.1363 48.9501L77.2785 49.5897L80.7049 47.6252L79.5628 46.9856ZM86.5528 42.9195L81.1161 46.0718L82.2583 46.7115L87.695 43.5591L86.5528 42.9195ZM97.746 36.4777L88.0605 42.0971L89.2026 42.7367L98.8882 37.1173L97.746 36.4777ZM99.2993 35.564L100.441 36.2036L105.741 33.1426L104.599 32.503L99.2993 35.564ZM109.442 29.7161L106.061 31.6806L107.203 32.3202L110.584 30.3557L109.442 29.7161ZM80.6136 49.9095L75.8165 52.6507L76.9587 53.2903L81.7557 50.5491L80.6136 49.9095ZM85.5477 47.0769L82.1212 49.0415L83.2634 49.6811L86.6899 47.7166L85.5477 47.0769ZM92.5377 43.0108L87.0554 46.1632L88.1975 46.8028L93.6799 43.6505L92.5377 43.0108ZM97.3805 40.224L94.0454 42.1428L95.1875 42.7824L98.5227 40.8636L97.3805 40.224ZM98.8882 39.3559L100.03 39.9955L104.69 37.3L103.548 36.6604L98.8882 39.3559ZM110.081 32.9141L105.056 35.7924L106.198 36.432L111.223 33.5538L110.081 32.9141ZM80.7506 53.336L75.4967 56.3513L76.6389 56.9909L81.8928 53.9756L80.7506 53.336ZM85.6848 50.5034L82.2583 52.4679L83.4004 53.1075L86.8269 51.143L85.6848 50.5034ZM94.2738 45.5236L87.1924 49.5897L88.3346 50.2293L95.416 46.1632L94.2738 45.5236ZM86.7356 53.4274L82.7151 55.7574L83.8573 56.397L87.8777 54.067L86.7356 53.4274ZM91.6697 50.5948L88.2432 52.5593L89.3854 53.1989L92.8119 51.2344L91.6697 50.5948ZM95.5073 48.3562L93.1773 49.7268L94.3195 50.3664L96.6495 48.9958L95.5073 48.3562ZM48.9072 86.5043L46.5772 87.8292L47.7193 88.4689L50.0494 87.1439L48.9072 86.5043ZM53.8413 83.6718L50.4148 85.6363L51.557 86.2759L54.9835 84.3114L53.8413 83.6718ZM64.7604 77.3671L55.349 82.8037L56.4911 83.4433L65.9025 78.0067L64.7604 77.3671ZM69.9686 74.3517L66.268 76.499L67.4102 77.1386L71.1108 74.9914L69.9686 74.3517ZM71.522 73.4837L72.6641 74.1233L78.6947 70.6511L77.5526 70.0115L71.522 73.4837ZM82.441 67.179L79.0602 69.1435L80.2024 69.7831L83.5832 67.8186L82.441 67.179ZM86.8269 64.6205L83.9487 66.2652L85.0908 66.9049L87.9691 65.2601L86.8269 64.6205ZM54.8921 86.5957L49.6382 89.611L50.7803 90.2506L56.0343 87.2353L54.8921 86.5957ZM59.8262 83.7631L56.3998 85.7277L57.5419 86.3673L60.9684 84.4028L59.8262 83.7631ZM65.4914 80.4737L61.3339 82.8951L62.4761 83.5347L66.6335 81.1133L65.4914 80.4737ZM69.6031 78.098L66.999 79.6057L68.1412 80.2453L70.7453 78.7376L69.6031 78.098ZM71.1108 77.23L72.253 77.8696L79.6998 73.5751L78.5577 72.9355L71.1108 77.23ZM83.035 70.3313L80.0653 72.0217L81.2075 72.6613L84.1771 70.971L83.035 70.3313ZM92.492 64.8947L84.5426 69.4633L85.6848 70.1029L93.6342 65.5343L92.492 64.8947ZM93.5428 60.7372L88.2889 63.7525L89.4311 64.3921L94.685 61.3768L93.5428 60.7372ZM98.477 57.9046L95.0505 59.8691L96.1926 60.5088L99.6191 58.5442L98.477 57.9046ZM109.579 51.5085L100.03 57.0366L101.172 57.6762L110.721 52.1481L109.579 51.5085ZM116.66 47.3967L111.041 50.6405L112.183 51.2801L117.802 48.0364L116.66 47.3967ZM118.214 46.5287L119.356 47.1683L124.655 44.1073L123.513 43.4677L118.214 46.5287ZM128.356 40.6352L124.975 42.5997L126.117 43.2393L129.498 41.2748L128.356 40.6352ZM99.5278 60.8286L93.9997 64.0266L95.1419 64.6662L100.67 61.4682L99.5278 60.8286ZM104.462 57.996L101.035 59.9605L102.178 60.6001L105.604 58.6356L104.462 57.996ZM110.127 54.7066L105.97 57.128L107.112 57.7676L111.269 55.3462L110.127 54.7066ZM116.295 51.143L111.68 53.8385L112.823 54.4781L117.437 51.7826L116.295 51.143ZM117.802 50.275L118.944 50.9146L123.605 48.2191L122.462 47.5795L117.802 50.275ZM128.996 43.8332L123.97 46.7115L125.112 47.3511L130.138 44.4728L128.996 43.8332ZM61.5623 93.8142L59.2323 95.1391L60.3745 95.7787L62.7045 94.4538L61.5623 93.8142ZM66.4965 90.9816L63.07 92.9461L64.2121 93.5857L67.6386 91.6212L66.4965 90.9816ZM77.3698 84.6769L67.9584 90.1136L69.1006 90.7532L78.512 85.3165L77.3698 84.6769ZM82.6238 81.6616L78.9232 83.8088L80.0653 84.4484L83.7659 82.3012L82.6238 81.6616ZM84.1314 80.7478L85.2736 81.3875L91.3042 77.9153L90.162 77.2757L84.1314 80.7478ZM95.0505 74.4431L91.6697 76.4076L92.8119 77.0472L96.1926 75.0827L95.0505 74.4431ZM99.4364 71.9304L96.5581 73.5751L97.7003 74.2147L100.579 72.57L99.4364 71.9304ZM67.5016 93.9055L62.2476 96.9208L63.3898 97.5605L68.6437 94.5452L67.5016 93.9055ZM72.4357 91.073L69.0092 93.0375L70.1514 93.6771L73.5779 91.7126L72.4357 91.073ZM78.1465 87.7836L73.989 90.2049L75.1312 90.8446L79.2887 88.4232L78.1465 87.7836ZM82.2126 85.4079L79.6085 86.9155L80.7506 87.5551L83.3548 86.0475L82.2126 85.4079ZM83.7659 84.5398L84.9081 85.1794L92.355 80.8849L91.2128 80.2453L83.7659 84.5398ZM95.6901 77.6412L92.7205 79.3316L93.8626 79.9712L96.8323 78.2808L95.6901 77.6412ZM105.147 72.1588L97.1978 76.7274L98.3399 77.3671L106.289 72.7984L105.147 72.1588ZM67.6843 97.332L65.3543 98.6569L66.4965 99.2965L68.8265 97.9716L67.6843 97.332ZM72.6185 94.4995L69.192 96.464L70.3341 97.1036L73.7606 95.1391L72.6185 94.4995ZM77.644 91.5755L74.1261 93.6314L75.2683 94.271L78.7861 92.2151L77.644 91.5755ZM88.7458 85.1794L79.1516 90.7075L80.2938 91.3471L89.8879 85.819L88.7458 85.1794ZM90.2534 84.3114L91.3956 84.951L97.4262 81.4788L96.284 80.8392L90.2534 84.3114ZM101.172 78.0067L97.7917 79.9712L98.9338 80.6108L102.315 78.6463L101.172 78.0067ZM105.558 75.4482L102.68 77.0929L103.822 77.7325L106.701 76.0878L105.558 75.4482ZM73.6236 97.4234L68.3696 100.439L69.5118 101.078L74.7657 98.063L73.6236 97.4234ZM78.5577 94.5908L75.1312 96.5554L76.2734 97.195L79.6998 95.2304L78.5577 94.5908ZM84.2685 91.3014L80.111 93.7228L81.2532 94.3624L85.4107 91.941L84.2685 91.3014ZM88.3803 88.9257L85.7761 90.4334L86.9183 91.073L89.5224 89.5653L88.3803 88.9257ZM89.8879 88.0577L91.0301 88.6973L98.477 84.4028L97.3348 83.7631L89.8879 88.0577ZM101.812 81.159L98.8425 82.8494L99.9846 83.489L102.954 81.7986L101.812 81.159ZM112 75.2655L103.32 80.291L104.462 80.9306L113.142 75.9051L112 75.2655ZM73.8063 100.896L71.4763 102.22L72.6185 102.86L74.9485 101.535L73.8063 100.896ZM78.7404 98.0173L75.314 99.9818L76.4561 100.621L79.8826 98.6569L78.7404 98.0173ZM90.3448 91.3471L80.2481 97.195L81.3902 97.8346L91.4869 91.9867L90.3448 91.3471ZM94.8677 88.6973L89.7965 91.6212L90.9387 92.2608L96.0099 89.3369L94.8677 88.6973ZM96.3754 87.8292L97.5176 88.4689L103.548 84.9967L102.406 84.3571L96.3754 87.8292ZM107.294 81.5245L103.914 83.489L105.056 84.1286L108.437 82.1641L107.294 81.5245ZM111.726 79.0118L108.848 80.6565L109.99 81.2961L112.868 79.6514L111.726 79.0118ZM79.7912 100.987L74.5373 104.002L75.6794 104.642L80.9334 101.627L79.7912 100.987ZM84.6797 98.1087L81.2532 100.073L82.3953 100.713L85.8218 98.7483L84.6797 98.1087ZM88.0148 96.2355L86.233 97.2863L87.3752 97.9259L89.1569 96.8752L88.0148 96.2355ZM94.5023 92.4893L89.5224 95.3675L90.6646 96.0071L95.6444 93.1289L94.5023 92.4893ZM96.0099 91.6212L97.1521 92.2608L104.599 87.9663L103.457 87.3267L96.0099 91.6212ZM107.934 84.7226L104.964 86.413L106.107 87.0526L109.076 85.3622L107.934 84.7226ZM118.899 78.3721L109.442 83.8088L110.584 84.4484L120.041 79.0118L118.899 78.3721ZM106.198 68.047L100.944 71.0623L102.086 71.7019L107.34 68.6866L106.198 68.047ZM111.132 65.1688L107.706 67.1333L108.848 67.7729L112.274 65.8084L111.132 65.1688ZM122.188 58.7727L112.64 64.3007L113.782 64.9403L123.33 59.4123L122.188 58.7727ZM129.315 54.6609L123.696 57.9046L124.838 58.5442L130.457 55.3005L129.315 54.6609ZM130.823 53.7928L131.965 54.4325L137.265 51.3715L136.123 50.7319L130.823 53.7928ZM141.011 47.945L137.63 49.9095L138.772 50.5491L142.153 48.5846L141.011 47.945ZM112.183 68.1384L106.655 71.3364L107.797 71.976L113.325 68.778L112.183 68.1384ZM117.071 65.2601L113.645 67.2247L114.787 67.8643L118.214 65.8998L117.071 65.2601ZM122.782 62.0164L118.625 64.4378L119.767 65.0774L123.924 62.656L122.782 62.0164ZM128.95 58.4529L124.335 61.1484L125.478 61.788L130.092 59.0925L128.95 58.4529ZM130.457 57.5848L131.6 58.2244L136.26 55.5289L135.117 54.8893L130.457 57.5848ZM141.605 51.0973L136.579 53.9756L137.722 54.6152L142.747 51.737L141.605 51.0973ZM112.32 71.5649L107.066 74.5802L108.208 75.2198L113.462 72.2045L112.32 71.5649ZM117.254 68.7323L113.828 70.6968L114.97 71.3364L118.396 69.3719L117.254 68.7323ZM124.244 64.7119L118.807 67.8643L119.95 68.5039L125.386 65.3515L124.244 64.7119ZM135.437 58.2244L125.752 63.8439L126.894 64.4835L136.579 58.864L135.437 58.2244ZM136.945 57.3564L138.087 57.996L143.387 54.935L142.245 54.2954L136.945 57.3564ZM147.133 51.4628L143.752 53.4274L144.894 54.067L148.275 52.1025L147.133 51.4628ZM118.305 71.6562L113.508 74.3974L114.65 75.037L119.447 72.2959L118.305 71.6562ZM123.239 68.8237L119.813 70.7882L120.955 71.4278L124.381 69.4633L123.239 68.8237ZM130.183 64.8033L124.701 67.9556L125.843 68.5953L131.326 65.4429L130.183 64.8033ZM135.072 61.9707L131.737 63.8895L132.879 64.5292L136.214 62.6103L135.072 61.9707ZM136.579 61.1027L137.722 61.7423L142.382 59.0468L141.239 58.4072L136.579 61.1027ZM147.727 54.6609L142.701 57.5391L143.844 58.1787L148.869 55.3005L147.727 54.6609ZM118.442 75.0827L113.188 78.098L114.33 78.7376L119.584 75.7223L118.442 75.0827ZM123.376 72.2502L119.95 74.2147L121.092 74.8543L124.518 72.8898L123.376 72.2502ZM131.965 67.316L124.884 71.3821L126.026 72.0217L133.107 67.9556L131.965 67.316ZM141.559 61.7423L133.473 66.4023L134.615 67.0419L142.701 62.3819L141.559 61.7423ZM143.067 60.8742L144.209 61.5139L149.509 58.4529L148.367 57.8133L143.067 60.8742ZM153.255 55.0264L149.874 56.9909L151.016 57.6305L154.397 55.666L153.255 55.0264ZM124.427 75.1741L120.406 77.5041L121.549 78.1437L125.569 75.8137L124.427 75.1741ZM129.361 72.3415L125.935 74.3061L127.077 74.9457L130.503 72.9811L129.361 72.3415ZM133.199 70.1486L130.869 71.5192L132.011 72.1588L134.341 70.7882L133.199 70.1486ZM141.194 65.5343L134.706 69.2805L135.848 69.9202L142.336 66.1739L141.194 65.5343ZM142.701 64.6205L143.844 65.2601L148.504 62.5646L147.361 61.925L142.701 64.6205ZM153.895 58.1787L148.869 61.057L150.011 61.6966L155.037 58.8184L153.895 58.1787ZM85.6391 107.703L83.3091 109.028L84.4512 109.667L86.7812 108.342L85.6391 107.703ZM90.5732 104.87L87.1467 106.835L88.2889 107.474L91.7154 105.51L90.5732 104.87ZM101.447 98.5656L92.0352 104.002L93.1773 104.642L102.589 99.2052L101.447 98.5656ZM106.701 95.5502L103 97.6975L104.142 98.3371L107.843 96.1899L106.701 95.5502ZM108.208 94.6822L109.35 95.3218L115.381 91.8496L114.239 91.21L108.208 94.6822ZM119.127 88.3775L115.746 90.342L116.889 90.9816L120.269 89.0171L119.127 88.3775ZM123.513 85.819L120.635 87.4637L121.777 88.1034L124.655 86.4586L123.513 85.819ZM91.5783 107.794L86.3244 110.81L87.4665 111.449L92.7205 108.434L91.5783 107.794ZM96.5125 104.962L93.086 106.926L94.2281 107.566L97.6546 105.601L96.5125 104.962ZM102.223 101.672L98.0658 104.094L99.208 104.733L103.365 102.312L102.223 101.672ZM106.289 99.2965L103.685 100.804L104.827 101.444L107.432 99.9361L106.289 99.2965ZM107.843 98.4285L108.985 99.0681L116.432 94.7736L115.29 94.134L107.843 98.4285ZM119.767 91.5298L116.797 93.2202L117.939 93.8599L120.909 92.1695L119.767 91.5298ZM130.275 81.9357L125.021 84.951L126.163 85.5906L131.417 82.5753L130.275 81.9357ZM135.209 79.1031L131.782 81.0676L132.925 81.7073L136.351 79.7427L135.209 79.1031Z" fill="#824800"/>
</svg>
